{"glyphs":{"0":{"ha":910,"x_min":74,"x_max":836,"o":"m 454 -17 q 168 103 263 -17 q 74 461 74 222 q 454 939 74 939 q 742 819 647 939 q 836 461 836 700 q 742 102 836 221 q 454 -17 649 -17 m 454 114 q 567 140 518 114 q 649 242 617 165 q 682 461 682 318 q 619 737 682 665 q 454 808 556 808 q 291 737 354 808 q 228 461 228 665 q 290 185 228 256 q 454 114 353 114 z "},"1":{"ha":638,"x_min":117,"x_max":453,"o":"m 300 0 l 300 774 l 117 661 l 117 814 l 303 926 l 453 926 l 453 0 l 300 0 z "},"2":{"ha":824,"x_min":103,"x_max":715,"o":"m 715 144 l 715 0 l 103 0 l 103 118 q 298 274 196 181 q 473 469 400 367 q 546 657 546 572 q 500 767 546 725 q 353 810 454 810 q 111 719 232 810 l 111 864 q 386 942 240 942 q 622 866 543 942 q 700 669 700 790 q 589 408 700 539 q 313 144 478 276 l 715 144 z "},"3":{"ha":817,"x_min":107,"x_max":713,"o":"m 365 -11 q 107 53 235 -11 l 107 194 q 353 119 233 119 q 515 158 458 119 q 572 268 572 196 q 516 383 572 343 q 349 424 460 424 l 232 424 l 232 550 l 351 550 q 481 584 436 550 q 526 678 526 618 q 476 774 526 742 q 336 807 426 807 q 232 794 282 807 q 128 756 182 782 l 128 886 q 351 939 233 939 q 522 906 450 939 q 632 817 594 874 q 669 688 669 760 q 644 591 669 632 q 588 527 619 550 q 542 501 557 504 q 606 467 565 496 q 680 385 647 438 q 713 263 713 333 q 672 120 713 182 q 553 24 632 58 q 365 -11 475 -11 z "},"4":{"ha":832,"x_min":53,"x_max":761,"o":"m 481 0 l 481 265 l 53 265 l 53 396 l 481 926 l 635 926 l 635 392 l 761 392 l 761 265 l 635 265 l 635 0 l 481 0 m 199 392 l 481 392 l 481 738 l 199 392 z "},"5":{"ha":806,"x_min":117,"x_max":732,"o":"m 426 597 q 644 528 557 597 q 732 297 732 458 q 638 56 732 126 q 400 -14 543 -14 q 246 5 315 -14 q 131 51 176 24 l 131 200 q 235 145 169 169 q 385 121 301 121 q 578 290 578 121 q 528 423 578 388 q 396 458 479 458 q 277 446 319 458 q 196 417 235 433 l 117 500 l 169 926 l 667 926 l 667 788 l 279 788 l 257 576 q 426 597 335 597 z "},"6":{"ha":835,"x_min":78,"x_max":758,"o":"m 440 599 q 676 520 593 599 q 758 299 758 442 q 722 144 758 215 q 607 30 685 74 q 414 -14 529 -14 q 78 425 78 -14 q 215 835 78 729 q 515 942 353 942 q 679 917 610 942 l 679 782 q 529 810 606 810 q 404 783 468 810 q 292 688 340 756 q 235 511 244 621 q 322 574 269 549 q 440 599 374 599 m 421 119 q 564 178 525 119 q 603 301 603 236 q 556 431 603 386 q 424 475 510 475 q 308 451 357 475 q 233 389 260 426 q 265 222 240 281 q 328 141 290 163 q 421 119 367 119 z "},"7":{"ha":808,"x_min":96,"x_max":742,"o":"m 96 926 l 742 926 l 742 817 l 372 0 l 203 0 l 569 781 l 96 781 l 96 926 z "},"8":{"ha":838,"x_min":74,"x_max":765,"o":"m 419 -14 q 225 25 303 -14 q 110 128 147 64 q 74 269 74 193 q 126 416 74 365 q 233 492 179 467 q 150 557 194 508 q 106 690 106 606 q 183 872 106 803 q 419 942 260 942 q 657 872 579 942 q 735 690 735 803 q 694 558 735 604 q 610 492 653 513 q 712 419 658 472 q 765 269 765 367 q 729 128 765 193 q 615 25 693 64 q 419 -14 538 -14 m 419 540 q 534 578 490 540 q 578 681 578 615 q 532 778 578 747 q 419 810 486 810 q 307 778 353 810 q 261 681 261 747 q 306 578 261 615 q 419 540 350 540 m 419 115 q 567 170 528 115 q 607 285 607 225 q 558 394 607 354 q 419 435 510 435 q 282 394 331 435 q 233 285 233 354 q 273 170 233 225 q 419 115 313 115 z "},"9":{"ha":840,"x_min":78,"x_max":758,"o":"m 413 942 q 758 503 758 942 q 621 92 758 199 q 321 -14 483 -14 q 157 11 226 -14 l 157 146 q 307 118 231 118 q 432 145 368 118 q 544 240 496 172 q 601 417 592 307 q 515 354 567 379 q 396 329 463 329 q 160 408 243 329 q 78 629 78 486 q 115 783 78 713 q 226 898 151 854 q 413 942 301 942 m 413 453 q 527 478 478 453 q 603 540 576 503 q 571 708 596 649 q 507 788 546 767 q 413 808 468 808 q 272 750 311 808 q 232 626 232 692 q 279 497 232 542 q 413 453 326 453 z "},"\u0000":{"ha":0,"x_min":0,"x_max":0,"o":""},"\r":{"ha":394,"x_min":0,"x_max":0,"o":""}," ":{"ha":394,"x_min":0,"x_max":0,"o":""},"A":{"ha":922,"x_min":24,"x_max":899,"o":"m 738 0 l 646 251 l 267 251 l 176 0 l 24 0 l 385 926 l 547 926 l 899 0 l 738 0 m 313 376 l 600 376 l 456 774 l 313 376 z "},"Á":{"ha":922,"x_min":24,"x_max":899,"o":"m 738 0 l 646 251 l 267 251 l 176 0 l 24 0 l 385 926 l 547 926 l 899 0 l 738 0 m 313 376 l 600 376 l 456 774 l 313 376 m 425 1010 l 492 1168 l 643 1168 l 507 1010 l 425 1010 z "},"Ă":{"ha":922,"x_min":24,"x_max":899,"o":"m 738 0 l 646 251 l 267 251 l 176 0 l 24 0 l 385 926 l 547 926 l 899 0 l 738 0 m 313 376 l 600 376 l 456 774 l 313 376 m 463 968 q 332 1013 382 968 q 265 1138 282 1057 l 356 1138 q 397 1077 369 1100 q 463 1054 424 1054 q 568 1138 536 1054 l 658 1138 q 595 1013 647 1058 q 463 968 543 968 z "},"Ắ":{"ha":922,"x_min":24,"x_max":899,"o":"m 738 0 l 646 251 l 267 251 l 176 0 l 24 0 l 385 926 l 547 926 l 899 0 l 738 0 m 313 376 l 600 376 l 456 774 l 313 376 m 463 986 q 332 1031 382 986 q 265 1156 282 1075 l 356 1156 q 397 1095 369 1118 q 463 1072 424 1072 q 568 1156 536 1072 l 658 1156 q 595 1031 647 1076 q 463 986 543 986 m 411 1181 l 478 1339 l 629 1339 l 493 1181 l 411 1181 z "},"Ặ":{"ha":922,"x_min":24,"x_max":899,"o":"m 738 0 l 646 251 l 267 251 l 176 0 l 24 0 l 385 926 l 547 926 l 899 0 l 738 0 m 313 376 l 600 376 l 456 774 l 313 376 m 399 -192 l 399 -69 l 525 -69 l 525 -192 l 399 -192 m 463 968 q 332 1013 382 968 q 265 1138 282 1057 l 356 1138 q 397 1077 369 1100 q 463 1054 424 1054 q 568 1138 536 1054 l 658 1138 q 595 1013 647 1058 q 463 968 543 968 z "},"Ằ":{"ha":922,"x_min":24,"x_max":899,"o":"m 738 0 l 646 251 l 267 251 l 176 0 l 24 0 l 385 926 l 547 926 l 899 0 l 738 0 m 313 376 l 600 376 l 456 774 l 313 376 m 463 986 q 332 1031 382 986 q 265 1156 282 1075 l 356 1156 q 397 1095 369 1118 q 463 1072 424 1072 q 568 1156 536 1072 l 658 1156 q 595 1031 647 1076 q 463 986 543 986 m 422 1169 l 290 1333 l 435 1333 l 508 1169 l 422 1169 z "},"Ẳ":{"ha":922,"x_min":24,"x_max":899,"o":"m 738 0 l 646 251 l 267 251 l 176 0 l 24 0 l 385 926 l 547 926 l 899 0 l 738 0 m 313 376 l 600 376 l 456 774 l 313 376 m 454 986 q 324 1031 374 986 q 257 1156 274 1075 l 347 1156 q 388 1095 361 1118 q 454 1072 415 1072 q 560 1156 528 1072 l 650 1156 q 587 1031 639 1076 q 454 986 535 986 m 415 1246 q 453 1256 439 1246 q 467 1279 467 1267 q 403 1314 467 1314 q 364 1310 385 1314 l 364 1379 q 424 1383 385 1383 q 524 1360 483 1383 q 564 1283 564 1336 q 544 1229 564 1250 q 488 1203 525 1208 l 488 1171 l 415 1171 l 415 1246 z "},"Ẵ":{"ha":922,"x_min":24,"x_max":899,"o":"m 738 0 l 646 251 l 267 251 l 176 0 l 24 0 l 385 926 l 547 926 l 899 0 l 738 0 m 313 376 l 600 376 l 456 774 l 313 376 m 463 986 q 332 1031 382 986 q 265 1156 282 1075 l 356 1156 q 397 1095 369 1118 q 463 1072 424 1072 q 568 1156 536 1072 l 658 1156 q 595 1031 647 1076 q 463 986 543 986 m 244 1203 q 242 1236 242 1225 q 280 1337 242 1297 q 369 1376 318 1376 q 430 1363 403 1376 q 490 1325 457 1350 q 533 1297 517 1306 q 567 1288 549 1288 q 597 1301 586 1288 q 608 1342 608 1315 q 607 1361 608 1354 l 690 1361 q 692 1338 692 1353 q 653 1235 692 1275 q 557 1196 615 1196 q 490 1210 519 1196 q 429 1250 461 1225 q 392 1276 406 1268 q 365 1283 379 1283 q 333 1267 346 1283 q 321 1224 321 1251 q 322 1203 321 1210 l 244 1203 z "},"Ǎ":{"ha":922,"x_min":24,"x_max":899,"o":"m 738 0 l 646 251 l 267 251 l 176 0 l 24 0 l 385 926 l 547 926 l 899 0 l 738 0 m 313 376 l 600 376 l 456 774 l 313 376 m 411 975 l 299 1143 l 400 1143 l 461 1051 l 522 1143 l 624 1143 l 517 975 l 411 975 z "},"Â":{"ha":922,"x_min":24,"x_max":899,"o":"m 738 0 l 646 251 l 267 251 l 176 0 l 24 0 l 385 926 l 547 926 l 899 0 l 738 0 m 313 376 l 600 376 l 456 774 l 313 376 m 286 993 l 403 1161 l 524 1161 l 639 993 l 543 993 l 463 1083 l 382 993 l 286 993 z "},"Ấ":{"ha":922,"x_min":24,"x_max":899,"o":"m 738 0 l 646 251 l 267 251 l 176 0 l 24 0 l 385 926 l 547 926 l 899 0 l 738 0 m 313 376 l 600 376 l 456 774 l 313 376 m 289 1004 l 406 1172 l 526 1172 l 642 1004 l 546 1004 l 465 1094 l 385 1004 l 289 1004 m 603 1106 l 669 1264 l 821 1264 l 685 1106 l 603 1106 z "},"Ậ":{"ha":922,"x_min":24,"x_max":899,"o":"m 738 0 l 646 251 l 267 251 l 176 0 l 24 0 l 385 926 l 547 926 l 899 0 l 738 0 m 313 376 l 600 376 l 456 774 l 313 376 m 399 -192 l 399 -69 l 525 -69 l 525 -192 l 399 -192 m 286 993 l 403 1161 l 524 1161 l 639 993 l 543 993 l 463 1083 l 382 993 l 286 993 z "},"Ầ":{"ha":922,"x_min":24,"x_max":899,"o":"m 738 0 l 646 251 l 267 251 l 176 0 l 24 0 l 385 926 l 547 926 l 899 0 l 738 0 m 313 376 l 600 376 l 456 774 l 313 376 m 292 1004 l 408 1172 l 529 1172 l 644 1004 l 549 1004 l 468 1094 l 388 1004 l 292 1004 m 214 1099 l 90 1257 l 228 1257 l 300 1099 l 214 1099 z "},"Ẩ":{"ha":922,"x_min":24,"x_max":899,"o":"m 738 0 l 646 251 l 267 251 l 176 0 l 24 0 l 385 926 l 547 926 l 899 0 l 738 0 m 313 376 l 600 376 l 456 774 l 313 376 m 276 1004 l 393 1172 l 514 1172 l 629 1004 l 533 1004 l 453 1094 l 372 1004 l 276 1004 m 621 1157 q 658 1167 644 1157 q 672 1190 672 1178 q 608 1225 672 1225 q 569 1221 590 1225 l 569 1290 q 629 1294 590 1294 q 729 1271 689 1294 q 769 1194 769 1247 q 750 1140 769 1161 q 693 1114 731 1119 l 693 1082 l 621 1082 l 621 1157 z "},"Ẫ":{"ha":922,"x_min":24,"x_max":899,"o":"m 738 0 l 646 251 l 267 251 l 176 0 l 24 0 l 385 926 l 547 926 l 899 0 l 738 0 m 313 376 l 600 376 l 456 774 l 313 376 m 292 982 l 408 1150 l 529 1150 l 644 982 l 549 982 l 468 1072 l 388 982 l 292 982 m 244 1203 q 242 1236 242 1225 q 280 1337 242 1297 q 369 1376 318 1376 q 430 1363 403 1376 q 490 1325 457 1350 q 533 1297 517 1306 q 567 1288 549 1288 q 597 1301 586 1288 q 608 1342 608 1315 q 607 1361 608 1354 l 690 1361 q 692 1338 692 1353 q 653 1235 692 1275 q 557 1196 615 1196 q 490 1210 519 1196 q 429 1250 461 1225 q 392 1276 406 1268 q 365 1283 379 1283 q 333 1267 346 1283 q 321 1224 321 1251 q 322 1203 321 1210 l 244 1203 z "},"Ȁ":{"ha":922,"x_min":24,"x_max":899,"o":"m 738 0 l 646 251 l 267 251 l 176 0 l 24 0 l 385 926 l 547 926 l 899 0 l 738 0 m 313 376 l 600 376 l 456 774 l 313 376 m 332 1008 l 208 1167 l 346 1167 l 418 1008 l 332 1008 m 532 1010 l 408 1168 l 546 1168 l 618 1010 l 532 1010 z "},"Ä":{"ha":922,"x_min":24,"x_max":899,"o":"m 738 0 l 646 251 l 267 251 l 176 0 l 24 0 l 385 926 l 547 926 l 899 0 l 738 0 m 313 376 l 600 376 l 456 774 l 313 376 m 276 996 l 276 1118 l 417 1118 l 417 996 l 276 996 m 504 996 l 504 1118 l 643 1118 l 643 996 l 504 996 z "},"Ȧ":{"ha":922,"x_min":24,"x_max":899,"o":"m 738 0 l 646 251 l 267 251 l 176 0 l 24 0 l 385 926 l 547 926 l 899 0 l 738 0 m 313 376 l 600 376 l 456 774 l 313 376 m 389 974 l 389 1096 l 524 1096 l 524 974 l 389 974 z "},"Ạ":{"ha":922,"x_min":24,"x_max":899,"o":"m 738 0 l 646 251 l 267 251 l 176 0 l 24 0 l 385 926 l 547 926 l 899 0 l 738 0 m 313 376 l 600 376 l 456 774 l 313 376 m 399 -192 l 399 -69 l 525 -69 l 525 -192 l 399 -192 z "},"À":{"ha":922,"x_min":24,"x_max":899,"o":"m 738 0 l 646 251 l 267 251 l 176 0 l 24 0 l 385 926 l 547 926 l 899 0 l 738 0 m 313 376 l 600 376 l 456 774 l 313 376 m 426 999 l 303 1157 l 440 1157 l 513 999 l 426 999 z "},"Ả":{"ha":922,"x_min":24,"x_max":899,"o":"m 738 0 l 646 251 l 267 251 l 176 0 l 24 0 l 385 926 l 547 926 l 899 0 l 738 0 m 313 376 l 600 376 l 456 774 l 313 376 m 414 1051 q 451 1062 438 1051 q 465 1085 465 1072 q 401 1119 465 1119 q 363 1115 383 1119 l 363 1185 q 422 1189 383 1189 q 522 1165 482 1189 q 563 1089 563 1142 q 543 1035 563 1056 q 486 1008 524 1014 l 486 976 l 414 976 l 414 1051 z "},"Ȃ":{"ha":922,"x_min":24,"x_max":899,"o":"m 738 0 l 646 251 l 267 251 l 176 0 l 24 0 l 385 926 l 547 926 l 899 0 l 738 0 m 313 376 l 600 376 l 456 774 l 313 376 m 463 1121 q 595 1076 543 1121 q 658 951 647 1031 l 568 951 q 463 1035 536 1035 q 397 1012 424 1035 q 356 951 369 989 l 265 951 q 332 1076 282 1032 q 463 1121 382 1121 z "},"Ā":{"ha":922,"x_min":24,"x_max":899,"o":"m 738 0 l 646 251 l 267 251 l 176 0 l 24 0 l 385 926 l 547 926 l 899 0 l 738 0 m 313 376 l 600 376 l 456 774 l 313 376 m 285 992 l 285 1090 l 635 1090 l 635 992 l 285 992 z "},"Ą":{"ha":922,"x_min":24,"x_max":899,"o":"m 896 0 q 765 -114 765 -60 q 777 -151 765 -140 q 813 -161 789 -161 q 896 -119 851 -161 l 896 -221 q 849 -241 872 -233 q 793 -249 826 -249 q 686 -217 724 -249 q 649 -126 649 -186 q 673 -58 649 -92 q 742 0 697 -25 l 738 0 l 646 251 l 267 251 l 176 0 l 24 0 l 385 926 l 547 926 l 899 0 l 896 0 m 313 376 l 600 376 l 456 774 l 313 376 z "},"Å":{"ha":922,"x_min":24,"x_max":899,"o":"m 646 251 l 267 251 l 176 0 l 24 0 l 381 917 q 310 1033 310 943 q 347 1131 310 1099 q 461 1163 383 1163 q 613 1033 613 1163 q 550 919 613 951 l 899 0 l 738 0 l 646 251 m 461 1093 q 404 1080 419 1093 q 389 1033 389 1067 q 404 987 389 1000 q 461 974 419 974 q 517 987 501 974 q 532 1033 532 1000 q 517 1080 532 1067 q 461 1093 501 1093 m 313 376 l 600 376 l 456 774 l 313 376 z "},"Ǻ":{"ha":922,"x_min":24,"x_max":899,"o":"m 643 1379 l 507 1221 l 425 1221 l 492 1379 l 643 1379 m 646 251 l 267 251 l 176 0 l 24 0 l 381 917 q 310 1033 310 943 q 347 1131 310 1099 q 461 1163 383 1163 q 613 1033 613 1163 q 550 919 613 951 l 899 0 l 738 0 l 646 251 m 461 1093 q 404 1080 419 1093 q 389 1033 389 1067 q 404 987 389 1000 q 461 974 419 974 q 517 987 501 974 q 532 1033 532 1000 q 517 1080 532 1067 q 461 1093 501 1093 m 313 376 l 600 376 l 456 774 l 313 376 z "},"Ã":{"ha":922,"x_min":24,"x_max":899,"o":"m 738 0 l 646 251 l 267 251 l 176 0 l 24 0 l 385 926 l 547 926 l 899 0 l 738 0 m 313 376 l 600 376 l 456 774 l 313 376 m 250 1004 q 247 1038 247 1026 q 285 1138 247 1099 q 375 1178 324 1178 q 435 1165 408 1178 q 496 1126 463 1151 q 538 1098 522 1107 q 572 1089 554 1089 q 603 1103 592 1089 q 614 1143 614 1117 q 613 1163 614 1156 l 696 1163 q 697 1139 697 1154 q 659 1037 697 1076 q 563 997 621 997 q 496 1012 525 997 q 435 1051 467 1026 q 398 1077 411 1069 q 371 1085 385 1085 q 339 1069 351 1085 q 326 1025 326 1053 q 328 1004 326 1011 l 250 1004 z "},"Æ":{"ha":1372,"x_min":24,"x_max":1274,"o":"m 1274 797 l 836 797 l 836 531 l 1218 531 l 1218 400 l 836 400 l 836 131 l 1274 131 l 1274 0 l 682 0 l 682 253 l 365 253 l 197 0 l 24 0 l 663 926 l 1274 926 l 1274 797 m 450 381 l 682 381 l 682 729 l 450 381 z "},"Ǽ":{"ha":1372,"x_min":24,"x_max":1274,"o":"m 1274 797 l 836 797 l 836 531 l 1218 531 l 1218 400 l 836 400 l 836 131 l 1274 131 l 1274 0 l 682 0 l 682 253 l 365 253 l 197 0 l 24 0 l 663 926 l 1274 926 l 1274 797 m 450 381 l 682 381 l 682 729 l 450 381 m 929 1010 l 996 1168 l 1147 1168 l 1011 1010 l 929 1010 z "},"B":{"ha":897,"x_min":110,"x_max":825,"o":"m 661 496 q 779 414 733 471 q 825 269 825 357 q 733 67 825 133 q 485 0 642 0 l 110 0 l 110 926 l 453 926 q 694 861 615 926 q 772 675 772 796 q 742 567 772 607 q 661 496 713 528 m 263 540 l 471 540 q 577 567 536 540 q 618 663 618 593 q 577 767 618 736 q 458 797 536 797 l 263 797 l 263 540 m 483 128 q 618 160 568 128 q 668 276 668 193 q 616 388 668 360 q 479 417 564 417 l 264 417 l 264 128 l 483 128 z "},"C":{"ha":868,"x_min":67,"x_max":794,"o":"m 507 -14 q 67 464 67 -14 q 507 942 67 942 q 794 874 650 942 l 794 736 q 526 814 661 814 q 298 731 371 814 q 225 463 225 647 q 299 197 225 278 q 531 115 372 115 q 794 190 667 115 l 794 53 q 655 3 731 21 q 507 -14 579 -14 z "},"Ć":{"ha":868,"x_min":67,"x_max":794,"o":"m 507 -14 q 67 464 67 -14 q 507 942 67 942 q 794 874 650 942 l 794 736 q 526 814 661 814 q 298 731 371 814 q 225 463 225 647 q 299 197 225 278 q 531 115 372 115 q 794 190 667 115 l 794 53 q 655 3 731 21 q 507 -14 579 -14 m 447 1022 l 514 1181 l 665 1181 l 529 1022 l 447 1022 z "},"Č":{"ha":868,"x_min":67,"x_max":794,"o":"m 507 -14 q 67 464 67 -14 q 507 942 67 942 q 794 874 650 942 l 794 736 q 526 814 661 814 q 298 731 371 814 q 225 463 225 647 q 299 197 225 278 q 531 115 372 115 q 794 190 667 115 l 794 53 q 655 3 731 21 q 507 -14 579 -14 m 433 988 l 321 1156 l 422 1156 l 483 1064 l 544 1156 l 646 1156 l 539 988 l 433 988 z "},"Ç":{"ha":868,"x_min":67,"x_max":794,"o":"m 526 814 q 298 731 371 814 q 225 463 225 647 q 299 197 225 278 q 531 115 372 115 q 794 190 667 115 l 794 53 q 660 5 732 22 q 517 -14 588 -12 l 447 -160 l 307 -160 l 414 -8 q 67 464 67 40 q 507 942 67 942 q 794 874 650 942 l 794 736 q 526 814 661 814 z "},"Ĉ":{"ha":868,"x_min":67,"x_max":794,"o":"m 507 -14 q 67 464 67 -14 q 507 942 67 942 q 794 874 650 942 l 794 736 q 526 814 661 814 q 298 731 371 814 q 225 463 225 647 q 299 197 225 278 q 531 115 372 115 q 794 190 667 115 l 794 53 q 655 3 731 21 q 507 -14 579 -14 m 308 1006 l 425 1174 l 546 1174 l 661 1006 l 565 1006 l 485 1096 l 404 1006 l 308 1006 z "},"Ċ":{"ha":868,"x_min":67,"x_max":794,"o":"m 507 -14 q 67 464 67 -14 q 507 942 67 942 q 794 874 650 942 l 794 736 q 526 814 661 814 q 298 731 371 814 q 225 463 225 647 q 299 197 225 278 q 531 115 372 115 q 794 190 667 115 l 794 53 q 655 3 731 21 q 507 -14 579 -14 m 411 986 l 411 1108 l 546 1108 l 546 986 l 411 986 z "},"D":{"ha":953,"x_min":110,"x_max":879,"o":"m 110 926 l 435 926 q 879 464 879 926 q 435 0 879 0 l 110 0 l 110 926 m 419 129 q 649 210 575 129 q 722 464 722 290 q 649 718 722 638 q 419 799 575 799 l 263 799 l 263 129 l 419 129 z "},"Ǆ":{"ha":1814,"x_min":110,"x_max":1725,"o":"m 110 926 l 435 926 q 879 464 879 926 q 435 0 879 0 l 110 0 l 110 926 m 419 129 q 649 210 575 129 q 722 464 722 290 q 649 718 722 638 q 419 799 575 799 l 263 799 l 263 129 l 419 129 m 1725 926 l 1725 810 l 1228 129 l 1725 129 l 1725 0 l 1036 0 l 1036 121 l 1542 797 l 1047 797 l 1047 926 l 1725 926 m 1336 976 l 1224 1144 l 1325 1144 l 1386 1053 l 1447 1144 l 1549 1144 l 1442 976 l 1336 976 z "},"Ð":{"ha":953,"x_min":10,"x_max":879,"o":"m 435 926 q 879 464 879 926 q 435 0 879 0 l 110 0 l 110 415 l 10 415 l 10 513 l 110 513 l 110 926 l 435 926 m 419 129 q 649 210 575 129 q 722 464 722 290 q 649 718 722 638 q 419 799 575 799 l 263 799 l 263 513 l 382 513 l 382 415 l 263 415 l 263 129 l 419 129 z "},"Ď":{"ha":953,"x_min":110,"x_max":879,"o":"m 110 926 l 435 926 q 879 464 879 926 q 435 0 879 0 l 110 0 l 110 926 m 419 129 q 649 210 575 129 q 722 464 722 290 q 649 718 722 638 q 419 799 575 799 l 263 799 l 263 129 l 419 129 m 351 975 l 239 1143 l 340 1143 l 401 1051 l 463 1143 l 564 1143 l 457 975 l 351 975 z "},"Đ":{"ha":953,"x_min":10,"x_max":879,"o":"m 435 926 q 879 464 879 926 q 435 0 879 0 l 110 0 l 110 415 l 10 415 l 10 513 l 110 513 l 110 926 l 435 926 m 419 129 q 649 210 575 129 q 722 464 722 290 q 649 718 722 638 q 419 799 575 799 l 263 799 l 263 513 l 382 513 l 382 415 l 263 415 l 263 129 l 419 129 z "},"ǲ":{"ha":1607,"x_min":110,"x_max":1544,"o":"m 110 926 l 435 926 q 879 464 879 926 q 435 0 879 0 l 110 0 l 110 926 m 419 129 q 649 210 575 129 q 722 464 722 290 q 649 718 722 638 q 419 799 575 799 l 263 799 l 263 129 l 419 129 m 1544 697 l 1544 578 l 1190 122 l 1544 122 l 1544 0 l 1015 0 l 1015 122 l 1383 582 l 1024 582 l 1024 697 l 1544 697 z "},"ǅ":{"ha":1607,"x_min":110,"x_max":1544,"o":"m 110 926 l 435 926 q 879 464 879 926 q 435 0 879 0 l 110 0 l 110 926 m 419 129 q 649 210 575 129 q 722 464 722 290 q 649 718 722 638 q 419 799 575 799 l 263 799 l 263 129 l 419 129 m 1544 697 l 1544 578 l 1190 122 l 1544 122 l 1544 0 l 1015 0 l 1015 122 l 1383 582 l 1024 582 l 1024 697 l 1544 697 m 1233 783 l 1121 951 l 1222 951 l 1283 860 l 1344 951 l 1446 951 l 1339 783 l 1233 783 z "},"E":{"ha":814,"x_min":110,"x_max":717,"o":"m 110 0 l 110 926 l 717 926 l 717 797 l 264 797 l 264 529 l 658 529 l 658 399 l 263 399 l 263 129 l 717 129 l 717 0 l 110 0 z "},"É":{"ha":814,"x_min":110,"x_max":717,"o":"m 110 0 l 110 926 l 717 926 l 717 797 l 264 797 l 264 529 l 658 529 l 658 399 l 263 399 l 263 129 l 717 129 l 717 0 l 110 0 m 388 1010 l 454 1168 l 606 1168 l 469 1010 l 388 1010 z "},"Ĕ":{"ha":814,"x_min":110,"x_max":717,"o":"m 110 0 l 110 926 l 717 926 l 717 797 l 264 797 l 264 529 l 658 529 l 658 399 l 263 399 l 263 129 l 717 129 l 717 0 l 110 0 m 425 968 q 294 1013 344 968 q 228 1138 244 1057 l 318 1138 q 359 1077 332 1100 q 425 1054 386 1054 q 531 1138 499 1054 l 621 1138 q 558 1013 610 1058 q 425 968 506 968 z "},"Ě":{"ha":814,"x_min":110,"x_max":717,"o":"m 110 0 l 110 926 l 717 926 l 717 797 l 264 797 l 264 529 l 658 529 l 658 399 l 263 399 l 263 129 l 717 129 l 717 0 l 110 0 m 374 975 l 261 1143 l 363 1143 l 424 1051 l 485 1143 l 586 1143 l 479 975 l 374 975 z "},"Ḝ":{"ha":814,"x_min":110,"x_max":717,"o":"m 425 968 q 294 1013 344 968 q 228 1138 244 1057 l 318 1138 q 359 1077 332 1100 q 425 1054 386 1054 q 531 1138 499 1054 l 621 1138 q 558 1013 610 1058 q 425 968 506 968 m 717 797 l 264 797 l 264 529 l 658 529 l 658 399 l 263 399 l 263 129 l 717 129 l 717 0 l 485 0 l 408 -160 l 268 -160 l 381 0 l 110 0 l 110 926 l 717 926 l 717 797 z "},"Ê":{"ha":814,"x_min":110,"x_max":717,"o":"m 110 0 l 110 926 l 717 926 l 717 797 l 264 797 l 264 529 l 658 529 l 658 399 l 263 399 l 263 129 l 717 129 l 717 0 l 110 0 m 249 993 l 365 1161 l 486 1161 l 601 993 l 506 993 l 425 1083 l 344 993 l 249 993 z "},"Ế":{"ha":814,"x_min":110,"x_max":783,"o":"m 110 0 l 110 926 l 717 926 l 717 797 l 264 797 l 264 529 l 658 529 l 658 399 l 263 399 l 263 129 l 717 129 l 717 0 l 110 0 m 251 1004 l 368 1172 l 489 1172 l 604 1004 l 508 1004 l 428 1094 l 347 1004 l 251 1004 m 565 1106 l 632 1264 l 783 1264 l 647 1106 l 565 1106 z "},"Ệ":{"ha":814,"x_min":110,"x_max":717,"o":"m 110 0 l 110 926 l 717 926 l 717 797 l 264 797 l 264 529 l 658 529 l 658 399 l 263 399 l 263 129 l 717 129 l 717 0 l 110 0 m 335 -192 l 335 -69 l 461 -69 l 461 -192 l 335 -192 m 249 993 l 365 1161 l 486 1161 l 601 993 l 506 993 l 425 1083 l 344 993 l 249 993 z "},"Ề":{"ha":814,"x_min":53,"x_max":717,"o":"m 110 0 l 110 926 l 717 926 l 717 797 l 264 797 l 264 529 l 658 529 l 658 399 l 263 399 l 263 129 l 717 129 l 717 0 l 110 0 m 254 1004 l 371 1172 l 492 1172 l 607 1004 l 511 1004 l 431 1094 l 350 1004 l 254 1004 m 176 1099 l 53 1257 l 190 1257 l 263 1099 l 176 1099 z "},"Ể":{"ha":814,"x_min":110,"x_max":732,"o":"m 110 0 l 110 926 l 717 926 l 717 797 l 264 797 l 264 529 l 658 529 l 658 399 l 263 399 l 263 129 l 717 129 l 717 0 l 110 0 m 239 1004 l 356 1172 l 476 1172 l 592 1004 l 496 1004 l 415 1094 l 335 1004 l 239 1004 m 583 1157 q 621 1167 607 1157 q 635 1190 635 1178 q 571 1225 635 1225 q 532 1221 553 1225 l 532 1290 q 592 1294 553 1294 q 692 1271 651 1294 q 732 1194 732 1247 q 713 1140 732 1161 q 656 1114 693 1119 l 656 1082 l 583 1082 l 583 1157 z "},"Ễ":{"ha":814,"x_min":110,"x_max":717,"o":"m 110 0 l 110 926 l 717 926 l 717 797 l 264 797 l 264 529 l 658 529 l 658 399 l 263 399 l 263 129 l 717 129 l 717 0 l 110 0 m 254 982 l 371 1150 l 492 1150 l 607 982 l 511 982 l 431 1072 l 350 982 l 254 982 m 207 1203 q 204 1236 204 1225 q 242 1337 204 1297 q 332 1376 281 1376 q 392 1363 365 1376 q 453 1325 419 1350 q 495 1297 479 1306 q 529 1288 511 1288 q 560 1301 549 1288 q 571 1342 571 1315 q 569 1361 571 1354 l 653 1361 q 654 1338 654 1353 q 616 1235 654 1275 q 519 1196 578 1196 q 453 1210 482 1196 q 392 1250 424 1225 q 355 1276 368 1268 q 328 1283 342 1283 q 296 1267 308 1283 q 283 1224 283 1251 q 285 1203 283 1210 l 207 1203 z "},"Ȅ":{"ha":814,"x_min":110,"x_max":717,"o":"m 110 0 l 110 926 l 717 926 l 717 797 l 264 797 l 264 529 l 658 529 l 658 399 l 263 399 l 263 129 l 717 129 l 717 0 l 110 0 m 294 1008 l 171 1167 l 308 1167 l 381 1008 l 294 1008 m 494 1010 l 371 1168 l 508 1168 l 581 1010 l 494 1010 z "},"Ë":{"ha":814,"x_min":110,"x_max":717,"o":"m 110 0 l 110 926 l 717 926 l 717 797 l 264 797 l 264 529 l 658 529 l 658 399 l 263 399 l 263 129 l 717 129 l 717 0 l 110 0 m 239 996 l 239 1118 l 379 1118 l 379 996 l 239 996 m 467 996 l 467 1118 l 606 1118 l 606 996 l 467 996 z "},"Ė":{"ha":814,"x_min":110,"x_max":717,"o":"m 110 0 l 110 926 l 717 926 l 717 797 l 264 797 l 264 529 l 658 529 l 658 399 l 263 399 l 263 129 l 717 129 l 717 0 l 110 0 m 351 974 l 351 1096 l 486 1096 l 486 974 l 351 974 z "},"Ẹ":{"ha":814,"x_min":110,"x_max":717,"o":"m 110 0 l 110 926 l 717 926 l 717 797 l 264 797 l 264 529 l 658 529 l 658 399 l 263 399 l 263 129 l 717 129 l 717 0 l 110 0 m 335 -192 l 335 -69 l 461 -69 l 461 -192 l 335 -192 z "},"È":{"ha":814,"x_min":110,"x_max":717,"o":"m 110 0 l 110 926 l 717 926 l 717 797 l 264 797 l 264 529 l 658 529 l 658 399 l 263 399 l 263 129 l 717 129 l 717 0 l 110 0 m 389 999 l 265 1157 l 403 1157 l 475 999 l 389 999 z "},"Ẻ":{"ha":814,"x_min":110,"x_max":717,"o":"m 110 0 l 110 926 l 717 926 l 717 797 l 264 797 l 264 529 l 658 529 l 658 399 l 263 399 l 263 129 l 717 129 l 717 0 l 110 0 m 376 1051 q 414 1062 400 1051 q 428 1085 428 1072 q 364 1119 428 1119 q 325 1115 346 1119 l 325 1185 q 385 1189 346 1189 q 485 1165 444 1189 q 525 1089 525 1142 q 506 1035 525 1056 q 449 1008 486 1014 l 449 976 l 376 976 l 376 1051 z "},"Ȇ":{"ha":814,"x_min":110,"x_max":717,"o":"m 110 0 l 110 926 l 717 926 l 717 797 l 264 797 l 264 529 l 658 529 l 658 399 l 263 399 l 263 129 l 717 129 l 717 0 l 110 0 m 425 1121 q 558 1076 506 1121 q 621 951 610 1031 l 531 951 q 425 1035 499 1035 q 359 1012 386 1035 q 318 951 332 989 l 228 951 q 294 1076 244 1032 q 425 1121 344 1121 z "},"Ē":{"ha":814,"x_min":110,"x_max":717,"o":"m 110 0 l 110 926 l 717 926 l 717 797 l 264 797 l 264 529 l 658 529 l 658 399 l 263 399 l 263 129 l 717 129 l 717 0 l 110 0 m 247 992 l 247 1090 l 597 1090 l 597 992 l 247 992 z "},"Ḗ":{"ha":814,"x_min":110,"x_max":717,"o":"m 110 0 l 110 926 l 717 926 l 717 797 l 264 797 l 264 529 l 658 529 l 658 399 l 263 399 l 263 129 l 717 129 l 717 0 l 110 0 m 247 992 l 247 1090 l 597 1090 l 597 992 l 247 992 m 388 1169 l 454 1328 l 606 1328 l 469 1169 l 388 1169 z "},"Ḕ":{"ha":814,"x_min":110,"x_max":717,"o":"m 110 0 l 110 926 l 717 926 l 717 797 l 264 797 l 264 529 l 658 529 l 658 399 l 263 399 l 263 129 l 717 129 l 717 0 l 110 0 m 247 992 l 247 1090 l 597 1090 l 597 992 l 247 992 m 389 1158 l 265 1317 l 403 1317 l 475 1158 l 389 1158 z "},"Ę":{"ha":814,"x_min":110,"x_max":717,"o":"m 264 797 l 264 529 l 658 529 l 658 399 l 263 399 l 263 129 l 717 129 l 717 0 l 710 0 q 579 -114 579 -60 q 591 -151 579 -140 q 626 -161 603 -161 q 710 -119 665 -161 l 710 -221 q 663 -241 686 -233 q 607 -249 640 -249 q 500 -217 538 -249 q 463 -126 463 -186 q 487 -58 463 -92 q 556 0 511 -25 l 110 0 l 110 926 l 717 926 l 717 797 l 264 797 z "},"Ẽ":{"ha":814,"x_min":110,"x_max":717,"o":"m 110 0 l 110 926 l 717 926 l 717 797 l 264 797 l 264 529 l 658 529 l 658 399 l 263 399 l 263 129 l 717 129 l 717 0 l 110 0 m 213 1004 q 210 1038 210 1026 q 248 1138 210 1099 q 338 1178 286 1178 q 398 1165 371 1178 q 458 1126 425 1151 q 501 1098 485 1107 q 535 1089 517 1089 q 565 1103 554 1089 q 576 1143 576 1117 q 575 1163 576 1156 l 658 1163 q 660 1139 660 1154 q 622 1037 660 1076 q 525 997 583 997 q 458 1012 488 997 q 397 1051 429 1026 q 360 1077 374 1069 q 333 1085 347 1085 q 301 1069 314 1085 q 289 1025 289 1053 q 290 1004 289 1011 l 213 1004 z "},"F":{"ha":767,"x_min":110,"x_max":704,"o":"m 110 0 l 110 926 l 704 926 l 704 797 l 263 797 l 263 521 l 649 521 l 649 390 l 263 390 l 263 0 l 110 0 z "},"Ḟ":{"ha":763,"x_min":110,"x_max":704,"o":"m 110 0 l 110 926 l 704 926 l 704 797 l 263 797 l 263 521 l 649 521 l 649 390 l 263 390 l 263 0 l 110 0 m 308 972 l 308 1094 l 443 1094 l 443 972 l 308 972 z "},"G":{"ha":965,"x_min":74,"x_max":856,"o":"m 513 -17 q 186 103 299 -17 q 74 464 74 222 q 186 823 74 704 q 511 942 299 942 q 821 878 676 942 l 821 731 q 668 792 736 771 q 531 814 600 814 q 302 731 376 814 q 228 464 228 647 q 302 197 228 281 q 526 114 376 114 q 703 142 628 114 l 703 363 l 508 363 l 508 493 l 856 493 l 856 68 q 513 -17 693 -17 z "},"Ǵ":{"ha":965,"x_min":74,"x_max":856,"o":"m 513 -17 q 186 103 299 -17 q 74 464 74 222 q 186 823 74 704 q 511 942 299 942 q 821 878 676 942 l 821 731 q 668 792 736 771 q 531 814 600 814 q 302 731 376 814 q 228 464 228 647 q 302 197 228 281 q 526 114 376 114 q 703 142 628 114 l 703 363 l 508 363 l 508 493 l 856 493 l 856 68 q 513 -17 693 -17 m 472 1018 l 539 1176 l 690 1176 l 554 1018 l 472 1018 z "},"Ğ":{"ha":965,"x_min":74,"x_max":856,"o":"m 513 -17 q 186 103 299 -17 q 74 464 74 222 q 186 823 74 704 q 511 942 299 942 q 821 878 676 942 l 821 731 q 668 792 736 771 q 531 814 600 814 q 302 731 376 814 q 228 464 228 647 q 302 197 228 281 q 526 114 376 114 q 703 142 628 114 l 703 363 l 508 363 l 508 493 l 856 493 l 856 68 q 513 -17 693 -17 m 510 976 q 379 1021 429 976 q 313 1146 329 1065 l 403 1146 q 444 1085 417 1108 q 510 1063 471 1063 q 615 1146 583 1063 l 706 1146 q 642 1022 694 1067 q 510 976 590 976 z "},"Ǧ":{"ha":965,"x_min":74,"x_max":856,"o":"m 513 -17 q 186 103 299 -17 q 74 464 74 222 q 186 823 74 704 q 511 942 299 942 q 821 878 676 942 l 821 731 q 668 792 736 771 q 531 814 600 814 q 302 731 376 814 q 228 464 228 647 q 302 197 228 281 q 526 114 376 114 q 703 142 628 114 l 703 363 l 508 363 l 508 493 l 856 493 l 856 68 q 513 -17 693 -17 m 458 983 l 346 1151 l 447 1151 l 508 1060 l 569 1151 l 671 1151 l 564 983 l 458 983 z "},"Ĝ":{"ha":965,"x_min":74,"x_max":856,"o":"m 513 -17 q 186 103 299 -17 q 74 464 74 222 q 186 823 74 704 q 511 942 299 942 q 821 878 676 942 l 821 731 q 668 792 736 771 q 531 814 600 814 q 302 731 376 814 q 228 464 228 647 q 302 197 228 281 q 526 114 376 114 q 703 142 628 114 l 703 363 l 508 363 l 508 493 l 856 493 l 856 68 q 513 -17 693 -17 m 333 1001 l 450 1169 l 571 1169 l 686 1001 l 590 1001 l 510 1092 l 429 1001 l 333 1001 z "},"Ģ":{"ha":965,"x_min":74,"x_max":856,"o":"m 513 -17 q 186 103 299 -17 q 74 464 74 222 q 186 823 74 704 q 511 942 299 942 q 821 878 676 942 l 821 731 q 668 792 736 771 q 531 814 600 814 q 302 731 376 814 q 228 464 228 647 q 302 197 228 281 q 526 114 376 114 q 703 142 628 114 l 703 363 l 508 363 l 508 493 l 856 493 l 856 68 q 513 -17 693 -17 m 367 -185 q 411 -143 400 -174 q 421 -68 422 -112 l 536 -68 q 489 -209 538 -158 q 367 -268 440 -260 l 367 -185 z "},"Ġ":{"ha":965,"x_min":74,"x_max":856,"o":"m 513 -17 q 186 103 299 -17 q 74 464 74 222 q 186 823 74 704 q 511 942 299 942 q 821 878 676 942 l 821 731 q 668 792 736 771 q 531 814 600 814 q 302 731 376 814 q 228 464 228 647 q 302 197 228 281 q 526 114 376 114 q 703 142 628 114 l 703 363 l 508 363 l 508 493 l 856 493 l 856 68 q 513 -17 693 -17 m 436 982 l 436 1104 l 571 1104 l 571 982 l 436 982 z "},"Ḡ":{"ha":965,"x_min":74,"x_max":856,"o":"m 513 -17 q 186 103 299 -17 q 74 464 74 222 q 186 823 74 704 q 511 942 299 942 q 821 878 676 942 l 821 731 q 668 792 736 771 q 531 814 600 814 q 302 731 376 814 q 228 464 228 647 q 302 197 228 281 q 526 114 376 114 q 703 142 628 114 l 703 363 l 508 363 l 508 493 l 856 493 l 856 68 q 513 -17 693 -17 m 332 1000 l 332 1099 l 682 1099 l 682 1000 l 332 1000 z "},"H":{"ha":954,"x_min":110,"x_max":844,"o":"m 110 0 l 110 926 l 263 926 l 263 528 l 690 528 l 690 926 l 844 926 l 844 0 l 690 0 l 690 394 l 263 394 l 263 0 l 110 0 z "},"Ħ":{"ha":954,"x_min":44,"x_max":910,"o":"m 910 757 l 910 669 l 844 669 l 844 0 l 690 0 l 690 394 l 263 394 l 263 0 l 110 0 l 110 669 l 44 669 l 44 757 l 110 757 l 110 926 l 263 926 l 263 757 l 690 757 l 690 926 l 844 926 l 844 757 l 910 757 m 690 528 l 690 669 l 263 669 l 263 528 l 690 528 z "},"Ḫ":{"ha":954,"x_min":110,"x_max":844,"o":"m 110 0 l 110 926 l 263 926 l 263 528 l 690 528 l 690 926 l 844 926 l 844 0 l 690 0 l 690 394 l 263 394 l 263 0 l 110 0 m 478 -215 q 347 -171 397 -215 q 281 -46 297 -126 l 371 -46 q 412 -106 385 -83 q 478 -129 439 -129 q 583 -46 551 -129 l 674 -46 q 610 -170 663 -125 q 478 -215 558 -215 z "},"Ĥ":{"ha":954,"x_min":110,"x_max":844,"o":"m 110 0 l 110 926 l 263 926 l 263 528 l 690 528 l 690 926 l 844 926 l 844 0 l 690 0 l 690 394 l 263 394 l 263 0 l 110 0 m 301 993 l 418 1161 l 539 1161 l 654 993 l 558 993 l 478 1083 l 397 993 l 301 993 z "},"I":{"ha":374,"x_min":110,"x_max":264,"o":"m 110 0 l 110 926 l 264 926 l 264 0 l 110 0 z "},"Ĳ":{"ha":1018,"x_min":110,"x_max":908,"o":"m 110 0 l 110 926 l 264 926 l 264 0 l 110 0 m 628 -14 q 431 36 524 -14 l 431 183 q 597 118 519 118 q 716 158 678 118 q 754 288 754 197 l 754 926 l 908 926 l 908 278 q 827 52 908 118 q 628 -14 746 -14 z "},"Í":{"ha":374,"x_min":110,"x_max":371,"o":"m 110 0 l 110 926 l 264 926 l 264 0 l 110 0 m 153 1010 l 219 1168 l 371 1168 l 235 1010 l 153 1010 z "},"Ĭ":{"ha":374,"x_min":-7,"x_max":386,"o":"m 110 0 l 110 926 l 264 926 l 264 0 l 110 0 m 190 968 q 60 1013 110 968 q -7 1138 10 1057 l 83 1138 q 124 1077 97 1100 q 190 1054 151 1054 q 296 1138 264 1054 l 386 1138 q 323 1013 375 1058 q 190 968 271 968 z "},"Ǐ":{"ha":374,"x_min":26,"x_max":351,"o":"m 110 0 l 110 926 l 264 926 l 264 0 l 110 0 m 139 975 l 26 1143 l 128 1143 l 189 1051 l 250 1143 l 351 1143 l 244 975 l 139 975 z "},"Î":{"ha":374,"x_min":14,"x_max":367,"o":"m 110 0 l 110 926 l 264 926 l 264 0 l 110 0 m 14 993 l 131 1161 l 251 1161 l 367 993 l 271 993 l 190 1083 l 110 993 l 14 993 z "},"Ȉ":{"ha":374,"x_min":-64,"x_max":346,"o":"m 110 0 l 110 926 l 264 926 l 264 0 l 110 0 m 60 1008 l -64 1167 l 74 1167 l 146 1008 l 60 1008 m 260 1010 l 136 1168 l 274 1168 l 346 1010 l 260 1010 z "},"Ï":{"ha":374,"x_min":4,"x_max":371,"o":"m 110 0 l 110 926 l 264 926 l 264 0 l 110 0 m 4 996 l 4 1118 l 144 1118 l 144 996 l 4 996 m 232 996 l 232 1118 l 371 1118 l 371 996 l 232 996 z "},"Ḯ":{"ha":374,"x_min":4,"x_max":371,"o":"m 110 0 l 110 926 l 264 926 l 264 0 l 110 0 m 4 996 l 4 1118 l 144 1118 l 144 996 l 4 996 m 232 996 l 232 1118 l 371 1118 l 371 996 l 232 996 m 153 1231 l 219 1389 l 371 1389 l 235 1231 l 153 1231 z "},"İ":{"ha":374,"x_min":110,"x_max":264,"o":"m 110 0 l 110 926 l 264 926 l 264 0 l 110 0 m 117 974 l 117 1096 l 251 1096 l 251 974 l 117 974 z "},"Ị":{"ha":374,"x_min":110,"x_max":264,"o":"m 110 0 l 110 926 l 264 926 l 264 0 l 110 0 m 119 -192 l 119 -69 l 246 -69 l 246 -192 l 119 -192 z "},"Ì":{"ha":374,"x_min":31,"x_max":264,"o":"m 110 0 l 110 926 l 264 926 l 264 0 l 110 0 m 154 999 l 31 1157 l 168 1157 l 240 999 l 154 999 z "},"Ỉ":{"ha":374,"x_min":90,"x_max":290,"o":"m 110 0 l 110 926 l 264 926 l 264 0 l 110 0 m 142 1051 q 179 1062 165 1051 q 193 1085 193 1072 q 129 1119 193 1119 q 90 1115 111 1119 l 90 1185 q 150 1189 111 1189 q 250 1165 210 1189 q 290 1089 290 1142 q 271 1035 290 1056 q 214 1008 251 1014 l 214 976 l 142 976 l 142 1051 z "},"Ȋ":{"ha":374,"x_min":-7,"x_max":386,"o":"m 110 0 l 110 926 l 264 926 l 264 0 l 110 0 m 190 1121 q 323 1076 271 1121 q 386 951 375 1031 l 296 951 q 190 1035 264 1035 q 124 1012 151 1035 q 83 951 97 989 l -7 951 q 60 1076 10 1032 q 190 1121 110 1121 z "},"Ī":{"ha":374,"x_min":13,"x_max":363,"o":"m 110 0 l 110 926 l 264 926 l 264 0 l 110 0 m 13 992 l 13 1090 l 363 1090 l 363 992 l 13 992 z "},"Į":{"ha":374,"x_min":14,"x_max":264,"o":"m 264 926 l 264 0 l 261 0 q 131 -114 131 -60 q 142 -151 131 -140 q 178 -161 154 -161 q 261 -119 217 -161 l 261 -221 q 215 -241 238 -233 q 158 -249 192 -249 q 51 -217 89 -249 q 14 -126 14 -186 q 40 -58 14 -93 q 110 3 67 -24 l 110 926 l 264 926 z "},"Ĩ":{"ha":374,"x_min":-25,"x_max":425,"o":"m 110 0 l 110 926 l 264 926 l 264 0 l 110 0 m -22 1004 q -25 1038 -25 1026 q 13 1138 -25 1099 q 103 1178 51 1178 q 163 1165 136 1178 q 224 1126 190 1151 q 266 1098 250 1107 q 300 1089 282 1089 q 331 1103 319 1089 q 342 1143 342 1117 q 340 1163 342 1156 l 424 1163 q 425 1139 425 1154 q 387 1037 425 1076 q 290 997 349 997 q 224 1012 253 997 q 163 1051 194 1026 q 126 1077 139 1069 q 99 1085 113 1085 q 67 1069 79 1085 q 54 1025 54 1053 q 56 1004 54 1011 l -22 1004 z "},"J":{"ha":644,"x_min":57,"x_max":535,"o":"m 254 -14 q 57 36 150 -14 l 57 183 q 224 118 146 118 q 342 158 304 118 q 381 288 381 197 l 381 926 l 535 926 l 535 278 q 453 52 535 118 q 254 -14 372 -14 z "},"Ĵ":{"ha":644,"x_min":57,"x_max":639,"o":"m 254 -14 q 57 36 150 -14 l 57 183 q 224 118 146 118 q 342 158 304 118 q 381 288 381 197 l 381 926 l 535 926 l 535 278 q 453 52 535 118 q 254 -14 372 -14 m 286 993 l 403 1161 l 524 1161 l 639 993 l 543 993 l 463 1083 l 382 993 l 286 993 z "},"K":{"ha":892,"x_min":110,"x_max":861,"o":"m 660 0 l 349 394 l 264 301 l 264 0 l 110 0 l 110 926 l 264 926 l 264 476 l 636 926 l 831 926 l 454 511 l 861 0 l 660 0 z "},"Ķ":{"ha":892,"x_min":110,"x_max":861,"o":"m 660 0 l 349 394 l 264 301 l 264 0 l 110 0 l 110 926 l 264 926 l 264 476 l 636 926 l 831 926 l 454 511 l 861 0 l 660 0 m 363 -185 q 407 -143 396 -174 q 417 -68 418 -112 l 532 -68 q 485 -209 533 -158 q 363 -268 436 -260 l 363 -185 z "},"L":{"ha":746,"x_min":110,"x_max":707,"o":"m 110 0 l 110 926 l 264 926 l 264 131 l 707 131 l 707 0 l 110 0 z "},"Ǉ":{"ha":1390,"x_min":110,"x_max":1281,"o":"m 110 0 l 110 926 l 264 926 l 264 131 l 707 131 l 707 0 l 110 0 m 1000 -14 q 803 36 896 -14 l 803 183 q 969 118 892 118 q 1088 158 1050 118 q 1126 288 1126 197 l 1126 926 l 1281 926 l 1281 278 q 1199 52 1281 118 q 1000 -14 1118 -14 z "},"Ĺ":{"ha":746,"x_min":110,"x_max":707,"o":"m 110 0 l 110 926 l 264 926 l 264 131 l 707 131 l 707 0 l 110 0 m 157 1010 l 224 1168 l 375 1168 l 239 1010 l 157 1010 z "},"Ľ":{"ha":760,"x_min":110,"x_max":707,"o":"m 110 0 l 110 926 l 264 926 l 264 131 l 707 131 l 707 0 l 110 0 m 513 814 q 557 856 546 825 q 567 931 568 886 l 682 931 q 635 790 683 840 q 513 731 586 739 l 513 814 z "},"Ļ":{"ha":746,"x_min":110,"x_max":707,"o":"m 110 0 l 110 926 l 264 926 l 264 131 l 707 131 l 707 0 l 110 0 m 292 -185 q 336 -143 325 -174 q 346 -68 347 -112 l 461 -68 q 414 -209 463 -158 q 292 -268 365 -260 l 292 -185 z "},"Ŀ":{"ha":746,"x_min":110,"x_max":707,"o":"m 110 0 l 110 926 l 264 926 l 264 131 l 707 131 l 707 0 l 110 0 m 422 393 l 422 528 l 558 528 l 558 393 l 422 393 z "},"Ḷ":{"ha":746,"x_min":110,"x_max":707,"o":"m 110 0 l 110 926 l 264 926 l 264 131 l 707 131 l 707 0 l 110 0 m 317 -192 l 317 -69 l 443 -69 l 443 -192 l 317 -192 z "},"ǈ":{"ha":1139,"x_min":110,"x_max":1036,"o":"m 110 0 l 110 926 l 264 926 l 264 131 l 707 131 l 707 0 l 110 0 m 882 813 l 882 944 l 1036 944 l 1036 813 l 882 813 m 758 -143 q 858 -115 831 -144 q 886 -22 886 -86 l 886 697 l 1032 697 l 1033 -25 q 758 -268 1033 -268 l 758 -143 z "},"Ḻ":{"ha":746,"x_min":110,"x_max":707,"o":"m 110 0 l 110 926 l 264 926 l 264 131 l 707 131 l 707 0 l 110 0 m 203 -181 l 203 -82 l 553 -82 l 553 -181 l 203 -181 z "},"Ł":{"ha":747,"x_min":110,"x_max":707,"o":"m 264 131 l 707 131 l 707 0 l 110 0 l 110 926 l 264 926 l 264 538 l 286 557 l 286 546 l 264 526 l 264 131 z "},"M":{"ha":1126,"x_min":110,"x_max":1017,"o":"m 860 926 l 1017 926 l 1017 0 l 864 0 l 864 707 l 554 279 l 258 704 l 258 0 l 110 0 l 110 926 l 269 926 l 561 496 l 860 926 z "},"Ṃ":{"ha":1126,"x_min":110,"x_max":1017,"o":"m 860 926 l 1017 926 l 1017 0 l 864 0 l 864 707 l 554 279 l 258 704 l 258 0 l 110 0 l 110 926 l 269 926 l 561 496 l 860 926 m 500 -192 l 500 -69 l 626 -69 l 626 -192 l 500 -192 z "},"N":{"ha":1004,"x_min":110,"x_max":894,"o":"m 749 926 l 894 926 l 894 0 l 757 0 l 256 689 l 256 0 l 110 0 l 110 926 l 257 926 l 749 246 l 749 926 z "},"Ǌ":{"ha":1649,"x_min":110,"x_max":1539,"o":"m 749 926 l 894 926 l 894 0 l 757 0 l 256 689 l 256 0 l 110 0 l 110 926 l 257 926 l 749 246 l 749 926 m 1258 -14 q 1061 36 1154 -14 l 1061 183 q 1228 118 1150 118 q 1347 158 1308 118 q 1385 288 1385 197 l 1385 926 l 1539 926 l 1539 278 q 1458 52 1539 118 q 1258 -14 1376 -14 z "},"Ń":{"ha":1004,"x_min":110,"x_max":894,"o":"m 749 926 l 894 926 l 894 0 l 757 0 l 256 689 l 256 0 l 110 0 l 110 926 l 257 926 l 749 246 l 749 926 m 465 1010 l 532 1168 l 683 1168 l 547 1010 l 465 1010 z "},"Ň":{"ha":1004,"x_min":110,"x_max":894,"o":"m 749 926 l 894 926 l 894 0 l 757 0 l 256 689 l 256 0 l 110 0 l 110 926 l 257 926 l 749 246 l 749 926 m 451 975 l 339 1143 l 440 1143 l 501 1051 l 563 1143 l 664 1143 l 557 975 l 451 975 z "},"Ņ":{"ha":1004,"x_min":110,"x_max":894,"o":"m 749 926 l 894 926 l 894 0 l 757 0 l 256 689 l 256 0 l 110 0 l 110 926 l 257 926 l 749 246 l 749 926 m 414 -185 q 458 -143 447 -174 q 468 -68 469 -112 l 583 -68 q 536 -209 585 -158 q 414 -268 488 -260 l 414 -185 z "},"Ṇ":{"ha":1004,"x_min":110,"x_max":894,"o":"m 749 926 l 894 926 l 894 0 l 757 0 l 256 689 l 256 0 l 110 0 l 110 926 l 257 926 l 749 246 l 749 926 m 439 -192 l 439 -69 l 565 -69 l 565 -192 l 439 -192 z "},"Ŋ":{"ha":1038,"x_min":121,"x_max":913,"o":"m 913 926 l 913 -8 q 841 -190 911 -133 q 638 -247 771 -247 l 638 -131 q 740 -103 710 -131 q 771 -15 771 -76 l 771 -7 l 263 713 l 263 0 l 121 0 l 121 926 l 272 926 l 771 214 l 771 926 l 913 926 z "},"Ɲ":{"ha":1035,"x_min":13,"x_max":925,"o":"m 925 926 l 925 0 l 788 0 l 286 689 l 286 -25 q 13 -268 286 -268 l 13 -143 q 113 -115 85 -144 q 140 -22 140 -86 l 140 926 l 288 926 l 779 246 l 779 926 l 925 926 z "},"ǋ":{"ha":1397,"x_min":110,"x_max":1294,"o":"m 749 926 l 894 926 l 894 0 l 757 0 l 256 689 l 256 0 l 110 0 l 110 926 l 257 926 l 749 246 l 749 926 m 1140 813 l 1140 944 l 1294 944 l 1294 813 l 1140 813 m 1017 -143 q 1117 -115 1089 -144 q 1144 -22 1144 -86 l 1144 697 l 1290 697 l 1292 -25 q 1017 -268 1292 -268 l 1017 -143 z "},"Ṉ":{"ha":1004,"x_min":110,"x_max":894,"o":"m 749 926 l 894 926 l 894 0 l 757 0 l 256 689 l 256 0 l 110 0 l 110 926 l 257 926 l 749 246 l 749 926 m 325 -181 l 325 -82 l 675 -82 l 675 -181 l 325 -181 z "},"Ñ":{"ha":1004,"x_min":110,"x_max":894,"o":"m 749 926 l 894 926 l 894 0 l 757 0 l 256 689 l 256 0 l 110 0 l 110 926 l 257 926 l 749 246 l 749 926 m 290 1004 q 288 1038 288 1026 q 326 1138 288 1099 q 415 1178 364 1178 q 476 1165 449 1178 q 536 1126 503 1151 q 578 1098 563 1107 q 613 1089 594 1089 q 643 1103 632 1089 q 654 1143 654 1117 q 653 1163 654 1156 l 736 1163 q 738 1139 738 1154 q 699 1037 738 1076 q 603 997 661 997 q 536 1012 565 997 q 475 1051 507 1026 q 438 1077 451 1069 q 411 1085 425 1085 q 379 1069 392 1085 q 367 1025 367 1053 q 368 1004 367 1011 l 290 1004 z "},"O":{"ha":1010,"x_min":74,"x_max":936,"o":"m 504 -17 q 185 104 296 -17 q 74 463 74 225 q 183 820 74 699 q 504 942 293 942 q 825 822 714 942 q 936 463 936 701 q 826 105 936 226 q 504 -17 715 -17 m 504 117 q 712 199 646 117 q 778 464 778 282 q 711 726 778 644 q 504 808 644 808 q 297 726 364 808 q 231 463 231 644 q 297 199 231 281 q 504 117 364 117 z "},"Ó":{"ha":1010,"x_min":74,"x_max":936,"o":"m 504 -17 q 185 104 296 -17 q 74 463 74 225 q 183 820 74 699 q 504 942 293 942 q 825 822 714 942 q 936 463 936 701 q 826 105 936 226 q 504 -17 715 -17 m 504 117 q 712 199 646 117 q 778 464 778 282 q 711 726 778 644 q 504 808 644 808 q 297 726 364 808 q 231 463 231 644 q 297 199 231 281 q 504 117 364 117 m 475 1022 l 542 1181 l 693 1181 l 557 1022 l 475 1022 z "},"Ŏ":{"ha":1010,"x_min":74,"x_max":936,"o":"m 504 -17 q 185 104 296 -17 q 74 463 74 225 q 183 820 74 699 q 504 942 293 942 q 825 822 714 942 q 936 463 936 701 q 826 105 936 226 q 504 -17 715 -17 m 504 117 q 712 199 646 117 q 778 464 778 282 q 711 726 778 644 q 504 808 644 808 q 297 726 364 808 q 231 463 231 644 q 297 199 231 281 q 504 117 364 117 m 513 981 q 382 1025 432 981 q 315 1150 332 1069 l 406 1150 q 447 1090 419 1113 q 513 1067 474 1067 q 618 1150 586 1067 l 708 1150 q 645 1026 697 1071 q 513 981 593 981 z "},"Ǒ":{"ha":1010,"x_min":74,"x_max":936,"o":"m 504 -17 q 185 104 296 -17 q 74 463 74 225 q 183 820 74 699 q 504 942 293 942 q 825 822 714 942 q 936 463 936 701 q 826 105 936 226 q 504 -17 715 -17 m 504 117 q 712 199 646 117 q 778 464 778 282 q 711 726 778 644 q 504 808 644 808 q 297 726 364 808 q 231 463 231 644 q 297 199 231 281 q 504 117 364 117 m 461 988 l 349 1156 l 450 1156 l 511 1064 l 572 1156 l 674 1156 l 567 988 l 461 988 z "},"Ô":{"ha":1010,"x_min":74,"x_max":936,"o":"m 504 -17 q 185 104 296 -17 q 74 463 74 225 q 183 820 74 699 q 504 942 293 942 q 825 822 714 942 q 936 463 936 701 q 826 105 936 226 q 504 -17 715 -17 m 504 117 q 712 199 646 117 q 778 464 778 282 q 711 726 778 644 q 504 808 644 808 q 297 726 364 808 q 231 463 231 644 q 297 199 231 281 q 504 117 364 117 m 336 1006 l 453 1174 l 574 1174 l 689 1006 l 593 1006 l 513 1096 l 432 1006 l 336 1006 z "},"Ố":{"ha":1010,"x_min":74,"x_max":936,"o":"m 504 -17 q 185 104 296 -17 q 74 463 74 225 q 183 820 74 699 q 504 942 293 942 q 825 822 714 942 q 936 463 936 701 q 826 105 936 226 q 504 -17 715 -17 m 504 117 q 712 199 646 117 q 778 464 778 282 q 711 726 778 644 q 504 808 644 808 q 297 726 364 808 q 231 463 231 644 q 297 199 231 281 q 504 117 364 117 m 339 1017 l 456 1185 l 576 1185 l 692 1017 l 596 1017 l 515 1107 l 435 1017 l 339 1017 m 653 1118 l 719 1276 l 871 1276 l 735 1118 l 653 1118 z "},"Ộ":{"ha":1010,"x_min":74,"x_max":936,"o":"m 504 -17 q 185 104 296 -17 q 74 463 74 225 q 183 820 74 699 q 504 942 293 942 q 825 822 714 942 q 936 463 936 701 q 826 105 936 226 q 504 -17 715 -17 m 504 117 q 712 199 646 117 q 778 464 778 282 q 711 726 778 644 q 504 808 644 808 q 297 726 364 808 q 231 463 231 644 q 297 199 231 281 q 504 117 364 117 m 449 -192 l 449 -69 l 575 -69 l 575 -192 l 449 -192 m 336 1006 l 453 1174 l 574 1174 l 689 1006 l 593 1006 l 513 1096 l 432 1006 l 336 1006 z "},"Ồ":{"ha":1010,"x_min":74,"x_max":936,"o":"m 504 -17 q 185 104 296 -17 q 74 463 74 225 q 183 820 74 699 q 504 942 293 942 q 825 822 714 942 q 936 463 936 701 q 826 105 936 226 q 504 -17 715 -17 m 504 117 q 712 199 646 117 q 778 464 778 282 q 711 726 778 644 q 504 808 644 808 q 297 726 364 808 q 231 463 231 644 q 297 199 231 281 q 504 117 364 117 m 342 1017 l 458 1185 l 579 1185 l 694 1017 l 599 1017 l 518 1107 l 438 1017 l 342 1017 m 264 1111 l 140 1269 l 278 1269 l 350 1111 l 264 1111 z "},"Ổ":{"ha":1010,"x_min":74,"x_max":936,"o":"m 504 -17 q 185 104 296 -17 q 74 463 74 225 q 183 820 74 699 q 504 942 293 942 q 825 822 714 942 q 936 463 936 701 q 826 105 936 226 q 504 -17 715 -17 m 504 117 q 712 199 646 117 q 778 464 778 282 q 711 726 778 644 q 504 808 644 808 q 297 726 364 808 q 231 463 231 644 q 297 199 231 281 q 504 117 364 117 m 326 1017 l 443 1185 l 564 1185 l 679 1017 l 583 1017 l 503 1107 l 422 1017 l 326 1017 m 671 1169 q 708 1180 694 1169 q 722 1203 722 1190 q 658 1238 722 1238 q 619 1233 640 1238 l 619 1303 q 679 1307 640 1307 q 779 1283 739 1307 q 819 1207 819 1260 q 800 1153 819 1174 q 743 1126 781 1132 l 743 1094 l 671 1094 l 671 1169 z "},"Ỗ":{"ha":1010,"x_min":74,"x_max":936,"o":"m 504 -17 q 185 104 296 -17 q 74 463 74 225 q 183 820 74 699 q 504 942 293 942 q 825 822 714 942 q 936 463 936 701 q 826 105 936 226 q 504 -17 715 -17 m 504 117 q 712 199 646 117 q 778 464 778 282 q 711 726 778 644 q 504 808 644 808 q 297 726 364 808 q 231 463 231 644 q 297 199 231 281 q 504 117 364 117 m 342 994 l 458 1163 l 579 1163 l 694 994 l 599 994 l 518 1085 l 438 994 l 342 994 m 294 1215 q 292 1249 292 1238 q 330 1349 292 1310 q 419 1389 368 1389 q 480 1376 453 1389 q 540 1338 507 1363 q 583 1309 567 1318 q 617 1300 599 1300 q 647 1314 636 1300 q 658 1354 658 1328 q 657 1374 658 1367 l 740 1374 q 742 1350 742 1365 q 703 1248 742 1288 q 607 1208 665 1208 q 540 1223 569 1208 q 479 1263 511 1238 q 442 1288 456 1281 q 415 1296 429 1296 q 383 1280 396 1296 q 371 1236 371 1264 q 372 1215 371 1222 l 294 1215 z "},"Ȍ":{"ha":1010,"x_min":74,"x_max":936,"o":"m 504 -17 q 185 104 296 -17 q 74 463 74 225 q 183 820 74 699 q 504 942 293 942 q 825 822 714 942 q 936 463 936 701 q 826 105 936 226 q 504 -17 715 -17 m 504 117 q 712 199 646 117 q 778 464 778 282 q 711 726 778 644 q 504 808 644 808 q 297 726 364 808 q 231 463 231 644 q 297 199 231 281 q 504 117 364 117 m 382 1021 l 258 1179 l 396 1179 l 468 1021 l 382 1021 m 582 1022 l 458 1181 l 596 1181 l 668 1022 l 582 1022 z "},"Ö":{"ha":1010,"x_min":74,"x_max":936,"o":"m 504 -17 q 185 104 296 -17 q 74 463 74 225 q 183 820 74 699 q 504 942 293 942 q 825 822 714 942 q 936 463 936 701 q 826 105 936 226 q 504 -17 715 -17 m 504 117 q 712 199 646 117 q 778 464 778 282 q 711 726 778 644 q 504 808 644 808 q 297 726 364 808 q 231 463 231 644 q 297 199 231 281 q 504 117 364 117 m 326 1008 l 326 1131 l 467 1131 l 467 1008 l 326 1008 m 554 1008 l 554 1131 l 693 1131 l 693 1008 l 554 1008 z "},"Ȫ":{"ha":1010,"x_min":74,"x_max":936,"o":"m 504 -17 q 185 104 296 -17 q 74 463 74 225 q 183 820 74 699 q 504 942 293 942 q 825 822 714 942 q 936 463 936 701 q 826 105 936 226 q 504 -17 715 -17 m 504 117 q 712 199 646 117 q 778 464 778 282 q 711 726 778 644 q 504 808 644 808 q 297 726 364 808 q 231 463 231 644 q 297 199 231 281 q 504 117 364 117 m 326 1008 l 326 1131 l 467 1131 l 467 1008 l 326 1008 m 554 1008 l 554 1131 l 693 1131 l 693 1008 l 554 1008 m 335 1225 l 335 1324 l 685 1324 l 685 1225 l 335 1225 z "},"Ȱ":{"ha":1010,"x_min":74,"x_max":936,"o":"m 504 -17 q 185 104 296 -17 q 74 463 74 225 q 183 820 74 699 q 504 942 293 942 q 825 822 714 942 q 936 463 936 701 q 826 105 936 226 q 504 -17 715 -17 m 504 117 q 712 199 646 117 q 778 464 778 282 q 711 726 778 644 q 504 808 644 808 q 297 726 364 808 q 231 463 231 644 q 297 199 231 281 q 504 117 364 117 m 439 986 l 439 1108 l 574 1108 l 574 986 l 439 986 m 335 1178 l 335 1276 l 685 1276 l 685 1178 l 335 1178 z "},"Ọ":{"ha":1010,"x_min":74,"x_max":936,"o":"m 504 -17 q 185 104 296 -17 q 74 463 74 225 q 183 820 74 699 q 504 942 293 942 q 825 822 714 942 q 936 463 936 701 q 826 105 936 226 q 504 -17 715 -17 m 504 117 q 712 199 646 117 q 778 464 778 282 q 711 726 778 644 q 504 808 644 808 q 297 726 364 808 q 231 463 231 644 q 297 199 231 281 q 504 117 364 117 m 449 -192 l 449 -69 l 575 -69 l 575 -192 l 449 -192 z "},"Ò":{"ha":1010,"x_min":74,"x_max":936,"o":"m 504 -17 q 185 104 296 -17 q 74 463 74 225 q 183 820 74 699 q 504 942 293 942 q 825 822 714 942 q 936 463 936 701 q 826 105 936 226 q 504 -17 715 -17 m 504 117 q 712 199 646 117 q 778 464 778 282 q 711 726 778 644 q 504 808 644 808 q 297 726 364 808 q 231 463 231 644 q 297 199 231 281 q 504 117 364 117 m 476 1011 l 353 1169 l 490 1169 l 563 1011 l 476 1011 z "},"Ỏ":{"ha":1010,"x_min":74,"x_max":936,"o":"m 504 -17 q 185 104 296 -17 q 74 463 74 225 q 183 820 74 699 q 504 942 293 942 q 825 822 714 942 q 936 463 936 701 q 826 105 936 226 q 504 -17 715 -17 m 504 117 q 712 199 646 117 q 778 464 778 282 q 711 726 778 644 q 504 808 644 808 q 297 726 364 808 q 231 463 231 644 q 297 199 231 281 q 504 117 364 117 m 464 1064 q 501 1074 488 1064 q 515 1097 515 1085 q 451 1132 515 1132 q 413 1128 433 1132 l 413 1197 q 472 1201 433 1201 q 572 1178 532 1201 q 613 1101 613 1154 q 593 1047 613 1068 q 536 1021 574 1026 l 536 989 l 464 989 l 464 1064 z "},"Ơ":{"ha":1010,"x_min":74,"x_max":936,"o":"m 772 868 q 936 463 936 753 q 826 105 936 226 q 504 -17 715 -17 q 185 104 296 -17 q 74 463 74 225 q 183 820 74 699 q 504 942 293 942 q 656 922 586 942 q 715 951 692 929 q 739 1003 739 972 l 739 1046 l 835 1046 l 835 990 q 772 868 835 911 m 504 117 q 712 199 646 117 q 778 464 778 282 q 711 726 778 644 q 504 808 644 808 q 297 726 364 808 q 231 463 231 644 q 297 199 231 281 q 504 117 364 117 z "},"Ớ":{"ha":1010,"x_min":74,"x_max":936,"o":"m 772 868 q 936 463 936 753 q 826 105 936 226 q 504 -17 715 -17 q 185 104 296 -17 q 74 463 74 225 q 183 820 74 699 q 504 942 293 942 q 656 922 586 942 q 715 951 692 929 q 739 1003 739 972 l 739 1046 l 835 1046 l 835 990 q 772 868 835 911 m 504 117 q 712 199 646 117 q 778 464 778 282 q 711 726 778 644 q 504 808 644 808 q 297 726 364 808 q 231 463 231 644 q 297 199 231 281 q 504 117 364 117 m 475 1022 l 542 1181 l 693 1181 l 557 1022 l 475 1022 z "},"Ợ":{"ha":1010,"x_min":74,"x_max":936,"o":"m 772 868 q 936 463 936 753 q 826 105 936 226 q 504 -17 715 -17 q 185 104 296 -17 q 74 463 74 225 q 183 820 74 699 q 504 942 293 942 q 656 922 586 942 q 715 951 692 929 q 739 1003 739 972 l 739 1046 l 835 1046 l 835 990 q 772 868 835 911 m 504 117 q 712 199 646 117 q 778 464 778 282 q 711 726 778 644 q 504 808 644 808 q 297 726 364 808 q 231 463 231 644 q 297 199 231 281 q 504 117 364 117 m 449 -192 l 449 -69 l 575 -69 l 575 -192 l 449 -192 z "},"Ờ":{"ha":1010,"x_min":74,"x_max":936,"o":"m 772 868 q 936 463 936 753 q 826 105 936 226 q 504 -17 715 -17 q 185 104 296 -17 q 74 463 74 225 q 183 820 74 699 q 504 942 293 942 q 656 922 586 942 q 715 951 692 929 q 739 1003 739 972 l 739 1046 l 835 1046 l 835 990 q 772 868 835 911 m 504 117 q 712 199 646 117 q 778 464 778 282 q 711 726 778 644 q 504 808 644 808 q 297 726 364 808 q 231 463 231 644 q 297 199 231 281 q 504 117 364 117 m 476 1011 l 353 1169 l 490 1169 l 563 1011 l 476 1011 z "},"Ở":{"ha":1010,"x_min":74,"x_max":936,"o":"m 772 868 q 936 463 936 753 q 826 105 936 226 q 504 -17 715 -17 q 185 104 296 -17 q 74 463 74 225 q 183 820 74 699 q 504 942 293 942 q 656 922 586 942 q 715 951 692 929 q 739 1003 739 972 l 739 1046 l 835 1046 l 835 990 q 772 868 835 911 m 504 117 q 712 199 646 117 q 778 464 778 282 q 711 726 778 644 q 504 808 644 808 q 297 726 364 808 q 231 463 231 644 q 297 199 231 281 q 504 117 364 117 m 464 1064 q 501 1074 488 1064 q 515 1097 515 1085 q 451 1132 515 1132 q 413 1128 433 1132 l 413 1197 q 472 1201 433 1201 q 572 1178 532 1201 q 613 1101 613 1154 q 593 1047 613 1068 q 536 1021 574 1026 l 536 989 l 464 989 l 464 1064 z "},"Ỡ":{"ha":1010,"x_min":74,"x_max":936,"o":"m 772 868 q 936 463 936 753 q 826 105 936 226 q 504 -17 715 -17 q 185 104 296 -17 q 74 463 74 225 q 183 820 74 699 q 504 942 293 942 q 656 922 586 942 q 715 951 692 929 q 739 1003 739 972 l 739 1046 l 835 1046 l 835 990 q 772 868 835 911 m 504 117 q 712 199 646 117 q 778 464 778 282 q 711 726 778 644 q 504 808 644 808 q 297 726 364 808 q 231 463 231 644 q 297 199 231 281 q 504 117 364 117 m 300 1017 q 297 1050 297 1039 q 335 1151 297 1111 q 425 1190 374 1190 q 485 1177 458 1190 q 546 1139 513 1164 q 588 1110 572 1119 q 622 1101 604 1101 q 653 1115 642 1101 q 664 1156 664 1129 q 663 1175 664 1168 l 746 1175 q 747 1151 747 1167 q 709 1049 747 1089 q 613 1010 671 1010 q 546 1024 575 1010 q 485 1064 517 1039 q 448 1090 461 1082 q 421 1097 435 1097 q 389 1081 401 1097 q 376 1038 376 1065 q 378 1017 376 1024 l 300 1017 z "},"Ő":{"ha":1010,"x_min":74,"x_max":936,"o":"m 504 -17 q 185 104 296 -17 q 74 463 74 225 q 183 820 74 699 q 504 942 293 942 q 825 822 714 942 q 936 463 936 701 q 826 105 936 226 q 504 -17 715 -17 m 504 117 q 712 199 646 117 q 778 464 778 282 q 711 726 778 644 q 504 808 644 808 q 297 726 364 808 q 231 463 231 644 q 297 199 231 281 q 504 117 364 117 m 376 999 l 458 1158 l 578 1158 l 458 999 l 376 999 m 556 999 l 638 1158 l 758 1158 l 639 999 l 556 999 z "},"Ȏ":{"ha":1010,"x_min":74,"x_max":936,"o":"m 504 -17 q 185 104 296 -17 q 74 463 74 225 q 183 820 74 699 q 504 942 293 942 q 825 822 714 942 q 936 463 936 701 q 826 105 936 226 q 504 -17 715 -17 m 504 117 q 712 199 646 117 q 778 464 778 282 q 711 726 778 644 q 504 808 644 808 q 297 726 364 808 q 231 463 231 644 q 297 199 231 281 q 504 117 364 117 m 513 1133 q 645 1088 593 1133 q 708 964 697 1043 l 618 964 q 513 1047 586 1047 q 447 1024 474 1047 q 406 964 419 1001 l 315 964 q 382 1089 332 1044 q 513 1133 432 1133 z "},"Ō":{"ha":1010,"x_min":74,"x_max":936,"o":"m 504 -17 q 185 104 296 -17 q 74 463 74 225 q 183 820 74 699 q 504 942 293 942 q 825 822 714 942 q 936 463 936 701 q 826 105 936 226 q 504 -17 715 -17 m 504 117 q 712 199 646 117 q 778 464 778 282 q 711 726 778 644 q 504 808 644 808 q 297 726 364 808 q 231 463 231 644 q 297 199 231 281 q 504 117 364 117 m 335 1004 l 335 1103 l 685 1103 l 685 1004 l 335 1004 z "},"Ṓ":{"ha":1010,"x_min":74,"x_max":936,"o":"m 504 -17 q 185 104 296 -17 q 74 463 74 225 q 183 820 74 699 q 504 942 293 942 q 825 822 714 942 q 936 463 936 701 q 826 105 936 226 q 504 -17 715 -17 m 504 117 q 712 199 646 117 q 778 464 778 282 q 711 726 778 644 q 504 808 644 808 q 297 726 364 808 q 231 463 231 644 q 297 199 231 281 q 504 117 364 117 m 335 1004 l 335 1103 l 685 1103 l 685 1004 l 335 1004 m 475 1182 l 542 1340 l 693 1340 l 557 1182 l 475 1182 z "},"Ṑ":{"ha":1010,"x_min":74,"x_max":936,"o":"m 504 -17 q 185 104 296 -17 q 74 463 74 225 q 183 820 74 699 q 504 942 293 942 q 825 822 714 942 q 936 463 936 701 q 826 105 936 226 q 504 -17 715 -17 m 504 117 q 712 199 646 117 q 778 464 778 282 q 711 726 778 644 q 504 808 644 808 q 297 726 364 808 q 231 463 231 644 q 297 199 231 281 q 504 117 364 117 m 335 1004 l 335 1103 l 685 1103 l 685 1004 l 335 1004 m 476 1171 l 353 1329 l 490 1329 l 563 1171 l 476 1171 z "},"Ǫ":{"ha":1010,"x_min":74,"x_max":936,"o":"m 936 463 q 863 156 936 272 q 650 1 790 39 l 656 0 q 525 -114 525 -60 q 537 -151 525 -140 q 572 -161 549 -161 q 656 -119 611 -161 l 656 -221 q 609 -241 632 -233 q 553 -249 586 -249 q 446 -217 483 -249 q 408 -126 408 -186 q 426 -68 408 -96 q 476 -17 444 -40 q 177 113 281 -8 q 74 463 74 233 q 183 820 74 699 q 504 942 293 942 q 825 822 714 942 q 936 463 936 701 m 504 117 q 712 199 646 117 q 778 464 778 282 q 711 726 778 644 q 504 808 644 808 q 297 726 364 808 q 231 463 231 644 q 297 199 231 281 q 504 117 364 117 z "},"Ø":{"ha":1010,"x_min":60,"x_max":971,"o":"m 851 788 q 936 463 936 669 q 826 105 936 226 q 504 -17 715 -17 q 229 63 333 -17 l 175 0 l 60 0 l 167 125 q 74 463 74 246 q 183 820 74 699 q 504 942 293 942 q 792 853 685 942 l 854 926 l 971 926 l 851 788 m 231 463 q 269 244 231 324 l 697 743 q 504 808 631 808 q 297 726 364 808 q 231 463 231 644 m 778 464 q 747 665 778 590 l 324 172 q 504 117 388 117 q 712 199 646 117 q 778 464 778 282 z "},"Ǿ":{"ha":1010,"x_min":60,"x_max":971,"o":"m 851 788 q 936 463 936 669 q 826 105 936 226 q 504 -17 715 -17 q 229 63 333 -17 l 175 0 l 60 0 l 167 125 q 74 463 74 246 q 183 820 74 699 q 504 942 293 942 q 792 853 685 942 l 854 926 l 971 926 l 851 788 m 231 463 q 269 244 231 324 l 697 743 q 504 808 631 808 q 297 726 364 808 q 231 463 231 644 m 778 464 q 747 665 778 590 l 324 172 q 504 117 388 117 q 712 199 646 117 q 778 464 778 282 m 468 1010 l 535 1168 l 686 1168 l 550 1010 l 468 1010 z "},"Õ":{"ha":1010,"x_min":74,"x_max":936,"o":"m 504 -17 q 185 104 296 -17 q 74 463 74 225 q 183 820 74 699 q 504 942 293 942 q 825 822 714 942 q 936 463 936 701 q 826 105 936 226 q 504 -17 715 -17 m 504 117 q 712 199 646 117 q 778 464 778 282 q 711 726 778 644 q 504 808 644 808 q 297 726 364 808 q 231 463 231 644 q 297 199 231 281 q 504 117 364 117 m 300 1017 q 297 1050 297 1039 q 335 1151 297 1111 q 425 1190 374 1190 q 485 1177 458 1190 q 546 1139 513 1164 q 588 1110 572 1119 q 622 1101 604 1101 q 653 1115 642 1101 q 664 1156 664 1129 q 663 1175 664 1168 l 746 1175 q 747 1151 747 1167 q 709 1049 747 1089 q 613 1010 671 1010 q 546 1024 575 1010 q 485 1064 517 1039 q 448 1090 461 1082 q 421 1097 435 1097 q 389 1081 401 1097 q 376 1038 376 1065 q 378 1017 376 1024 l 300 1017 z "},"Ṍ":{"ha":1010,"x_min":74,"x_max":936,"o":"m 504 -17 q 185 104 296 -17 q 74 463 74 225 q 183 820 74 699 q 504 942 293 942 q 825 822 714 942 q 936 463 936 701 q 826 105 936 226 q 504 -17 715 -17 m 504 117 q 712 199 646 117 q 778 464 778 282 q 711 726 778 644 q 504 808 644 808 q 297 726 364 808 q 231 463 231 644 q 297 199 231 281 q 504 117 364 117 m 300 1017 q 297 1050 297 1039 q 335 1151 297 1111 q 425 1190 374 1190 q 485 1177 458 1190 q 546 1139 513 1164 q 588 1110 572 1119 q 622 1101 604 1101 q 653 1115 642 1101 q 664 1156 664 1129 q 663 1175 664 1168 l 746 1175 q 747 1151 747 1167 q 709 1049 747 1089 q 613 1010 671 1010 q 546 1024 575 1010 q 485 1064 517 1039 q 448 1090 461 1082 q 421 1097 435 1097 q 389 1081 401 1097 q 376 1038 376 1065 q 378 1017 376 1024 l 300 1017 m 475 1286 l 542 1444 l 693 1444 l 557 1286 l 475 1286 z "},"Ṏ":{"ha":1010,"x_min":74,"x_max":936,"o":"m 504 -17 q 185 104 296 -17 q 74 463 74 225 q 183 820 74 699 q 504 942 293 942 q 825 822 714 942 q 936 463 936 701 q 826 105 936 226 q 504 -17 715 -17 m 504 117 q 712 199 646 117 q 778 464 778 282 q 711 726 778 644 q 504 808 644 808 q 297 726 364 808 q 231 463 231 644 q 297 199 231 281 q 504 117 364 117 m 300 1017 q 297 1050 297 1039 q 335 1151 297 1111 q 425 1190 374 1190 q 485 1177 458 1190 q 546 1139 513 1164 q 588 1110 572 1119 q 622 1101 604 1101 q 653 1115 642 1101 q 664 1156 664 1129 q 663 1175 664 1168 l 746 1175 q 747 1151 747 1167 q 709 1049 747 1089 q 613 1010 671 1010 q 546 1024 575 1010 q 485 1064 517 1039 q 448 1090 461 1082 q 421 1097 435 1097 q 389 1081 401 1097 q 376 1038 376 1065 q 378 1017 376 1024 l 300 1017 m 326 1272 l 326 1394 l 467 1394 l 467 1272 l 326 1272 m 554 1272 l 554 1394 l 693 1394 l 693 1272 l 554 1272 z "},"Ȭ":{"ha":1010,"x_min":74,"x_max":936,"o":"m 504 -17 q 185 104 296 -17 q 74 463 74 225 q 183 820 74 699 q 504 942 293 942 q 825 822 714 942 q 936 463 936 701 q 826 105 936 226 q 504 -17 715 -17 m 504 117 q 712 199 646 117 q 778 464 778 282 q 711 726 778 644 q 504 808 644 808 q 297 726 364 808 q 231 463 231 644 q 297 199 231 281 q 504 117 364 117 m 300 1017 q 297 1050 297 1039 q 335 1151 297 1111 q 425 1190 374 1190 q 485 1177 458 1190 q 546 1139 513 1164 q 588 1110 572 1119 q 622 1101 604 1101 q 653 1115 642 1101 q 664 1156 664 1129 q 663 1175 664 1168 l 746 1175 q 747 1151 747 1167 q 709 1049 747 1089 q 613 1010 671 1010 q 546 1024 575 1010 q 485 1064 517 1039 q 448 1090 461 1082 q 421 1097 435 1097 q 389 1081 401 1097 q 376 1038 376 1065 q 378 1017 376 1024 l 300 1017 m 335 1268 l 335 1367 l 685 1367 l 685 1268 l 335 1268 z "},"Œ":{"ha":1485,"x_min":74,"x_max":1388,"o":"m 935 797 l 935 529 l 1329 529 l 1329 399 l 933 399 l 933 392 l 933 129 l 1388 129 l 1388 0 l 781 0 l 781 64 q 504 -17 678 -17 q 185 104 296 -17 q 74 463 74 225 q 183 820 74 699 q 504 942 293 942 q 781 863 675 942 l 781 926 l 1388 926 l 1388 797 l 935 797 m 504 117 q 712 199 646 117 q 778 464 778 282 q 711 726 778 644 q 504 808 644 808 q 297 726 364 808 q 231 463 231 644 q 297 199 231 281 q 504 117 364 117 z "},"P":{"ha":882,"x_min":110,"x_max":808,"o":"m 263 0 l 110 0 l 110 926 l 476 926 q 722 852 636 926 q 808 633 808 778 q 722 410 808 489 q 476 332 635 332 l 263 332 l 263 0 m 457 463 q 608 508 567 463 q 649 628 649 553 q 608 751 649 706 q 457 797 567 797 l 263 797 l 263 463 l 457 463 z "},"Þ":{"ha":826,"x_min":119,"x_max":753,"o":"m 119 926 l 261 926 l 261 788 l 424 788 q 667 710 582 788 q 753 489 753 632 q 667 268 753 346 q 424 190 582 190 l 261 190 l 261 0 l 119 0 l 119 926 m 407 317 q 569 365 526 317 q 613 489 613 414 q 569 613 613 564 q 407 661 526 661 l 261 661 l 261 317 l 407 317 z "},"Q":{"ha":1010,"x_min":74,"x_max":936,"o":"m 758 42 q 849 -26 797 -26 q 889 -21 871 -26 q 935 1 907 -15 l 935 -108 q 825 -135 886 -135 q 713 -103 764 -135 q 629 -8 661 -72 q 504 -21 574 -21 q 74 463 74 -21 q 504 946 74 946 q 936 463 936 946 q 758 42 936 153 m 504 817 q 297 733 364 817 q 231 463 231 650 q 296 186 231 272 l 296 250 q 369 303 324 281 q 472 326 414 326 q 602 285 544 326 q 699 171 660 244 q 758 285 739 214 q 778 464 778 357 q 712 733 778 650 q 504 817 646 817 m 321 158 q 504 100 385 100 q 581 108 547 103 q 449 211 531 211 q 321 158 378 211 z "},"R":{"ha":924,"x_min":110,"x_max":865,"o":"m 675 0 l 458 350 l 263 350 l 263 0 l 110 0 l 110 926 l 521 926 q 744 856 667 926 q 821 647 821 786 q 766 472 821 547 q 618 376 711 397 l 865 0 l 675 0 m 263 475 l 478 475 q 615 515 569 475 q 660 638 660 556 q 623 757 660 717 q 503 797 586 797 l 263 797 l 263 475 z "},"Ŕ":{"ha":924,"x_min":110,"x_max":865,"o":"m 675 0 l 458 350 l 263 350 l 263 0 l 110 0 l 110 926 l 521 926 q 744 856 667 926 q 821 647 821 786 q 766 472 821 547 q 618 376 711 397 l 865 0 l 675 0 m 263 475 l 478 475 q 615 515 569 475 q 660 638 660 556 q 623 757 660 717 q 503 797 586 797 l 263 797 l 263 475 m 393 1010 l 460 1168 l 611 1168 l 475 1010 l 393 1010 z "},"Ř":{"ha":924,"x_min":110,"x_max":865,"o":"m 675 0 l 458 350 l 263 350 l 263 0 l 110 0 l 110 926 l 521 926 q 744 856 667 926 q 821 647 821 786 q 766 472 821 547 q 618 376 711 397 l 865 0 l 675 0 m 263 475 l 478 475 q 615 515 569 475 q 660 638 660 556 q 623 757 660 717 q 503 797 586 797 l 263 797 l 263 475 m 379 975 l 267 1143 l 368 1143 l 429 1051 l 490 1143 l 592 1143 l 485 975 l 379 975 z "},"Ŗ":{"ha":924,"x_min":110,"x_max":865,"o":"m 675 0 l 458 350 l 263 350 l 263 0 l 110 0 l 110 926 l 521 926 q 744 856 667 926 q 821 647 821 786 q 766 472 821 547 q 618 376 711 397 l 865 0 l 675 0 m 263 475 l 478 475 q 615 515 569 475 q 660 638 660 556 q 623 757 660 717 q 503 797 586 797 l 263 797 l 263 475 m 374 -185 q 418 -143 407 -174 q 428 -68 429 -112 l 543 -68 q 496 -209 544 -158 q 374 -268 447 -260 l 374 -185 z "},"Ȑ":{"ha":924,"x_min":110,"x_max":865,"o":"m 675 0 l 458 350 l 263 350 l 263 0 l 110 0 l 110 926 l 521 926 q 744 856 667 926 q 821 647 821 786 q 766 472 821 547 q 618 376 711 397 l 865 0 l 675 0 m 263 475 l 478 475 q 615 515 569 475 q 660 638 660 556 q 623 757 660 717 q 503 797 586 797 l 263 797 l 263 475 m 300 1008 l 176 1167 l 314 1167 l 386 1008 l 300 1008 m 500 1010 l 376 1168 l 514 1168 l 586 1010 l 500 1010 z "},"Ȓ":{"ha":924,"x_min":110,"x_max":865,"o":"m 675 0 l 458 350 l 263 350 l 263 0 l 110 0 l 110 926 l 521 926 q 744 856 667 926 q 821 647 821 786 q 766 472 821 547 q 618 376 711 397 l 865 0 l 675 0 m 263 475 l 478 475 q 615 515 569 475 q 660 638 660 556 q 623 757 660 717 q 503 797 586 797 l 263 797 l 263 475 m 431 1121 q 563 1076 511 1121 q 626 951 615 1031 l 536 951 q 431 1035 504 1035 q 365 1012 392 1035 q 324 951 338 989 l 233 951 q 300 1076 250 1032 q 431 1121 350 1121 z "},"Ṟ":{"ha":924,"x_min":110,"x_max":865,"o":"m 675 0 l 458 350 l 263 350 l 263 0 l 110 0 l 110 926 l 521 926 q 744 856 667 926 q 821 647 821 786 q 766 472 821 547 q 618 376 711 397 l 865 0 l 675 0 m 263 475 l 478 475 q 615 515 569 475 q 660 638 660 556 q 623 757 660 717 q 503 797 586 797 l 263 797 l 263 475 m 285 -181 l 285 -82 l 635 -82 l 635 -181 l 285 -181 z "},"S":{"ha":783,"x_min":86,"x_max":711,"o":"m 393 -17 q 228 1 294 -17 q 86 57 161 18 l 86 210 q 219 138 140 165 q 383 111 297 111 q 511 146 468 111 q 554 244 554 181 q 529 315 554 288 q 467 361 504 343 q 361 404 429 379 l 331 415 q 205 469 254 442 q 122 549 156 497 q 89 681 89 600 q 122 807 89 747 q 226 905 156 867 q 404 943 297 943 q 534 928 482 943 q 658 879 586 914 l 658 729 q 536 795 588 774 q 414 817 485 817 q 289 783 332 817 q 246 696 246 750 q 269 622 246 650 q 331 576 293 593 q 442 535 369 558 q 583 477 526 507 q 675 395 639 447 q 711 263 711 343 q 677 123 711 186 q 572 22 643 60 q 393 -17 500 -17 z "},"Ś":{"ha":783,"x_min":86,"x_max":711,"o":"m 393 -17 q 228 1 294 -17 q 86 57 161 18 l 86 210 q 219 138 140 165 q 383 111 297 111 q 511 146 468 111 q 554 244 554 181 q 529 315 554 288 q 467 361 504 343 q 361 404 429 379 l 331 415 q 205 469 254 442 q 122 549 156 497 q 89 681 89 600 q 122 807 89 747 q 226 905 156 867 q 404 943 297 943 q 534 928 482 943 q 658 879 586 914 l 658 729 q 536 795 588 774 q 414 817 485 817 q 289 783 332 817 q 246 696 246 750 q 269 622 246 650 q 331 576 293 593 q 442 535 369 558 q 583 477 526 507 q 675 395 639 447 q 711 263 711 343 q 677 123 711 186 q 572 22 643 60 q 393 -17 500 -17 m 365 1022 l 432 1181 l 583 1181 l 447 1022 l 365 1022 z "},"Ṥ":{"ha":783,"x_min":86,"x_max":711,"o":"m 393 -17 q 228 1 294 -17 q 86 57 161 18 l 86 210 q 219 138 140 165 q 383 111 297 111 q 511 146 468 111 q 554 244 554 181 q 529 315 554 288 q 467 361 504 343 q 361 404 429 379 l 331 415 q 205 469 254 442 q 122 549 156 497 q 89 681 89 600 q 122 807 89 747 q 226 905 156 867 q 404 943 297 943 q 534 928 482 943 q 658 879 586 914 l 658 729 q 536 795 588 774 q 414 817 485 817 q 289 783 332 817 q 246 696 246 750 q 269 622 246 650 q 331 576 293 593 q 442 535 369 558 q 583 477 526 507 q 675 395 639 447 q 711 263 711 343 q 677 123 711 186 q 572 22 643 60 q 393 -17 500 -17 m 414 1022 l 481 1181 l 632 1181 l 496 1022 l 414 1022 m 246 1026 l 246 1149 l 381 1149 l 381 1026 l 246 1026 z "},"Š":{"ha":783,"x_min":86,"x_max":711,"o":"m 393 -17 q 228 1 294 -17 q 86 57 161 18 l 86 210 q 219 138 140 165 q 383 111 297 111 q 511 146 468 111 q 554 244 554 181 q 529 315 554 288 q 467 361 504 343 q 361 404 429 379 l 331 415 q 205 469 254 442 q 122 549 156 497 q 89 681 89 600 q 122 807 89 747 q 226 905 156 867 q 404 943 297 943 q 534 928 482 943 q 658 879 586 914 l 658 729 q 536 795 588 774 q 414 817 485 817 q 289 783 332 817 q 246 696 246 750 q 269 622 246 650 q 331 576 293 593 q 442 535 369 558 q 583 477 526 507 q 675 395 639 447 q 711 263 711 343 q 677 123 711 186 q 572 22 643 60 q 393 -17 500 -17 m 351 988 l 239 1156 l 340 1156 l 401 1064 l 463 1156 l 564 1156 l 457 988 l 351 988 z "},"Ṧ":{"ha":783,"x_min":86,"x_max":711,"o":"m 393 -17 q 228 1 294 -17 q 86 57 161 18 l 86 210 q 219 138 140 165 q 383 111 297 111 q 511 146 468 111 q 554 244 554 181 q 529 315 554 288 q 467 361 504 343 q 361 404 429 379 l 331 415 q 205 469 254 442 q 122 549 156 497 q 89 681 89 600 q 122 807 89 747 q 226 905 156 867 q 404 943 297 943 q 534 928 482 943 q 658 879 586 914 l 658 729 q 536 795 588 774 q 414 817 485 817 q 289 783 332 817 q 246 696 246 750 q 269 622 246 650 q 331 576 293 593 q 442 535 369 558 q 583 477 526 507 q 675 395 639 447 q 711 263 711 343 q 677 123 711 186 q 572 22 643 60 q 393 -17 500 -17 m 351 988 l 239 1156 l 340 1156 l 401 1064 l 463 1156 l 564 1156 l 457 988 l 351 988 m 331 1207 l 331 1329 l 465 1329 l 465 1207 l 331 1207 z "},"Ş":{"ha":783,"x_min":86,"x_max":711,"o":"m 711 263 q 648 81 711 158 q 460 -12 585 4 l 389 -160 l 249 -160 l 350 -15 q 213 5 271 -12 q 86 57 156 22 l 86 210 q 219 138 140 165 q 383 111 297 111 q 511 146 468 111 q 554 244 554 181 q 529 315 554 288 q 467 361 504 343 q 361 404 429 379 l 331 415 q 205 469 254 442 q 122 549 156 497 q 89 681 89 600 q 122 807 89 747 q 226 905 156 867 q 404 943 297 943 q 534 928 482 943 q 658 879 586 914 l 658 729 q 536 795 588 774 q 414 817 485 817 q 289 783 332 817 q 246 696 246 750 q 269 622 246 650 q 331 576 293 593 q 442 535 369 558 q 583 477 526 507 q 675 395 639 447 q 711 263 711 343 z "},"Ŝ":{"ha":783,"x_min":86,"x_max":711,"o":"m 393 -17 q 228 1 294 -17 q 86 57 161 18 l 86 210 q 219 138 140 165 q 383 111 297 111 q 511 146 468 111 q 554 244 554 181 q 529 315 554 288 q 467 361 504 343 q 361 404 429 379 l 331 415 q 205 469 254 442 q 122 549 156 497 q 89 681 89 600 q 122 807 89 747 q 226 905 156 867 q 404 943 297 943 q 534 928 482 943 q 658 879 586 914 l 658 729 q 536 795 588 774 q 414 817 485 817 q 289 783 332 817 q 246 696 246 750 q 269 622 246 650 q 331 576 293 593 q 442 535 369 558 q 583 477 526 507 q 675 395 639 447 q 711 263 711 343 q 677 123 711 186 q 572 22 643 60 q 393 -17 500 -17 m 226 1006 l 343 1174 l 464 1174 l 579 1006 l 483 1006 l 403 1096 l 322 1006 l 226 1006 z "},"Ș":{"ha":783,"x_min":86,"x_max":711,"o":"m 393 -17 q 228 1 294 -17 q 86 57 161 18 l 86 210 q 219 138 140 165 q 383 111 297 111 q 511 146 468 111 q 554 244 554 181 q 529 315 554 288 q 467 361 504 343 q 361 404 429 379 l 331 415 q 205 469 254 442 q 122 549 156 497 q 89 681 89 600 q 122 807 89 747 q 226 905 156 867 q 404 943 297 943 q 534 928 482 943 q 658 879 586 914 l 658 729 q 536 795 588 774 q 414 817 485 817 q 289 783 332 817 q 246 696 246 750 q 269 622 246 650 q 331 576 293 593 q 442 535 369 558 q 583 477 526 507 q 675 395 639 447 q 711 263 711 343 q 677 123 711 186 q 572 22 643 60 q 393 -17 500 -17 m 290 -185 q 335 -143 324 -174 q 344 -68 346 -112 l 460 -68 q 413 -209 461 -158 q 290 -268 364 -260 l 290 -185 z "},"Ṡ":{"ha":783,"x_min":86,"x_max":711,"o":"m 393 -17 q 228 1 294 -17 q 86 57 161 18 l 86 210 q 219 138 140 165 q 383 111 297 111 q 511 146 468 111 q 554 244 554 181 q 529 315 554 288 q 467 361 504 343 q 361 404 429 379 l 331 415 q 205 469 254 442 q 122 549 156 497 q 89 681 89 600 q 122 807 89 747 q 226 905 156 867 q 404 943 297 943 q 534 928 482 943 q 658 879 586 914 l 658 729 q 536 795 588 774 q 414 817 485 817 q 289 783 332 817 q 246 696 246 750 q 269 622 246 650 q 331 576 293 593 q 442 535 369 558 q 583 477 526 507 q 675 395 639 447 q 711 263 711 343 q 677 123 711 186 q 572 22 643 60 q 393 -17 500 -17 m 329 986 l 329 1108 l 464 1108 l 464 986 l 329 986 z "},"Ṣ":{"ha":783,"x_min":86,"x_max":711,"o":"m 393 -17 q 228 1 294 -17 q 86 57 161 18 l 86 210 q 219 138 140 165 q 383 111 297 111 q 511 146 468 111 q 554 244 554 181 q 529 315 554 288 q 467 361 504 343 q 361 404 429 379 l 331 415 q 205 469 254 442 q 122 549 156 497 q 89 681 89 600 q 122 807 89 747 q 226 905 156 867 q 404 943 297 943 q 534 928 482 943 q 658 879 586 914 l 658 729 q 536 795 588 774 q 414 817 485 817 q 289 783 332 817 q 246 696 246 750 q 269 622 246 650 q 331 576 293 593 q 442 535 369 558 q 583 477 526 507 q 675 395 639 447 q 711 263 711 343 q 677 123 711 186 q 572 22 643 60 q 393 -17 500 -17 m 315 -192 l 315 -69 l 442 -69 l 442 -192 l 315 -192 z "},"Ṩ":{"ha":783,"x_min":86,"x_max":711,"o":"m 393 -17 q 228 1 294 -17 q 86 57 161 18 l 86 210 q 219 138 140 165 q 383 111 297 111 q 511 146 468 111 q 554 244 554 181 q 529 315 554 288 q 467 361 504 343 q 361 404 429 379 l 331 415 q 205 469 254 442 q 122 549 156 497 q 89 681 89 600 q 122 807 89 747 q 226 905 156 867 q 404 943 297 943 q 534 928 482 943 q 658 879 586 914 l 658 729 q 536 795 588 774 q 414 817 485 817 q 289 783 332 817 q 246 696 246 750 q 269 622 246 650 q 331 576 293 593 q 442 535 369 558 q 583 477 526 507 q 675 395 639 447 q 711 263 711 343 q 677 123 711 186 q 572 22 643 60 q 393 -17 500 -17 m 315 -192 l 315 -69 l 442 -69 l 442 -192 l 315 -192 m 329 986 l 329 1108 l 464 1108 l 464 986 l 329 986 z "},"ẞ":{"ha":992,"x_min":110,"x_max":917,"o":"m 693 590 q 858 472 800 546 q 917 283 917 397 q 882 135 917 204 q 776 22 847 65 q 601 -21 706 -21 q 494 -2 550 -21 q 390 50 438 17 l 390 200 q 478 133 426 158 q 590 107 529 107 q 716 151 672 107 q 760 275 760 196 q 689 440 760 379 q 490 533 618 501 l 490 590 l 713 724 q 619 799 676 771 q 479 828 561 828 q 320 772 378 828 q 263 618 263 717 l 263 0 l 110 0 l 110 622 q 203 856 110 768 q 469 943 297 943 q 713 886 626 943 q 860 719 799 829 l 860 690 l 693 590 z "},"Ə":{"ha":1008,"x_min":71,"x_max":936,"o":"m 483 939 q 724 883 622 939 q 881 717 825 826 q 936 450 936 607 q 820 100 936 221 q 496 -21 704 -21 q 174 113 278 -21 q 74 483 71 246 l 778 483 q 689 727 771 646 q 460 808 607 808 q 276 783 367 808 q 125 722 185 757 l 125 861 q 483 939 281 939 m 500 103 q 692 163 624 103 q 775 371 761 224 l 226 371 q 302 165 236 228 q 500 103 368 103 z "},"T":{"ha":813,"x_min":31,"x_max":782,"o":"m 329 0 l 329 797 l 31 797 l 31 926 l 782 926 l 782 797 l 482 797 l 482 0 l 329 0 z "},"Ŧ":{"ha":813,"x_min":31,"x_max":782,"o":"m 782 797 l 482 797 l 482 513 l 594 513 l 594 415 l 482 415 l 482 0 l 329 0 l 329 415 l 222 415 l 222 513 l 329 513 l 329 797 l 31 797 l 31 926 l 782 926 l 782 797 z "},"Ť":{"ha":794,"x_min":17,"x_max":778,"o":"m 367 1006 l 239 1174 l 335 1174 l 397 1086 l 458 1174 l 556 1174 l 426 1006 l 367 1006 m 326 0 l 326 793 l 17 793 l 17 926 l 778 926 l 778 793 l 468 793 l 468 0 l 326 0 z "},"Ţ":{"ha":813,"x_min":31,"x_max":782,"o":"m 782 797 l 482 797 l 482 8 l 497 8 l 417 -160 l 276 -160 l 389 0 l 329 0 l 329 797 l 31 797 l 31 926 l 782 926 l 782 797 z "},"Ṯ":{"ha":813,"x_min":31,"x_max":782,"o":"m 329 0 l 329 797 l 31 797 l 31 926 l 782 926 l 782 797 l 482 797 l 482 0 l 329 0 m 229 -181 l 229 -82 l 579 -82 l 579 -181 l 229 -181 z "},"U":{"ha":981,"x_min":110,"x_max":871,"o":"m 500 -21 q 210 76 310 -21 q 110 364 110 174 l 110 926 l 267 926 l 267 365 q 324 172 267 235 q 494 108 381 108 q 724 365 724 108 l 724 926 l 871 926 l 871 364 q 772 78 871 176 q 500 -21 674 -21 z "},"Ú":{"ha":981,"x_min":110,"x_max":871,"o":"m 500 -21 q 210 76 310 -21 q 110 364 110 174 l 110 926 l 267 926 l 267 365 q 324 172 267 235 q 494 108 381 108 q 724 365 724 108 l 724 926 l 871 926 l 871 364 q 772 78 871 176 q 500 -21 674 -21 m 453 1014 l 519 1172 l 671 1172 l 535 1014 l 453 1014 z "},"Ŭ":{"ha":981,"x_min":110,"x_max":871,"o":"m 500 -21 q 210 76 310 -21 q 110 364 110 174 l 110 926 l 267 926 l 267 365 q 324 172 267 235 q 494 108 381 108 q 724 365 724 108 l 724 926 l 871 926 l 871 364 q 772 78 871 176 q 500 -21 674 -21 m 490 972 q 360 1017 410 972 q 293 1142 310 1061 l 383 1142 q 424 1081 397 1104 q 490 1058 451 1058 q 596 1142 564 1058 l 686 1142 q 623 1017 675 1063 q 490 972 571 972 z "},"Ǔ":{"ha":981,"x_min":110,"x_max":871,"o":"m 500 -21 q 210 76 310 -21 q 110 364 110 174 l 110 926 l 267 926 l 267 365 q 324 172 267 235 q 494 108 381 108 q 724 365 724 108 l 724 926 l 871 926 l 871 364 q 772 78 871 176 q 500 -21 674 -21 m 439 979 l 326 1147 l 428 1147 l 489 1056 l 550 1147 l 651 1147 l 544 979 l 439 979 z "},"Û":{"ha":981,"x_min":110,"x_max":871,"o":"m 500 -21 q 210 76 310 -21 q 110 364 110 174 l 110 926 l 267 926 l 267 365 q 324 172 267 235 q 494 108 381 108 q 724 365 724 108 l 724 926 l 871 926 l 871 364 q 772 78 871 176 q 500 -21 674 -21 m 314 997 l 431 1165 l 551 1165 l 667 997 l 571 997 l 490 1088 l 410 997 l 314 997 z "},"Ȕ":{"ha":981,"x_min":110,"x_max":871,"o":"m 500 -21 q 210 76 310 -21 q 110 364 110 174 l 110 926 l 267 926 l 267 365 q 324 172 267 235 q 494 108 381 108 q 724 365 724 108 l 724 926 l 871 926 l 871 364 q 772 78 871 176 q 500 -21 674 -21 m 360 1013 l 236 1171 l 374 1171 l 446 1013 l 360 1013 m 560 1014 l 436 1172 l 574 1172 l 646 1014 l 560 1014 z "},"Ü":{"ha":981,"x_min":110,"x_max":871,"o":"m 500 -21 q 210 76 310 -21 q 110 364 110 174 l 110 926 l 267 926 l 267 365 q 324 172 267 235 q 494 108 381 108 q 724 365 724 108 l 724 926 l 871 926 l 871 364 q 772 78 871 176 q 500 -21 674 -21 m 304 1000 l 304 1122 l 444 1122 l 444 1000 l 304 1000 m 532 1000 l 532 1122 l 671 1122 l 671 1000 l 532 1000 z "},"Ụ":{"ha":981,"x_min":110,"x_max":871,"o":"m 500 -21 q 210 76 310 -21 q 110 364 110 174 l 110 926 l 267 926 l 267 365 q 324 172 267 235 q 494 108 381 108 q 724 365 724 108 l 724 926 l 871 926 l 871 364 q 772 78 871 176 q 500 -21 674 -21 m 426 -192 l 426 -69 l 553 -69 l 553 -192 l 426 -192 z "},"Ù":{"ha":981,"x_min":110,"x_max":871,"o":"m 500 -21 q 210 76 310 -21 q 110 364 110 174 l 110 926 l 267 926 l 267 365 q 324 172 267 235 q 494 108 381 108 q 724 365 724 108 l 724 926 l 871 926 l 871 364 q 772 78 871 176 q 500 -21 674 -21 m 454 1003 l 331 1161 l 468 1161 l 540 1003 l 454 1003 z "},"Ủ":{"ha":981,"x_min":110,"x_max":871,"o":"m 500 -21 q 210 76 310 -21 q 110 364 110 174 l 110 926 l 267 926 l 267 365 q 324 172 267 235 q 494 108 381 108 q 724 365 724 108 l 724 926 l 871 926 l 871 364 q 772 78 871 176 q 500 -21 674 -21 m 442 1056 q 479 1066 465 1056 q 493 1089 493 1076 q 429 1124 493 1124 q 390 1119 411 1124 l 390 1189 q 450 1193 411 1193 q 550 1169 510 1193 q 590 1093 590 1146 q 571 1039 590 1060 q 514 1013 551 1018 l 514 981 l 442 981 l 442 1056 z "},"Ư":{"ha":1074,"x_min":110,"x_max":1001,"o":"m 1001 1050 l 1001 994 q 966 896 1001 935 q 871 843 931 857 l 871 364 q 772 78 871 176 q 500 -21 674 -21 q 210 76 310 -21 q 110 364 110 174 l 110 926 l 267 926 l 267 365 q 324 172 267 235 q 494 108 381 108 q 724 365 724 108 l 724 926 l 821 926 q 881 954 857 932 q 906 1007 906 976 l 906 1050 l 1001 1050 z "},"Ứ":{"ha":1074,"x_min":110,"x_max":1001,"o":"m 1001 1050 l 1001 994 q 966 896 1001 935 q 871 843 931 857 l 871 364 q 772 78 871 176 q 500 -21 674 -21 q 210 76 310 -21 q 110 364 110 174 l 110 926 l 267 926 l 267 365 q 324 172 267 235 q 494 108 381 108 q 724 365 724 108 l 724 926 l 821 926 q 881 954 857 932 q 906 1007 906 976 l 906 1050 l 1001 1050 m 453 1014 l 519 1172 l 671 1172 l 535 1014 l 453 1014 z "},"Ự":{"ha":1074,"x_min":110,"x_max":1001,"o":"m 1001 1050 l 1001 994 q 966 896 1001 935 q 871 843 931 857 l 871 364 q 772 78 871 176 q 500 -21 674 -21 q 210 76 310 -21 q 110 364 110 174 l 110 926 l 267 926 l 267 365 q 324 172 267 235 q 494 108 381 108 q 724 365 724 108 l 724 926 l 821 926 q 881 954 857 932 q 906 1007 906 976 l 906 1050 l 1001 1050 m 426 -192 l 426 -69 l 553 -69 l 553 -192 l 426 -192 z "},"Ừ":{"ha":1074,"x_min":110,"x_max":1001,"o":"m 1001 1050 l 1001 994 q 966 896 1001 935 q 871 843 931 857 l 871 364 q 772 78 871 176 q 500 -21 674 -21 q 210 76 310 -21 q 110 364 110 174 l 110 926 l 267 926 l 267 365 q 324 172 267 235 q 494 108 381 108 q 724 365 724 108 l 724 926 l 821 926 q 881 954 857 932 q 906 1007 906 976 l 906 1050 l 1001 1050 m 454 1003 l 331 1161 l 468 1161 l 540 1003 l 454 1003 z "},"Ử":{"ha":1074,"x_min":110,"x_max":1001,"o":"m 1001 1050 l 1001 994 q 966 896 1001 935 q 871 843 931 857 l 871 364 q 772 78 871 176 q 500 -21 674 -21 q 210 76 310 -21 q 110 364 110 174 l 110 926 l 267 926 l 267 365 q 324 172 267 235 q 494 108 381 108 q 724 365 724 108 l 724 926 l 821 926 q 881 954 857 932 q 906 1007 906 976 l 906 1050 l 1001 1050 m 442 1056 q 479 1066 465 1056 q 493 1089 493 1076 q 429 1124 493 1124 q 390 1119 411 1124 l 390 1189 q 450 1193 411 1193 q 550 1169 510 1193 q 590 1093 590 1146 q 571 1039 590 1060 q 514 1013 551 1018 l 514 981 l 442 981 l 442 1056 z "},"Ữ":{"ha":1074,"x_min":110,"x_max":1001,"o":"m 1001 1050 l 1001 994 q 966 896 1001 935 q 871 843 931 857 l 871 364 q 772 78 871 176 q 500 -21 674 -21 q 210 76 310 -21 q 110 364 110 174 l 110 926 l 267 926 l 267 365 q 324 172 267 235 q 494 108 381 108 q 724 365 724 108 l 724 926 l 821 926 q 881 954 857 932 q 906 1007 906 976 l 906 1050 l 1001 1050 m 278 1008 q 275 1042 275 1031 q 313 1142 275 1103 q 403 1182 351 1182 q 463 1169 436 1182 q 524 1131 490 1156 q 566 1102 550 1111 q 600 1093 582 1093 q 631 1107 619 1093 q 642 1147 642 1121 q 640 1167 642 1160 l 724 1167 q 725 1143 725 1158 q 687 1041 725 1081 q 590 1001 649 1001 q 524 1016 553 1001 q 463 1056 494 1031 q 426 1081 439 1074 q 399 1089 413 1089 q 367 1073 379 1089 q 354 1029 354 1057 q 356 1008 354 1015 l 278 1008 z "},"Ű":{"ha":981,"x_min":110,"x_max":871,"o":"m 500 -21 q 210 76 310 -21 q 110 364 110 174 l 110 926 l 267 926 l 267 365 q 324 172 267 235 q 494 108 381 108 q 724 365 724 108 l 724 926 l 871 926 l 871 364 q 772 78 871 176 q 500 -21 674 -21 m 354 990 l 436 1150 l 556 1150 l 436 990 l 354 990 m 533 990 l 615 1150 l 736 1150 l 617 990 l 533 990 z "},"Ȗ":{"ha":981,"x_min":110,"x_max":871,"o":"m 500 -21 q 210 76 310 -21 q 110 364 110 174 l 110 926 l 267 926 l 267 365 q 324 172 267 235 q 494 108 381 108 q 724 365 724 108 l 724 926 l 871 926 l 871 364 q 772 78 871 176 q 500 -21 674 -21 m 490 1125 q 623 1080 571 1125 q 686 956 675 1035 l 596 956 q 490 1039 564 1039 q 424 1016 451 1039 q 383 956 397 993 l 293 956 q 360 1081 310 1036 q 490 1125 410 1125 z "},"Ū":{"ha":981,"x_min":110,"x_max":871,"o":"m 500 -21 q 210 76 310 -21 q 110 364 110 174 l 110 926 l 267 926 l 267 365 q 324 172 267 235 q 494 108 381 108 q 724 365 724 108 l 724 926 l 871 926 l 871 364 q 772 78 871 176 q 500 -21 674 -21 m 313 996 l 313 1094 l 663 1094 l 663 996 l 313 996 z "},"Ṻ":{"ha":981,"x_min":110,"x_max":871,"o":"m 500 -21 q 210 76 310 -21 q 110 364 110 174 l 110 926 l 267 926 l 267 365 q 324 172 267 235 q 494 108 381 108 q 724 365 724 108 l 724 926 l 871 926 l 871 364 q 772 78 871 176 q 500 -21 674 -21 m 313 996 l 313 1094 l 663 1094 l 663 996 l 313 996 m 304 1160 l 304 1282 l 444 1282 l 444 1160 l 304 1160 m 532 1160 l 532 1282 l 671 1282 l 671 1160 l 532 1160 z "},"Ų":{"ha":981,"x_min":110,"x_max":871,"o":"m 871 926 l 871 364 q 810 125 871 218 q 638 -1 749 32 q 545 -57 579 -28 q 511 -114 511 -86 q 523 -151 511 -140 q 558 -161 535 -161 q 642 -119 597 -161 l 642 -221 q 595 -241 618 -233 q 539 -249 572 -249 q 432 -217 469 -249 q 394 -126 394 -186 q 411 -71 394 -99 q 457 -19 428 -43 q 199 89 288 -8 q 110 364 110 186 l 110 926 l 267 926 l 267 365 q 324 172 267 235 q 494 108 381 108 q 724 365 724 108 l 724 926 l 871 926 z "},"Ů":{"ha":981,"x_min":110,"x_max":871,"o":"m 500 -21 q 210 76 310 -21 q 110 364 110 174 l 110 926 l 267 926 l 267 365 q 324 172 267 235 q 494 108 381 108 q 724 365 724 108 l 724 926 l 871 926 l 871 364 q 772 78 871 176 q 500 -21 674 -21 m 489 908 q 374 940 411 908 q 338 1038 338 972 q 374 1135 338 1103 q 489 1167 411 1167 q 640 1038 640 1167 q 489 908 640 908 m 489 978 q 544 991 529 978 q 560 1038 560 1004 q 544 1084 560 1071 q 489 1097 529 1097 q 432 1084 447 1097 q 417 1038 417 1071 q 432 991 417 1004 q 489 978 447 978 z "},"Ũ":{"ha":981,"x_min":110,"x_max":871,"o":"m 500 -21 q 210 76 310 -21 q 110 364 110 174 l 110 926 l 267 926 l 267 365 q 324 172 267 235 q 494 108 381 108 q 724 365 724 108 l 724 926 l 871 926 l 871 364 q 772 78 871 176 q 500 -21 674 -21 m 278 1008 q 275 1042 275 1031 q 313 1142 275 1103 q 403 1182 351 1182 q 463 1169 436 1182 q 524 1131 490 1156 q 566 1102 550 1111 q 600 1093 582 1093 q 631 1107 619 1093 q 642 1147 642 1121 q 640 1167 642 1160 l 724 1167 q 725 1143 725 1158 q 687 1041 725 1081 q 590 1001 649 1001 q 524 1016 553 1001 q 463 1056 494 1031 q 426 1081 439 1074 q 399 1089 413 1089 q 367 1073 379 1089 q 354 1029 354 1057 q 356 1008 354 1015 l 278 1008 z "},"Ṹ":{"ha":981,"x_min":110,"x_max":871,"o":"m 500 -21 q 210 76 310 -21 q 110 364 110 174 l 110 926 l 267 926 l 267 365 q 324 172 267 235 q 494 108 381 108 q 724 365 724 108 l 724 926 l 871 926 l 871 364 q 772 78 871 176 q 500 -21 674 -21 m 278 1008 q 275 1042 275 1031 q 313 1142 275 1103 q 403 1182 351 1182 q 463 1169 436 1182 q 524 1131 490 1156 q 566 1102 550 1111 q 600 1093 582 1093 q 631 1107 619 1093 q 642 1147 642 1121 q 640 1167 642 1160 l 724 1167 q 725 1143 725 1158 q 687 1041 725 1081 q 590 1001 649 1001 q 524 1016 553 1001 q 463 1056 494 1031 q 426 1081 439 1074 q 399 1089 413 1089 q 367 1073 379 1089 q 354 1029 354 1057 q 356 1008 354 1015 l 278 1008 m 453 1278 l 519 1436 l 671 1436 l 535 1278 l 453 1278 z "},"V":{"ha":917,"x_min":24,"x_max":893,"o":"m 732 925 l 893 926 l 535 0 l 375 0 l 24 926 l 196 926 l 465 179 l 732 925 z "},"W":{"ha":1375,"x_min":35,"x_max":1340,"o":"m 1175 926 l 1340 926 l 1058 0 l 906 0 l 688 696 l 469 0 l 315 0 l 35 926 l 200 926 l 406 193 l 622 926 l 754 926 l 972 194 l 1175 926 z "},"Ẃ":{"ha":1375,"x_min":35,"x_max":1340,"o":"m 1175 926 l 1340 926 l 1058 0 l 906 0 l 688 696 l 469 0 l 315 0 l 35 926 l 200 926 l 406 193 l 622 926 l 754 926 l 972 194 l 1175 926 m 651 1010 l 718 1168 l 869 1168 l 733 1010 l 651 1010 z "},"Ŵ":{"ha":1375,"x_min":35,"x_max":1340,"o":"m 1175 926 l 1340 926 l 1058 0 l 906 0 l 688 696 l 469 0 l 315 0 l 35 926 l 200 926 l 406 193 l 622 926 l 754 926 l 972 194 l 1175 926 m 513 993 l 629 1161 l 750 1161 l 865 993 l 769 993 l 689 1083 l 608 993 l 513 993 z "},"Ẅ":{"ha":1375,"x_min":35,"x_max":1340,"o":"m 1175 926 l 1340 926 l 1058 0 l 906 0 l 688 696 l 469 0 l 315 0 l 35 926 l 200 926 l 406 193 l 622 926 l 754 926 l 972 194 l 1175 926 m 503 996 l 503 1118 l 643 1118 l 643 996 l 503 996 m 731 996 l 731 1118 l 869 1118 l 869 996 l 731 996 z "},"Ẁ":{"ha":1375,"x_min":35,"x_max":1340,"o":"m 1175 926 l 1340 926 l 1058 0 l 906 0 l 688 696 l 469 0 l 315 0 l 35 926 l 200 926 l 406 193 l 622 926 l 754 926 l 972 194 l 1175 926 m 653 999 l 529 1157 l 667 1157 l 739 999 l 653 999 z "},"X":{"ha":872,"x_min":21,"x_max":853,"o":"m 853 0 l 664 0 l 424 346 l 196 0 l 21 0 l 340 468 l 22 926 l 210 926 l 446 588 l 669 926 l 844 926 l 531 464 l 853 0 z "},"Y":{"ha":886,"x_min":22,"x_max":860,"o":"m 860 926 l 524 414 l 524 0 l 371 0 l 371 415 l 22 926 l 210 926 l 457 542 l 694 926 l 860 926 z "},"Ý":{"ha":886,"x_min":22,"x_max":860,"o":"m 860 926 l 524 414 l 524 0 l 371 0 l 371 415 l 22 926 l 210 926 l 457 542 l 694 926 l 860 926 m 425 1010 l 492 1168 l 643 1168 l 507 1010 l 425 1010 z "},"Ŷ":{"ha":886,"x_min":22,"x_max":860,"o":"m 860 926 l 524 414 l 524 0 l 371 0 l 371 415 l 22 926 l 210 926 l 457 542 l 694 926 l 860 926 m 286 993 l 403 1161 l 524 1161 l 639 993 l 543 993 l 463 1083 l 382 993 l 286 993 z "},"Ÿ":{"ha":886,"x_min":22,"x_max":860,"o":"m 860 926 l 524 414 l 524 0 l 371 0 l 371 415 l 22 926 l 210 926 l 457 542 l 694 926 l 860 926 m 276 996 l 276 1118 l 417 1118 l 417 996 l 276 996 m 504 996 l 504 1118 l 643 1118 l 643 996 l 504 996 z "},"Ẏ":{"ha":886,"x_min":22,"x_max":860,"o":"m 860 926 l 524 414 l 524 0 l 371 0 l 371 415 l 22 926 l 210 926 l 457 542 l 694 926 l 860 926 m 389 974 l 389 1096 l 524 1096 l 524 974 l 389 974 z "},"Ỵ":{"ha":886,"x_min":22,"x_max":860,"o":"m 860 926 l 524 414 l 524 0 l 371 0 l 371 415 l 22 926 l 210 926 l 457 542 l 694 926 l 860 926 m 379 -192 l 379 -69 l 506 -69 l 506 -192 l 379 -192 z "},"Ỳ":{"ha":886,"x_min":22,"x_max":860,"o":"m 860 926 l 524 414 l 524 0 l 371 0 l 371 415 l 22 926 l 210 926 l 457 542 l 694 926 l 860 926 m 426 999 l 303 1157 l 440 1157 l 513 999 l 426 999 z "},"Ỷ":{"ha":886,"x_min":22,"x_max":860,"o":"m 860 926 l 524 414 l 524 0 l 371 0 l 371 415 l 22 926 l 210 926 l 457 542 l 694 926 l 860 926 m 414 1051 q 451 1062 438 1051 q 465 1085 465 1072 q 401 1119 465 1119 q 363 1115 383 1119 l 363 1185 q 422 1189 383 1189 q 522 1165 482 1189 q 563 1089 563 1142 q 543 1035 563 1056 q 486 1008 524 1014 l 486 976 l 414 976 l 414 1051 z "},"Ȳ":{"ha":886,"x_min":22,"x_max":860,"o":"m 860 926 l 524 414 l 524 0 l 371 0 l 371 415 l 22 926 l 210 926 l 457 542 l 694 926 l 860 926 m 285 992 l 285 1090 l 635 1090 l 635 992 l 285 992 z "},"Ỹ":{"ha":886,"x_min":22,"x_max":860,"o":"m 860 926 l 524 414 l 524 0 l 371 0 l 371 415 l 22 926 l 210 926 l 457 542 l 694 926 l 860 926 m 250 1004 q 247 1038 247 1026 q 285 1138 247 1099 q 375 1178 324 1178 q 435 1165 408 1178 q 496 1126 463 1151 q 538 1098 522 1107 q 572 1089 554 1089 q 603 1103 592 1089 q 614 1143 614 1117 q 613 1163 614 1156 l 696 1163 q 697 1139 697 1154 q 659 1037 697 1076 q 563 997 621 997 q 496 1012 525 997 q 435 1051 467 1026 q 398 1077 411 1069 q 371 1085 385 1085 q 339 1069 351 1085 q 326 1025 326 1053 q 328 1004 326 1011 l 250 1004 z "},"Z":{"ha":861,"x_min":83,"x_max":772,"o":"m 772 926 l 772 810 l 275 129 l 772 129 l 772 0 l 83 0 l 83 121 l 589 797 l 94 797 l 94 926 l 772 926 z "},"Ź":{"ha":861,"x_min":83,"x_max":772,"o":"m 772 926 l 772 810 l 275 129 l 772 129 l 772 0 l 83 0 l 83 121 l 589 797 l 94 797 l 94 926 l 772 926 m 397 1010 l 464 1168 l 615 1168 l 479 1010 l 397 1010 z "},"Ž":{"ha":861,"x_min":83,"x_max":772,"o":"m 772 926 l 772 810 l 275 129 l 772 129 l 772 0 l 83 0 l 83 121 l 589 797 l 94 797 l 94 926 l 772 926 m 383 975 l 271 1143 l 372 1143 l 433 1051 l 494 1143 l 596 1143 l 489 975 l 383 975 z "},"Ż":{"ha":861,"x_min":83,"x_max":772,"o":"m 772 926 l 772 810 l 275 129 l 772 129 l 772 0 l 83 0 l 83 121 l 589 797 l 94 797 l 94 926 l 772 926 m 361 974 l 361 1096 l 496 1096 l 496 974 l 361 974 z "},"a":{"ha":781,"x_min":71,"x_max":678,"o":"m 404 713 q 598 658 518 713 q 676 481 678 603 l 676 147 q 593 16 676 53 q 356 -21 510 -21 q 151 31 232 -21 q 71 203 71 82 q 137 374 71 317 q 324 431 203 431 q 532 381 449 431 l 532 447 q 361 589 532 589 q 239 570 300 589 q 138 518 178 551 l 138 654 q 251 696 176 679 q 404 713 325 713 m 372 93 q 496 106 460 93 q 532 156 532 118 l 532 290 q 376 321 461 321 q 256 293 297 321 q 215 210 215 265 q 262 122 215 151 q 372 93 308 93 z "},"á":{"ha":781,"x_min":71,"x_max":676,"o":"m 404 713 q 598 658 518 713 q 676 481 678 603 l 676 147 q 593 16 676 53 q 356 -21 510 -21 q 151 31 232 -21 q 71 203 71 82 q 137 374 71 317 q 324 431 203 431 q 532 381 449 431 l 532 447 q 361 589 532 589 q 239 570 300 589 q 138 518 178 551 l 138 654 q 251 696 176 679 q 404 713 325 713 m 372 93 q 496 106 460 93 q 532 156 532 118 l 532 290 q 376 321 461 321 q 256 293 297 321 q 215 210 215 265 q 262 122 215 151 q 372 93 308 93 m 351 789 l 424 953 l 569 953 l 438 789 l 351 789 z "},"ă":{"ha":781,"x_min":71,"x_max":676,"o":"m 404 713 q 598 658 518 713 q 676 481 678 603 l 676 147 q 593 16 676 53 q 356 -21 510 -21 q 151 31 232 -21 q 71 203 71 82 q 137 374 71 317 q 324 431 203 431 q 532 381 449 431 l 532 447 q 361 589 532 589 q 239 570 300 589 q 138 518 178 551 l 138 654 q 251 696 176 679 q 404 713 325 713 m 372 93 q 496 106 460 93 q 532 156 532 118 l 532 290 q 376 321 461 321 q 256 293 297 321 q 215 210 215 265 q 262 122 215 151 q 372 93 308 93 m 400 765 q 269 810 319 765 q 203 935 219 854 l 293 935 q 334 874 307 897 q 400 851 361 851 q 506 935 474 851 l 596 935 q 533 810 585 856 q 400 765 481 765 z "},"ắ":{"ha":781,"x_min":71,"x_max":676,"o":"m 404 713 q 598 658 518 713 q 676 481 678 603 l 676 147 q 593 16 676 53 q 356 -21 510 -21 q 151 31 232 -21 q 71 203 71 82 q 137 374 71 317 q 324 431 203 431 q 532 381 449 431 l 532 447 q 361 589 532 589 q 239 570 300 589 q 138 518 178 551 l 138 654 q 251 696 176 679 q 404 713 325 713 m 372 93 q 496 106 460 93 q 532 156 532 118 l 532 290 q 376 321 461 321 q 256 293 297 321 q 215 210 215 265 q 262 122 215 151 q 372 93 308 93 m 400 765 q 269 810 319 765 q 203 935 219 854 l 293 935 q 334 874 307 897 q 400 851 361 851 q 506 935 474 851 l 596 935 q 533 810 585 856 q 400 765 481 765 m 349 960 l 415 1118 l 567 1118 l 431 960 l 349 960 z "},"ặ":{"ha":749,"x_min":71,"x_max":678,"o":"m 382 749 q 266 787 307 749 q 225 894 225 825 l 310 894 q 326 842 310 858 q 382 825 343 825 q 436 842 419 825 q 454 894 453 858 l 539 894 q 498 787 539 825 q 382 749 457 749 m 404 713 q 598 658 518 713 q 676 481 678 603 l 676 147 q 593 16 676 53 q 356 -21 510 -21 q 151 31 232 -21 q 71 203 71 82 q 137 374 71 317 q 324 431 203 431 q 532 381 449 431 l 532 447 q 361 589 532 589 q 239 570 300 589 q 138 518 178 551 l 138 654 q 251 696 176 679 q 404 713 325 713 m 372 93 q 496 106 460 93 q 532 156 532 118 l 532 290 q 376 321 461 321 q 256 293 297 321 q 215 210 215 265 q 262 122 215 151 q 372 93 308 93 m 326 -192 l 326 -69 l 453 -69 l 453 -192 l 326 -192 z "},"ằ":{"ha":781,"x_min":71,"x_max":676,"o":"m 404 713 q 598 658 518 713 q 676 481 678 603 l 676 147 q 593 16 676 53 q 356 -21 510 -21 q 151 31 232 -21 q 71 203 71 82 q 137 374 71 317 q 324 431 203 431 q 532 381 449 431 l 532 447 q 361 589 532 589 q 239 570 300 589 q 138 518 178 551 l 138 654 q 251 696 176 679 q 404 713 325 713 m 372 93 q 496 106 460 93 q 532 156 532 118 l 532 290 q 376 321 461 321 q 256 293 297 321 q 215 210 215 265 q 262 122 215 151 q 372 93 308 93 m 400 765 q 269 810 319 765 q 203 935 219 854 l 293 935 q 334 874 307 897 q 400 851 361 851 q 506 935 474 851 l 596 935 q 533 810 585 856 q 400 765 481 765 m 360 949 l 228 1113 l 372 1113 l 446 949 l 360 949 z "},"ẳ":{"ha":781,"x_min":71,"x_max":676,"o":"m 404 713 q 598 658 518 713 q 676 481 678 603 l 676 147 q 593 16 676 53 q 356 -21 510 -21 q 151 31 232 -21 q 71 203 71 82 q 137 374 71 317 q 324 431 203 431 q 532 381 449 431 l 532 447 q 361 589 532 589 q 239 570 300 589 q 138 518 178 551 l 138 654 q 251 696 176 679 q 404 713 325 713 m 372 93 q 496 106 460 93 q 532 156 532 118 l 532 290 q 376 321 461 321 q 256 293 297 321 q 215 210 215 265 q 262 122 215 151 q 372 93 308 93 m 392 765 q 261 810 311 765 q 194 935 211 854 l 285 935 q 326 874 299 897 q 392 851 353 851 q 497 935 465 851 l 588 935 q 524 810 576 856 q 392 765 472 765 m 353 1025 q 390 1035 376 1025 q 404 1058 404 1046 q 340 1093 404 1093 q 301 1089 322 1093 l 301 1158 q 361 1163 322 1163 q 461 1139 421 1163 q 501 1063 501 1115 q 482 1008 501 1029 q 425 982 463 988 l 425 950 l 353 950 l 353 1025 z "},"ẵ":{"ha":781,"x_min":71,"x_max":676,"o":"m 404 713 q 598 658 518 713 q 676 481 678 603 l 676 147 q 593 16 676 53 q 356 -21 510 -21 q 151 31 232 -21 q 71 203 71 82 q 137 374 71 317 q 324 431 203 431 q 532 381 449 431 l 532 447 q 361 589 532 589 q 239 570 300 589 q 138 518 178 551 l 138 654 q 251 696 176 679 q 404 713 325 713 m 372 93 q 496 106 460 93 q 532 156 532 118 l 532 290 q 376 321 461 321 q 256 293 297 321 q 215 210 215 265 q 262 122 215 151 q 372 93 308 93 m 400 765 q 269 810 319 765 q 203 935 219 854 l 293 935 q 334 874 307 897 q 400 851 361 851 q 506 935 474 851 l 596 935 q 533 810 585 856 q 400 765 481 765 m 182 982 q 179 1015 179 1004 q 217 1116 179 1076 q 307 1156 256 1156 q 367 1142 340 1156 q 428 1104 394 1129 q 470 1076 454 1085 q 504 1067 486 1067 q 535 1081 524 1067 q 546 1121 546 1094 q 544 1140 546 1133 l 628 1140 q 629 1117 629 1132 q 591 1015 629 1054 q 494 975 553 975 q 428 990 457 975 q 367 1029 399 1004 q 330 1055 343 1047 q 303 1063 317 1063 q 271 1047 283 1063 q 258 1003 258 1031 q 260 982 258 989 l 182 982 z "},"ǎ":{"ha":781,"x_min":71,"x_max":676,"o":"m 404 713 q 598 658 518 713 q 676 481 678 603 l 676 147 q 593 16 676 53 q 356 -21 510 -21 q 151 31 232 -21 q 71 203 71 82 q 137 374 71 317 q 324 431 203 431 q 532 381 449 431 l 532 447 q 361 589 532 589 q 239 570 300 589 q 138 518 178 551 l 138 654 q 251 696 176 679 q 404 713 325 713 m 372 93 q 496 106 460 93 q 532 156 532 118 l 532 290 q 376 321 461 321 q 256 293 297 321 q 215 210 215 265 q 262 122 215 151 q 372 93 308 93 m 349 796 l 236 964 l 338 964 l 399 872 l 460 964 l 561 964 l 454 796 l 349 796 z "},"â":{"ha":781,"x_min":71,"x_max":676,"o":"m 404 713 q 598 658 518 713 q 676 481 678 603 l 676 147 q 593 16 676 53 q 356 -21 510 -21 q 151 31 232 -21 q 71 203 71 82 q 137 374 71 317 q 324 431 203 431 q 532 381 449 431 l 532 447 q 361 589 532 589 q 239 570 300 589 q 138 518 178 551 l 138 654 q 251 696 176 679 q 404 713 325 713 m 372 93 q 496 106 460 93 q 532 156 532 118 l 532 290 q 376 321 461 321 q 256 293 297 321 q 215 210 215 265 q 262 122 215 151 q 372 93 308 93 m 228 792 l 344 960 l 465 960 l 581 792 l 485 792 l 404 882 l 324 792 l 228 792 z "},"ấ":{"ha":781,"x_min":71,"x_max":758,"o":"m 404 713 q 598 658 518 713 q 676 481 678 603 l 676 147 q 593 16 676 53 q 356 -21 510 -21 q 151 31 232 -21 q 71 203 71 82 q 137 374 71 317 q 324 431 203 431 q 532 381 449 431 l 532 447 q 361 589 532 589 q 239 570 300 589 q 138 518 178 551 l 138 654 q 251 696 176 679 q 404 713 325 713 m 372 93 q 496 106 460 93 q 532 156 532 118 l 532 290 q 376 321 461 321 q 256 293 297 321 q 215 210 215 265 q 262 122 215 151 q 372 93 308 93 m 226 783 l 343 951 l 464 951 l 579 783 l 483 783 l 403 874 l 322 783 l 226 783 m 540 885 l 607 1043 l 758 1043 l 622 885 l 540 885 z "},"ậ":{"ha":749,"x_min":71,"x_max":676,"o":"m 404 713 q 598 658 518 713 q 676 481 678 603 l 676 147 q 593 16 676 53 q 356 -21 510 -21 q 151 31 232 -21 q 71 203 71 82 q 137 374 71 317 q 324 431 203 431 q 532 381 449 431 l 532 447 q 361 589 532 589 q 239 570 300 589 q 138 518 178 551 l 138 654 q 251 696 176 679 q 404 713 325 713 m 372 93 q 496 106 460 93 q 532 156 532 118 l 532 290 q 376 321 461 321 q 256 293 297 321 q 215 210 215 265 q 262 122 215 151 q 372 93 308 93 m 328 -192 l 328 -69 l 454 -69 l 454 -192 l 328 -192 m 228 792 l 344 960 l 465 960 l 581 792 l 485 792 l 404 882 l 324 792 l 228 792 z "},"ầ":{"ha":781,"x_min":28,"x_max":676,"o":"m 404 713 q 598 658 518 713 q 676 481 678 603 l 676 147 q 593 16 676 53 q 356 -21 510 -21 q 151 31 232 -21 q 71 203 71 82 q 137 374 71 317 q 324 431 203 431 q 532 381 449 431 l 532 447 q 361 589 532 589 q 239 570 300 589 q 138 518 178 551 l 138 654 q 251 696 176 679 q 404 713 325 713 m 372 93 q 496 106 460 93 q 532 156 532 118 l 532 290 q 376 321 461 321 q 256 293 297 321 q 215 210 215 265 q 262 122 215 151 q 372 93 308 93 m 229 783 l 346 951 l 467 951 l 582 783 l 486 783 l 406 874 l 325 783 l 229 783 m 151 878 l 28 1036 l 165 1036 l 238 878 l 151 878 z "},"ẩ":{"ha":781,"x_min":71,"x_max":707,"o":"m 404 713 q 598 658 518 713 q 676 481 678 603 l 676 147 q 593 16 676 53 q 356 -21 510 -21 q 151 31 232 -21 q 71 203 71 82 q 137 374 71 317 q 324 431 203 431 q 532 381 449 431 l 532 447 q 361 589 532 589 q 239 570 300 589 q 138 518 178 551 l 138 654 q 251 696 176 679 q 404 713 325 713 m 372 93 q 496 106 460 93 q 532 156 532 118 l 532 290 q 376 321 461 321 q 256 293 297 321 q 215 210 215 265 q 262 122 215 151 q 372 93 308 93 m 214 783 l 331 951 l 451 951 l 567 783 l 471 783 l 390 874 l 310 783 l 214 783 m 558 936 q 596 947 582 936 q 610 969 610 957 q 546 1004 610 1004 q 507 1000 528 1004 l 507 1069 q 567 1074 528 1074 q 667 1050 626 1074 q 707 974 707 1026 q 688 919 707 940 q 631 893 668 899 l 631 861 l 558 861 l 558 936 z "},"ẫ":{"ha":781,"x_min":71,"x_max":676,"o":"m 404 713 q 598 658 518 713 q 676 481 678 603 l 676 147 q 593 16 676 53 q 356 -21 510 -21 q 151 31 232 -21 q 71 203 71 82 q 137 374 71 317 q 324 431 203 431 q 532 381 449 431 l 532 447 q 361 589 532 589 q 239 570 300 589 q 138 518 178 551 l 138 654 q 251 696 176 679 q 404 713 325 713 m 372 93 q 496 106 460 93 q 532 156 532 118 l 532 290 q 376 321 461 321 q 256 293 297 321 q 215 210 215 265 q 262 122 215 151 q 372 93 308 93 m 229 761 l 346 929 l 467 929 l 582 761 l 486 761 l 406 851 l 325 761 l 229 761 m 182 982 q 179 1015 179 1004 q 217 1116 179 1076 q 307 1156 256 1156 q 367 1142 340 1156 q 428 1104 394 1129 q 470 1076 454 1085 q 504 1067 486 1067 q 535 1081 524 1067 q 546 1121 546 1094 q 544 1140 546 1133 l 628 1140 q 629 1117 629 1132 q 591 1015 629 1054 q 494 975 553 975 q 428 990 457 975 q 367 1029 399 1004 q 330 1055 343 1047 q 303 1063 317 1063 q 271 1047 283 1063 q 258 1003 258 1031 q 260 982 258 989 l 182 982 z "},"ȁ":{"ha":781,"x_min":71,"x_max":676,"o":"m 404 713 q 598 658 518 713 q 676 481 678 603 l 676 147 q 593 16 676 53 q 356 -21 510 -21 q 151 31 232 -21 q 71 203 71 82 q 137 374 71 317 q 324 431 203 431 q 532 381 449 431 l 532 447 q 361 589 532 589 q 239 570 300 589 q 138 518 178 551 l 138 654 q 251 696 176 679 q 404 713 325 713 m 372 93 q 496 106 460 93 q 532 156 532 118 l 532 290 q 376 321 461 321 q 256 293 297 321 q 215 210 215 265 q 262 122 215 151 q 372 93 308 93 m 285 789 l 153 953 l 297 953 l 371 789 l 285 789 m 500 789 l 368 953 l 513 953 l 586 789 l 500 789 z "},"ä":{"ha":781,"x_min":71,"x_max":676,"o":"m 404 713 q 598 658 518 713 q 676 481 678 603 l 676 147 q 593 16 676 53 q 356 -21 510 -21 q 151 31 232 -21 q 71 203 71 82 q 137 374 71 317 q 324 431 203 431 q 532 381 449 431 l 532 447 q 361 589 532 589 q 239 570 300 589 q 138 518 178 551 l 138 654 q 251 696 176 679 q 404 713 325 713 m 372 93 q 496 106 460 93 q 532 156 532 118 l 532 290 q 376 321 461 321 q 256 293 297 321 q 215 210 215 265 q 262 122 215 151 q 372 93 308 93 m 221 793 l 221 915 l 361 915 l 361 793 l 221 793 m 449 793 l 449 915 l 588 915 l 588 793 l 449 793 z "},"ạ":{"ha":749,"x_min":71,"x_max":678,"o":"m 404 713 q 598 658 518 713 q 676 481 678 603 l 676 147 q 593 16 676 53 q 356 -21 510 -21 q 151 31 232 -21 q 71 203 71 82 q 137 374 71 317 q 324 431 203 431 q 532 381 449 431 l 532 447 q 361 589 532 589 q 239 570 300 589 q 138 518 178 551 l 138 654 q 251 696 176 679 q 404 713 325 713 m 372 93 q 496 106 460 93 q 532 156 532 118 l 532 290 q 376 321 461 321 q 256 293 297 321 q 215 210 215 265 q 262 122 215 151 q 372 93 308 93 m 328 -192 l 328 -69 l 454 -69 l 454 -192 l 328 -192 z "},"à":{"ha":781,"x_min":71,"x_max":676,"o":"m 404 713 q 598 658 518 713 q 676 481 678 603 l 676 147 q 593 16 676 53 q 356 -21 510 -21 q 151 31 232 -21 q 71 203 71 82 q 137 374 71 317 q 324 431 203 431 q 532 381 449 431 l 532 447 q 361 589 532 589 q 239 570 300 589 q 138 518 178 551 l 138 654 q 251 696 176 679 q 404 713 325 713 m 372 93 q 496 106 460 93 q 532 156 532 118 l 532 290 q 376 321 461 321 q 256 293 297 321 q 215 210 215 265 q 262 122 215 151 q 372 93 308 93 m 360 789 l 228 953 l 372 953 l 446 789 l 360 789 z "},"ả":{"ha":781,"x_min":71,"x_max":676,"o":"m 404 713 q 598 658 518 713 q 676 481 678 603 l 676 147 q 593 16 676 53 q 356 -21 510 -21 q 151 31 232 -21 q 71 203 71 82 q 137 374 71 317 q 324 431 203 431 q 532 381 449 431 l 532 447 q 361 589 532 589 q 239 570 300 589 q 138 518 178 551 l 138 654 q 251 696 176 679 q 404 713 325 713 m 372 93 q 496 106 460 93 q 532 156 532 118 l 532 290 q 376 321 461 321 q 256 293 297 321 q 215 210 215 265 q 262 122 215 151 q 372 93 308 93 m 361 857 q 399 867 385 857 q 413 890 413 878 q 349 925 413 925 q 310 921 331 925 l 310 990 q 369 994 331 994 q 469 971 429 994 q 510 894 510 947 q 490 840 510 861 q 433 814 471 819 l 433 782 l 361 782 l 361 857 z "},"ȃ":{"ha":781,"x_min":71,"x_max":676,"o":"m 404 713 q 598 658 518 713 q 676 481 678 603 l 676 147 q 593 16 676 53 q 356 -21 510 -21 q 151 31 232 -21 q 71 203 71 82 q 137 374 71 317 q 324 431 203 431 q 532 381 449 431 l 532 447 q 361 589 532 589 q 239 570 300 589 q 138 518 178 551 l 138 654 q 251 696 176 679 q 404 713 325 713 m 372 93 q 496 106 460 93 q 532 156 532 118 l 532 290 q 376 321 461 321 q 256 293 297 321 q 215 210 215 265 q 262 122 215 151 q 372 93 308 93 m 400 919 q 533 874 481 919 q 596 750 585 829 l 506 750 q 400 833 474 833 q 334 810 361 833 q 293 750 307 788 l 203 750 q 269 875 219 831 q 400 919 319 919 z "},"ā":{"ha":781,"x_min":71,"x_max":676,"o":"m 404 713 q 598 658 518 713 q 676 481 678 603 l 676 147 q 593 16 676 53 q 356 -21 510 -21 q 151 31 232 -21 q 71 203 71 82 q 137 374 71 317 q 324 431 203 431 q 532 381 449 431 l 532 447 q 361 589 532 589 q 239 570 300 589 q 138 518 178 551 l 138 654 q 251 696 176 679 q 404 713 325 713 m 372 93 q 496 106 460 93 q 532 156 532 118 l 532 290 q 376 321 461 321 q 256 293 297 321 q 215 210 215 265 q 262 122 215 151 q 372 93 308 93 m 222 799 l 222 897 l 572 897 l 572 799 l 222 799 z "},"ą":{"ha":781,"x_min":71,"x_max":678,"o":"m 404 713 q 598 658 518 713 q 676 481 678 603 l 676 147 q 564 4 676 43 q 494 -78 494 -40 q 506 -115 494 -104 q 542 -125 518 -125 q 625 -83 581 -125 l 625 -185 q 578 -205 601 -197 q 522 -212 556 -212 q 415 -181 453 -212 q 378 -90 378 -150 q 404 -19 378 -54 q 356 -21 388 -21 q 151 31 232 -21 q 71 203 71 82 q 137 374 71 317 q 324 431 203 431 q 532 381 449 431 l 532 447 q 361 589 532 589 q 239 570 300 589 q 138 518 178 551 l 138 654 q 251 696 176 679 q 404 713 325 713 m 215 210 q 262 122 215 151 q 372 93 308 93 q 496 106 460 93 q 532 156 532 118 l 532 290 q 376 321 461 321 q 256 293 297 321 q 215 210 215 265 z "},"å":{"ha":781,"x_min":71,"x_max":676,"o":"m 404 713 q 598 658 518 713 q 676 481 678 603 l 676 147 q 593 16 676 53 q 356 -21 510 -21 q 151 31 232 -21 q 71 203 71 82 q 137 374 71 317 q 324 431 203 431 q 532 381 449 431 l 532 447 q 361 589 532 589 q 239 570 300 589 q 138 518 178 551 l 138 654 q 251 696 176 679 q 404 713 325 713 m 372 93 q 496 106 460 93 q 532 156 532 118 l 532 290 q 376 321 461 321 q 256 293 297 321 q 215 210 215 265 q 262 122 215 151 q 372 93 308 93 m 400 756 q 285 788 322 756 q 249 885 249 819 q 285 982 249 950 q 400 1014 322 1014 q 551 885 551 1014 q 400 756 551 756 m 400 825 q 456 838 440 825 q 471 885 471 851 q 456 931 471 918 q 400 944 440 944 q 343 931 358 944 q 328 885 328 918 q 343 838 328 851 q 400 825 358 825 z "},"ǻ":{"ha":781,"x_min":71,"x_max":676,"o":"m 404 713 q 598 658 518 713 q 676 481 678 603 l 676 147 q 593 16 676 53 q 356 -21 510 -21 q 151 31 232 -21 q 71 203 71 82 q 137 374 71 317 q 324 431 203 431 q 532 381 449 431 l 532 447 q 361 589 532 589 q 239 570 300 589 q 138 518 178 551 l 138 654 q 251 696 176 679 q 404 713 325 713 m 372 93 q 496 106 460 93 q 532 156 532 118 l 532 290 q 376 321 461 321 q 256 293 297 321 q 215 210 215 265 q 262 122 215 151 q 372 93 308 93 m 400 756 q 285 788 322 756 q 249 885 249 819 q 285 982 249 950 q 400 1014 322 1014 q 551 885 551 1014 q 400 756 551 756 m 400 825 q 456 838 440 825 q 471 885 471 851 q 456 931 471 918 q 400 944 440 944 q 343 931 358 944 q 328 885 328 918 q 343 838 328 851 q 400 825 358 825 m 351 1079 l 424 1243 l 569 1243 l 438 1079 l 351 1079 z "},"ã":{"ha":781,"x_min":71,"x_max":676,"o":"m 404 713 q 598 658 518 713 q 676 481 678 603 l 676 147 q 593 16 676 53 q 356 -21 510 -21 q 151 31 232 -21 q 71 203 71 82 q 137 374 71 317 q 324 431 203 431 q 532 381 449 431 l 532 447 q 361 589 532 589 q 239 570 300 589 q 138 518 178 551 l 138 654 q 251 696 176 679 q 404 713 325 713 m 372 93 q 496 106 460 93 q 532 156 532 118 l 532 290 q 376 321 461 321 q 256 293 297 321 q 215 210 215 265 q 262 122 215 151 q 372 93 308 93 m 182 768 q 179 801 179 790 q 217 902 179 863 q 307 942 256 942 q 367 928 340 942 q 428 890 394 915 q 470 862 454 871 q 504 853 486 853 q 535 867 524 853 q 546 907 546 881 q 544 926 546 919 l 628 926 q 629 903 629 918 q 591 801 629 840 q 494 761 553 761 q 428 776 457 761 q 367 815 399 790 q 330 841 343 833 q 303 849 317 849 q 271 833 283 849 q 258 789 258 817 q 260 768 258 775 l 182 768 z "},"æ":{"ha":1235,"x_min":71,"x_max":1171,"o":"m 856 713 q 1095 608 1019 713 q 1168 315 1171 503 l 676 315 q 731 156 676 210 q 892 101 786 101 q 1015 118 957 101 q 1115 163 1072 135 l 1115 26 q 867 -25 1013 -25 q 726 -1 789 -25 q 619 67 663 22 q 360 -25 499 -25 q 149 28 226 -25 q 71 199 71 82 q 146 373 71 315 q 350 431 221 431 q 447 419 400 431 q 532 386 494 407 l 532 446 q 361 588 532 588 q 240 569 301 588 q 138 518 178 550 l 138 654 q 251 696 176 679 q 404 713 325 713 q 531 692 472 713 q 628 629 590 672 q 856 713 710 713 m 851 593 q 735 554 776 593 q 681 424 693 515 l 1019 424 q 970 552 1011 511 q 851 593 929 593 m 375 89 q 481 103 429 89 q 565 146 533 118 q 532 290 536 206 q 376 321 456 321 q 215 201 215 321 q 261 117 215 146 q 375 89 307 89 z "},"ǽ":{"ha":1235,"x_min":71,"x_max":1168,"o":"m 856 713 q 1095 608 1019 713 q 1168 315 1171 503 l 676 315 q 731 156 676 210 q 892 101 786 101 q 1015 118 957 101 q 1115 163 1072 135 l 1115 26 q 867 -25 1013 -25 q 726 -1 789 -25 q 619 67 663 22 q 360 -25 499 -25 q 149 28 226 -25 q 71 199 71 82 q 146 373 71 315 q 350 431 221 431 q 447 419 400 431 q 532 386 494 407 l 532 446 q 361 588 532 588 q 240 569 301 588 q 138 518 178 550 l 138 654 q 251 696 176 679 q 404 713 325 713 q 531 692 472 713 q 628 629 590 672 q 856 713 710 713 m 851 593 q 735 554 776 593 q 681 424 693 515 l 1019 424 q 970 552 1011 511 q 851 593 929 593 m 375 89 q 481 103 429 89 q 565 146 533 118 q 532 290 536 206 q 376 321 456 321 q 215 201 215 321 q 261 117 215 146 q 375 89 307 89 m 576 785 l 649 949 l 794 949 l 663 785 l 576 785 z "},"b":{"ha":810,"x_min":103,"x_max":743,"o":"m 426 713 q 663 619 582 713 q 743 356 743 526 q 647 65 743 150 q 401 -21 550 -21 q 103 138 103 -21 l 103 976 l 247 976 l 247 669 q 338 701 288 689 q 426 713 389 713 m 390 106 q 549 171 504 106 q 594 350 594 236 q 547 528 594 467 q 404 589 499 589 q 323 578 365 589 q 247 549 281 568 l 247 174 q 390 106 247 106 z "},"c":{"ha":689,"x_min":67,"x_max":624,"o":"m 410 -14 q 165 71 263 -14 q 67 344 67 156 q 163 626 67 539 q 408 713 260 713 q 622 671 521 713 l 622 540 q 429 585 517 585 q 265 530 319 585 q 211 356 211 475 q 264 173 211 231 q 433 115 317 115 q 624 161 528 115 l 624 31 q 410 -14 524 -14 z "},"ć":{"ha":689,"x_min":67,"x_max":624,"o":"m 410 -14 q 165 71 263 -14 q 67 344 67 156 q 163 626 67 539 q 408 713 260 713 q 622 671 521 713 l 622 540 q 429 585 517 585 q 265 530 319 585 q 211 356 211 475 q 264 173 211 231 q 433 115 317 115 q 624 161 528 115 l 624 31 q 410 -14 524 -14 m 335 785 l 407 949 l 553 949 l 421 785 l 335 785 z "},"č":{"ha":689,"x_min":67,"x_max":624,"o":"m 410 -14 q 165 71 263 -14 q 67 344 67 156 q 163 626 67 539 q 408 713 260 713 q 622 671 521 713 l 622 540 q 429 585 517 585 q 265 530 319 585 q 211 356 211 475 q 264 173 211 231 q 433 115 317 115 q 624 161 528 115 l 624 31 q 410 -14 524 -14 m 332 792 l 219 960 l 321 960 l 382 868 l 443 960 l 544 960 l 438 792 l 332 792 z "},"ç":{"ha":689,"x_min":67,"x_max":624,"o":"m 624 31 q 456 -12 546 -4 l 378 -175 l 238 -175 l 353 -11 q 147 90 226 4 q 67 344 67 175 q 163 626 67 539 q 408 713 260 713 q 622 671 521 713 l 622 540 q 429 585 517 585 q 265 530 319 585 q 211 356 211 475 q 264 173 211 231 q 433 115 317 115 q 624 161 528 115 l 624 31 z "},"ḉ":{"ha":689,"x_min":67,"x_max":624,"o":"m 553 949 l 421 785 l 335 785 l 407 949 l 553 949 m 624 31 q 456 -12 546 -4 l 378 -175 l 238 -175 l 353 -11 q 147 90 226 4 q 67 344 67 175 q 163 626 67 539 q 408 713 260 713 q 622 671 521 713 l 622 540 q 429 585 517 585 q 265 530 319 585 q 211 356 211 475 q 264 173 211 231 q 433 115 317 115 q 624 161 528 115 l 624 31 z "},"ĉ":{"ha":689,"x_min":67,"x_max":624,"o":"m 410 -14 q 165 71 263 -14 q 67 344 67 156 q 163 626 67 539 q 408 713 260 713 q 622 671 521 713 l 622 540 q 429 585 517 585 q 265 530 319 585 q 211 356 211 475 q 264 173 211 231 q 433 115 317 115 q 624 161 528 115 l 624 31 q 410 -14 524 -14 m 211 788 l 328 956 l 449 956 l 564 788 l 468 788 l 388 878 l 307 788 l 211 788 z "},"ċ":{"ha":689,"x_min":67,"x_max":624,"o":"m 410 -14 q 165 71 263 -14 q 67 344 67 156 q 163 626 67 539 q 408 713 260 713 q 622 671 521 713 l 622 540 q 429 585 517 585 q 265 530 319 585 q 211 356 211 475 q 264 173 211 231 q 433 115 317 115 q 624 161 528 115 l 624 31 q 410 -14 524 -14 m 310 785 l 310 907 l 444 907 l 444 785 l 310 785 z "},"d":{"ha":814,"x_min":67,"x_max":711,"o":"m 711 989 l 711 147 q 665 53 711 92 q 550 -3 619 15 q 407 -21 481 -21 q 163 63 258 -21 q 67 357 67 147 q 149 619 67 525 q 392 714 231 714 q 478 704 429 714 q 567 675 528 694 l 567 989 l 711 989 m 567 549 q 492 578 533 568 q 413 589 451 589 q 215 354 215 589 q 260 172 215 238 q 415 106 304 106 q 523 121 479 106 q 567 161 567 136 l 567 549 z "},"ð":{"ha":797,"x_min":67,"x_max":726,"o":"m 576 817 q 726 392 726 618 q 644 83 726 190 q 401 -25 563 -25 q 150 69 233 -25 q 67 346 67 163 q 145 619 67 525 q 369 713 224 713 q 517 671 456 713 q 431 790 479 735 l 253 760 l 233 854 l 346 874 q 239 956 292 918 l 239 961 l 436 961 q 504 900 471 933 l 654 925 l 674 833 l 576 817 m 400 99 q 500 124 460 99 q 563 217 540 150 q 586 401 585 283 q 569 536 586 474 q 494 584 538 567 q 400 601 450 601 q 211 346 211 601 q 256 161 211 224 q 400 99 301 99 z "},"ď":{"ha":888,"x_min":67,"x_max":1000,"o":"m 711 989 l 711 147 q 665 53 711 92 q 550 -3 619 15 q 407 -21 481 -21 q 163 63 258 -21 q 67 357 67 147 q 149 619 67 525 q 392 714 231 714 q 478 704 429 714 q 567 675 528 694 l 567 989 l 711 989 m 567 549 q 492 578 533 568 q 413 589 451 589 q 215 354 215 589 q 260 172 215 238 q 415 106 304 106 q 523 121 479 106 q 567 161 567 136 l 567 549 m 760 708 l 863 981 l 1000 981 l 879 708 l 760 708 z "},"đ":{"ha":814,"x_min":67,"x_max":799,"o":"m 799 789 l 711 789 l 711 147 q 665 53 711 92 q 550 -3 619 15 q 407 -21 481 -21 q 163 63 258 -21 q 67 357 67 147 q 149 619 67 525 q 392 714 231 714 q 478 704 429 714 q 567 675 528 694 l 567 789 l 426 789 l 426 886 l 567 886 l 567 989 l 711 989 l 711 886 l 799 886 l 799 789 m 567 549 q 492 578 533 568 q 413 589 451 589 q 215 354 215 589 q 260 172 215 238 q 415 106 304 106 q 523 121 479 106 q 567 161 567 136 l 567 549 z "},"ḏ":{"ha":814,"x_min":67,"x_max":711,"o":"m 711 989 l 711 147 q 665 53 711 92 q 550 -3 619 15 q 407 -21 481 -21 q 163 63 258 -21 q 67 357 67 147 q 149 619 67 525 q 392 714 231 714 q 478 704 429 714 q 567 675 528 694 l 567 989 l 711 989 m 567 549 q 492 578 533 568 q 413 589 451 589 q 215 354 215 589 q 260 172 215 238 q 415 106 304 106 q 523 121 479 106 q 567 161 567 136 l 567 549 m 246 -181 l 246 -82 l 596 -82 l 596 -181 l 246 -181 z "},"ǆ":{"ha":1468,"x_min":67,"x_max":1406,"o":"m 711 989 l 711 147 q 665 53 711 92 q 550 -3 619 15 q 407 -21 481 -21 q 163 63 258 -21 q 67 357 67 147 q 149 619 67 525 q 392 714 231 714 q 478 704 429 714 q 567 675 528 694 l 567 989 l 711 989 m 567 549 q 492 578 533 568 q 413 589 451 589 q 215 354 215 589 q 260 172 215 238 q 415 106 304 106 q 523 121 479 106 q 567 161 567 136 l 567 549 m 1406 697 l 1406 578 l 1051 122 l 1406 122 l 1406 0 l 876 0 l 876 122 l 1244 582 l 885 582 l 885 697 l 1406 697 m 1094 783 l 982 951 l 1083 951 l 1144 860 l 1206 951 l 1307 951 l 1200 783 l 1094 783 z "},"e":{"ha":768,"x_min":67,"x_max":704,"o":"m 390 714 q 628 609 553 714 q 703 315 704 504 l 214 315 q 274 159 221 213 q 426 106 328 106 q 549 122 490 106 q 651 163 607 138 l 651 26 q 403 -21 543 -21 q 156 74 246 -21 q 67 344 67 169 q 151 619 67 524 q 390 714 236 714 m 386 594 q 271 556 313 594 q 217 424 229 517 l 554 424 q 504 553 544 513 q 386 594 464 594 z "},"é":{"ha":768,"x_min":67,"x_max":703,"o":"m 390 714 q 628 609 553 714 q 703 315 704 504 l 214 315 q 274 159 221 213 q 426 106 328 106 q 549 122 490 106 q 651 163 607 138 l 651 26 q 403 -21 543 -21 q 156 74 246 -21 q 67 344 67 169 q 151 619 67 524 q 390 714 236 714 m 386 594 q 271 556 313 594 q 217 424 229 517 l 554 424 q 504 553 544 513 q 386 594 464 594 m 347 785 l 419 949 l 565 949 l 433 785 l 347 785 z "},"ĕ":{"ha":768,"x_min":67,"x_max":703,"o":"m 390 714 q 628 609 553 714 q 703 315 704 504 l 214 315 q 274 159 221 213 q 426 106 328 106 q 549 122 490 106 q 651 163 607 138 l 651 26 q 403 -21 543 -21 q 156 74 246 -21 q 67 344 67 169 q 151 619 67 524 q 390 714 236 714 m 386 594 q 271 556 313 594 q 217 424 229 517 l 554 424 q 504 553 544 513 q 386 594 464 594 m 396 761 q 265 806 315 761 q 199 931 215 850 l 289 931 q 330 870 303 893 q 396 847 357 847 q 501 931 469 847 l 592 931 q 528 806 581 851 q 396 761 476 761 z "},"ě":{"ha":768,"x_min":67,"x_max":703,"o":"m 390 714 q 628 609 553 714 q 703 315 704 504 l 214 315 q 274 159 221 213 q 426 106 328 106 q 549 122 490 106 q 651 163 607 138 l 651 26 q 403 -21 543 -21 q 156 74 246 -21 q 67 344 67 169 q 151 619 67 524 q 390 714 236 714 m 386 594 q 271 556 313 594 q 217 424 229 517 l 554 424 q 504 553 544 513 q 386 594 464 594 m 344 792 l 232 960 l 333 960 l 394 868 l 456 960 l 557 960 l 450 792 l 344 792 z "},"ḝ":{"ha":768,"x_min":67,"x_max":704,"o":"m 396 761 q 265 806 315 761 q 199 931 215 850 l 289 931 q 330 870 303 893 q 396 847 357 847 q 501 931 469 847 l 592 931 q 528 806 581 851 q 396 761 476 761 m 390 714 q 628 609 553 714 q 703 315 704 504 l 214 315 q 274 159 221 213 q 426 106 328 106 q 549 122 490 106 q 651 163 607 138 l 651 26 q 508 -14 586 -1 l 431 -175 l 290 -175 l 399 -21 q 156 76 244 -19 q 67 344 67 171 q 151 619 67 524 q 390 714 236 714 m 386 594 q 271 556 313 594 q 217 424 229 517 l 554 424 q 504 553 544 513 q 386 594 464 594 z "},"ê":{"ha":768,"x_min":67,"x_max":703,"o":"m 390 714 q 628 609 553 714 q 703 315 704 504 l 214 315 q 274 159 221 213 q 426 106 328 106 q 549 122 490 106 q 651 163 607 138 l 651 26 q 403 -21 543 -21 q 156 74 246 -21 q 67 344 67 169 q 151 619 67 524 q 390 714 236 714 m 386 594 q 271 556 313 594 q 217 424 229 517 l 554 424 q 504 553 544 513 q 386 594 464 594 m 224 788 l 340 956 l 461 956 l 576 788 l 481 788 l 400 878 l 319 788 l 224 788 z "},"ế":{"ha":768,"x_min":67,"x_max":754,"o":"m 390 714 q 628 609 553 714 q 703 315 704 504 l 214 315 q 274 159 221 213 q 426 106 328 106 q 549 122 490 106 q 651 163 607 138 l 651 26 q 403 -21 543 -21 q 156 74 246 -21 q 67 344 67 169 q 151 619 67 524 q 390 714 236 714 m 386 594 q 271 556 313 594 q 217 424 229 517 l 554 424 q 504 553 544 513 q 386 594 464 594 m 222 779 l 339 947 l 460 947 l 575 779 l 479 779 l 399 869 l 318 779 l 222 779 m 536 881 l 603 1039 l 754 1039 l 618 881 l 536 881 z "},"ệ":{"ha":768,"x_min":67,"x_max":703,"o":"m 390 714 q 628 609 553 714 q 703 315 704 504 l 214 315 q 274 159 221 213 q 426 106 328 106 q 549 122 490 106 q 651 163 607 138 l 651 26 q 403 -21 543 -21 q 156 74 246 -21 q 67 344 67 169 q 151 619 67 524 q 390 714 236 714 m 386 594 q 271 556 313 594 q 217 424 229 517 l 554 424 q 504 553 544 513 q 386 594 464 594 m 224 788 l 340 956 l 461 956 l 576 788 l 481 788 l 400 878 l 319 788 l 224 788 m 336 -192 l 336 -69 l 463 -69 l 463 -192 l 336 -192 z "},"ề":{"ha":768,"x_min":24,"x_max":703,"o":"m 390 714 q 628 609 553 714 q 703 315 704 504 l 214 315 q 274 159 221 213 q 426 106 328 106 q 549 122 490 106 q 651 163 607 138 l 651 26 q 403 -21 543 -21 q 156 74 246 -21 q 67 344 67 169 q 151 619 67 524 q 390 714 236 714 m 386 594 q 271 556 313 594 q 217 424 229 517 l 554 424 q 504 553 544 513 q 386 594 464 594 m 225 779 l 342 947 l 463 947 l 578 779 l 482 779 l 401 869 l 321 779 l 225 779 m 147 874 l 24 1032 l 161 1032 l 233 874 l 147 874 z "},"ể":{"ha":768,"x_min":67,"x_max":703,"o":"m 390 714 q 628 609 553 714 q 703 315 704 504 l 214 315 q 274 159 221 213 q 426 106 328 106 q 549 122 490 106 q 651 163 607 138 l 651 26 q 403 -21 543 -21 q 156 74 246 -21 q 67 344 67 169 q 151 619 67 524 q 390 714 236 714 m 386 594 q 271 556 313 594 q 217 424 229 517 l 554 424 q 504 553 544 513 q 386 594 464 594 m 210 779 l 326 947 l 447 947 l 563 779 l 467 779 l 386 869 l 306 779 l 210 779 m 554 932 q 592 942 578 932 q 606 965 606 953 q 542 1000 606 1000 q 503 996 524 1000 l 503 1065 q 563 1069 524 1069 q 663 1046 622 1069 q 703 969 703 1022 q 683 915 703 936 q 626 889 664 894 l 626 857 l 554 857 l 554 932 z "},"ễ":{"ha":768,"x_min":67,"x_max":703,"o":"m 390 714 q 628 609 553 714 q 703 315 704 504 l 214 315 q 274 159 221 213 q 426 106 328 106 q 549 122 490 106 q 651 163 607 138 l 651 26 q 403 -21 543 -21 q 156 74 246 -21 q 67 344 67 169 q 151 619 67 524 q 390 714 236 714 m 386 594 q 271 556 313 594 q 217 424 229 517 l 554 424 q 504 553 544 513 q 386 594 464 594 m 225 757 l 342 925 l 463 925 l 578 757 l 482 757 l 401 847 l 321 757 l 225 757 m 178 978 q 175 1011 175 1000 q 213 1112 175 1072 q 303 1151 251 1151 q 363 1138 336 1151 q 424 1100 390 1125 q 466 1072 450 1081 q 500 1063 482 1063 q 531 1076 519 1063 q 542 1117 542 1090 q 540 1136 542 1129 l 624 1136 q 625 1113 625 1128 q 587 1010 625 1050 q 490 971 549 971 q 424 985 453 971 q 363 1025 394 1000 q 326 1051 339 1043 q 299 1058 313 1058 q 267 1042 279 1058 q 254 999 254 1026 q 256 978 254 985 l 178 978 z "},"ȅ":{"ha":768,"x_min":67,"x_max":703,"o":"m 390 714 q 628 609 553 714 q 703 315 704 504 l 214 315 q 274 159 221 213 q 426 106 328 106 q 549 122 490 106 q 651 163 607 138 l 651 26 q 403 -21 543 -21 q 156 74 246 -21 q 67 344 67 169 q 151 619 67 524 q 390 714 236 714 m 386 594 q 271 556 313 594 q 217 424 229 517 l 554 424 q 504 553 544 513 q 386 594 464 594 m 281 785 l 149 949 l 293 949 l 367 785 l 281 785 m 496 785 l 364 949 l 508 949 l 582 785 l 496 785 z "},"ë":{"ha":768,"x_min":67,"x_max":703,"o":"m 390 714 q 628 609 553 714 q 703 315 704 504 l 214 315 q 274 159 221 213 q 426 106 328 106 q 549 122 490 106 q 651 163 607 138 l 651 26 q 403 -21 543 -21 q 156 74 246 -21 q 67 344 67 169 q 151 619 67 524 q 390 714 236 714 m 386 594 q 271 556 313 594 q 217 424 229 517 l 554 424 q 504 553 544 513 q 386 594 464 594 m 217 789 l 217 911 l 357 911 l 357 789 l 217 789 m 444 789 l 444 911 l 583 911 l 583 789 l 444 789 z "},"ė":{"ha":768,"x_min":67,"x_max":703,"o":"m 390 714 q 628 609 553 714 q 703 315 704 504 l 214 315 q 274 159 221 213 q 426 106 328 106 q 549 122 490 106 q 651 163 607 138 l 651 26 q 403 -21 543 -21 q 156 74 246 -21 q 67 344 67 169 q 151 619 67 524 q 390 714 236 714 m 386 594 q 271 556 313 594 q 217 424 229 517 l 554 424 q 504 553 544 513 q 386 594 464 594 m 322 785 l 322 907 l 457 907 l 457 785 l 322 785 z "},"ẹ":{"ha":768,"x_min":67,"x_max":703,"o":"m 390 714 q 628 609 553 714 q 703 315 704 504 l 214 315 q 274 159 221 213 q 426 106 328 106 q 549 122 490 106 q 651 163 607 138 l 651 26 q 403 -21 543 -21 q 156 74 246 -21 q 67 344 67 169 q 151 619 67 524 q 390 714 236 714 m 386 594 q 271 556 313 594 q 217 424 229 517 l 554 424 q 504 553 544 513 q 386 594 464 594 m 336 -192 l 336 -69 l 463 -69 l 463 -192 l 336 -192 z "},"è":{"ha":768,"x_min":67,"x_max":703,"o":"m 390 714 q 628 609 553 714 q 703 315 704 504 l 214 315 q 274 159 221 213 q 426 106 328 106 q 549 122 490 106 q 651 163 607 138 l 651 26 q 403 -21 543 -21 q 156 74 246 -21 q 67 344 67 169 q 151 619 67 524 q 390 714 236 714 m 386 594 q 271 556 313 594 q 217 424 229 517 l 554 424 q 504 553 544 513 q 386 594 464 594 m 356 785 l 224 949 l 368 949 l 442 785 l 356 785 z "},"ẻ":{"ha":768,"x_min":67,"x_max":703,"o":"m 390 714 q 628 609 553 714 q 703 315 704 504 l 214 315 q 274 159 221 213 q 426 106 328 106 q 549 122 490 106 q 651 163 607 138 l 651 26 q 403 -21 543 -21 q 156 74 246 -21 q 67 344 67 169 q 151 619 67 524 q 390 714 236 714 m 386 594 q 271 556 313 594 q 217 424 229 517 l 554 424 q 504 553 544 513 q 386 594 464 594 m 357 853 q 394 863 381 853 q 408 886 408 874 q 344 921 408 921 q 306 917 326 921 l 306 986 q 365 990 326 990 q 465 967 425 990 q 506 890 506 943 q 486 836 506 857 q 429 810 467 815 l 429 778 l 357 778 l 357 853 z "},"ȇ":{"ha":768,"x_min":67,"x_max":703,"o":"m 390 714 q 628 609 553 714 q 703 315 704 504 l 214 315 q 274 159 221 213 q 426 106 328 106 q 549 122 490 106 q 651 163 607 138 l 651 26 q 403 -21 543 -21 q 156 74 246 -21 q 67 344 67 169 q 151 619 67 524 q 390 714 236 714 m 386 594 q 271 556 313 594 q 217 424 229 517 l 554 424 q 504 553 544 513 q 386 594 464 594 m 396 915 q 528 870 476 915 q 592 746 581 825 l 501 746 q 396 829 469 829 q 330 806 357 829 q 289 746 303 783 l 199 746 q 265 871 215 826 q 396 915 315 915 z "},"ē":{"ha":768,"x_min":67,"x_max":703,"o":"m 390 714 q 628 609 553 714 q 703 315 704 504 l 214 315 q 274 159 221 213 q 426 106 328 106 q 549 122 490 106 q 651 163 607 138 l 651 26 q 403 -21 543 -21 q 156 74 246 -21 q 67 344 67 169 q 151 619 67 524 q 390 714 236 714 m 386 594 q 271 556 313 594 q 217 424 229 517 l 554 424 q 504 553 544 513 q 386 594 464 594 m 218 794 l 218 893 l 568 893 l 568 794 l 218 794 z "},"ḗ":{"ha":768,"x_min":67,"x_max":703,"o":"m 390 714 q 628 609 553 714 q 703 315 704 504 l 214 315 q 274 159 221 213 q 426 106 328 106 q 549 122 490 106 q 651 163 607 138 l 651 26 q 403 -21 543 -21 q 156 74 246 -21 q 67 344 67 169 q 151 619 67 524 q 390 714 236 714 m 386 594 q 271 556 313 594 q 217 424 229 517 l 554 424 q 504 553 544 513 q 386 594 464 594 m 218 794 l 218 893 l 568 893 l 568 794 l 218 794 m 347 972 l 419 1136 l 565 1136 l 433 972 l 347 972 z "},"ḕ":{"ha":768,"x_min":67,"x_max":703,"o":"m 390 714 q 628 609 553 714 q 703 315 704 504 l 214 315 q 274 159 221 213 q 426 106 328 106 q 549 122 490 106 q 651 163 607 138 l 651 26 q 403 -21 543 -21 q 156 74 246 -21 q 67 344 67 169 q 151 619 67 524 q 390 714 236 714 m 386 594 q 271 556 313 594 q 217 424 229 517 l 554 424 q 504 553 544 513 q 386 594 464 594 m 218 794 l 218 893 l 568 893 l 568 794 l 218 794 m 356 972 l 224 1136 l 368 1136 l 442 972 l 356 972 z "},"ę":{"ha":768,"x_min":67,"x_max":704,"o":"m 390 714 q 628 609 553 714 q 703 315 704 504 l 214 315 q 274 159 221 213 q 426 106 328 106 q 549 122 490 106 q 651 163 607 138 l 651 26 q 610 11 621 14 q 510 -89 510 -42 q 522 -126 510 -115 q 557 -136 533 -136 q 640 -94 596 -136 l 640 -196 q 594 -216 617 -208 q 538 -224 571 -224 q 431 -192 468 -224 q 393 -101 393 -161 q 428 -21 393 -60 l 403 -21 q 156 74 246 -21 q 67 344 67 169 q 151 619 67 524 q 390 714 236 714 m 386 594 q 271 556 313 594 q 217 424 229 517 l 554 424 q 504 553 544 513 q 386 594 464 594 z "},"ẽ":{"ha":768,"x_min":67,"x_max":703,"o":"m 390 714 q 628 609 553 714 q 703 315 704 504 l 214 315 q 274 159 221 213 q 426 106 328 106 q 549 122 490 106 q 651 163 607 138 l 651 26 q 403 -21 543 -21 q 156 74 246 -21 q 67 344 67 169 q 151 619 67 524 q 390 714 236 714 m 386 594 q 271 556 313 594 q 217 424 229 517 l 554 424 q 504 553 544 513 q 386 594 464 594 m 178 764 q 175 797 175 786 q 213 898 175 858 q 303 938 251 938 q 363 924 336 938 q 424 886 390 911 q 466 858 450 867 q 500 849 482 849 q 531 863 519 849 q 542 903 542 876 q 540 922 542 915 l 624 922 q 625 899 625 914 q 587 797 625 836 q 490 757 549 757 q 424 772 453 757 q 363 811 394 786 q 326 837 339 829 q 299 844 313 844 q 267 828 279 844 q 254 785 254 813 q 256 764 254 771 l 178 764 z "},"ə":{"ha":768,"x_min":64,"x_max":701,"o":"m 365 714 q 612 619 522 714 q 701 349 701 524 q 617 74 701 169 q 378 -21 532 -21 q 140 84 215 -21 q 65 378 64 189 l 554 378 q 494 534 547 481 q 342 588 442 588 q 219 572 278 588 q 117 531 161 556 l 117 667 q 365 714 225 714 m 382 99 q 497 138 456 99 q 551 269 539 176 l 214 269 q 264 140 224 181 q 382 99 304 99 z "},"f":{"ha":532,"x_min":50,"x_max":483,"o":"m 161 576 l 50 576 l 50 697 l 163 697 l 163 725 q 234 939 163 886 q 406 992 306 992 q 483 982 444 992 l 483 853 q 454 865 467 861 q 424 869 442 869 q 365 861 389 869 q 324 824 340 853 q 308 738 308 796 l 308 697 l 483 697 l 483 576 l 307 576 l 307 0 l 161 0 l 161 576 z "},"g":{"ha":804,"x_min":67,"x_max":706,"o":"m 433 713 q 628 667 551 713 q 706 532 706 621 l 706 -21 q 628 -215 706 -140 q 381 -290 550 -290 q 156 -253 257 -290 l 156 -119 q 369 -162 271 -162 q 521 -123 481 -162 q 561 -18 561 -83 l 561 29 q 473 -7 521 7 q 379 -21 425 -21 q 147 72 226 -18 q 67 329 67 163 q 167 629 67 546 q 433 713 267 713 m 215 333 q 263 162 215 225 q 403 99 310 99 q 561 139 493 99 l 561 504 q 524 571 561 553 q 425 589 488 589 q 261 521 307 589 q 215 333 215 453 z "},"ğ":{"ha":804,"x_min":67,"x_max":706,"o":"m 433 713 q 628 667 551 713 q 706 532 706 621 l 706 -21 q 628 -215 706 -140 q 381 -290 550 -290 q 156 -253 257 -290 l 156 -119 q 369 -162 271 -162 q 521 -123 481 -162 q 561 -18 561 -83 l 561 29 q 473 -7 521 7 q 379 -21 425 -21 q 147 72 226 -18 q 67 329 67 163 q 167 629 67 546 q 433 713 267 713 m 215 333 q 263 162 215 225 q 403 99 310 99 q 561 139 493 99 l 561 504 q 524 571 561 553 q 425 589 488 589 q 261 521 307 589 q 215 333 215 453 m 442 765 q 311 810 361 765 q 244 935 261 854 l 335 935 q 376 874 349 897 q 442 851 403 851 q 547 935 515 851 l 638 935 q 574 810 626 856 q 442 765 522 765 z "},"ǧ":{"ha":804,"x_min":67,"x_max":706,"o":"m 433 713 q 628 667 551 713 q 706 532 706 621 l 706 -21 q 628 -215 706 -140 q 381 -290 550 -290 q 156 -253 257 -290 l 156 -119 q 369 -162 271 -162 q 521 -123 481 -162 q 561 -18 561 -83 l 561 29 q 473 -7 521 7 q 379 -21 425 -21 q 147 72 226 -18 q 67 329 67 163 q 167 629 67 546 q 433 713 267 713 m 215 333 q 263 162 215 225 q 403 99 310 99 q 561 139 493 99 l 561 504 q 524 571 561 553 q 425 589 488 589 q 261 521 307 589 q 215 333 215 453 m 390 796 l 278 964 l 379 964 l 440 872 l 501 964 l 603 964 l 496 796 l 390 796 z "},"ĝ":{"ha":804,"x_min":67,"x_max":706,"o":"m 433 713 q 628 667 551 713 q 706 532 706 621 l 706 -21 q 628 -215 706 -140 q 381 -290 550 -290 q 156 -253 257 -290 l 156 -119 q 369 -162 271 -162 q 521 -123 481 -162 q 561 -18 561 -83 l 561 29 q 473 -7 521 7 q 379 -21 425 -21 q 147 72 226 -18 q 67 329 67 163 q 167 629 67 546 q 433 713 267 713 m 215 333 q 263 162 215 225 q 403 99 310 99 q 561 139 493 99 l 561 504 q 524 571 561 553 q 425 589 488 589 q 261 521 307 589 q 215 333 215 453 m 269 792 l 386 960 l 507 960 l 622 792 l 526 792 l 446 882 l 365 792 l 269 792 z "},"ģ":{"ha":804,"x_min":67,"x_max":706,"o":"m 361 774 q 408 915 360 864 q 531 974 457 965 l 531 890 q 486 849 497 879 q 476 774 475 818 l 361 774 m 433 713 q 628 667 551 713 q 706 532 706 621 l 706 -21 q 628 -215 706 -140 q 381 -290 550 -290 q 156 -253 257 -290 l 156 -119 q 369 -162 271 -162 q 521 -123 481 -162 q 561 -18 561 -83 l 561 29 q 473 -7 521 7 q 379 -21 425 -21 q 147 72 226 -18 q 67 329 67 163 q 167 629 67 546 q 433 713 267 713 m 215 333 q 263 162 215 225 q 403 99 310 99 q 561 139 493 99 l 561 504 q 524 571 561 553 q 425 589 488 589 q 261 521 307 589 q 215 333 215 453 z "},"ġ":{"ha":804,"x_min":67,"x_max":706,"o":"m 433 713 q 628 667 551 713 q 706 532 706 621 l 706 -21 q 628 -215 706 -140 q 381 -290 550 -290 q 156 -253 257 -290 l 156 -119 q 369 -162 271 -162 q 521 -123 481 -162 q 561 -18 561 -83 l 561 29 q 473 -7 521 7 q 379 -21 425 -21 q 147 72 226 -18 q 67 329 67 163 q 167 629 67 546 q 433 713 267 713 m 215 333 q 263 162 215 225 q 403 99 310 99 q 561 139 493 99 l 561 504 q 524 571 561 553 q 425 589 488 589 q 261 521 307 589 q 215 333 215 453 m 368 789 l 368 911 l 503 911 l 503 789 l 368 789 z "},"ḡ":{"ha":804,"x_min":67,"x_max":706,"o":"m 433 713 q 628 667 551 713 q 706 532 706 621 l 706 -21 q 628 -215 706 -140 q 381 -290 550 -290 q 156 -253 257 -290 l 156 -119 q 369 -162 271 -162 q 521 -123 481 -162 q 561 -18 561 -83 l 561 29 q 473 -7 521 7 q 379 -21 425 -21 q 147 72 226 -18 q 67 329 67 163 q 167 629 67 546 q 433 713 267 713 m 215 333 q 263 162 215 225 q 403 99 310 99 q 561 139 493 99 l 561 504 q 524 571 561 553 q 425 589 488 589 q 261 521 307 589 q 215 333 215 453 m 264 799 l 264 897 l 614 897 l 614 799 l 264 799 z "},"h":{"ha":821,"x_min":103,"x_max":718,"o":"m 454 713 q 718 432 718 713 l 718 0 l 572 0 l 572 414 q 532 543 572 499 q 413 588 492 588 q 249 542 328 588 l 247 0 l 103 0 l 103 992 l 249 992 l 249 656 q 454 713 353 713 z "},"ħ":{"ha":821,"x_min":-8,"x_max":718,"o":"m 454 713 q 718 432 718 713 l 718 0 l 572 0 l 572 414 q 532 543 572 499 q 413 588 492 588 q 249 542 328 588 l 247 0 l 103 0 l 103 785 l -8 785 l -8 882 l 103 882 l 103 992 l 249 992 l 249 882 l 364 882 l 364 785 l 249 785 l 249 656 q 454 713 353 713 z "},"ḫ":{"ha":821,"x_min":103,"x_max":718,"o":"m 454 713 q 718 432 718 713 l 718 0 l 572 0 l 572 414 q 532 543 572 499 q 413 588 492 588 q 249 542 328 588 l 247 0 l 103 0 l 103 992 l 249 992 l 249 656 q 454 713 353 713 m 404 -211 q 274 -167 324 -211 q 207 -42 224 -122 l 297 -42 q 338 -102 311 -79 q 404 -125 365 -125 q 510 -42 478 -125 l 600 -42 q 537 -166 589 -121 q 404 -211 485 -211 z "},"ĥ":{"ha":821,"x_min":-6,"x_max":718,"o":"m 454 713 q 718 432 718 713 l 718 0 l 572 0 l 572 414 q 532 543 572 499 q 413 588 492 588 q 249 542 328 588 l 247 0 l 103 0 l 103 992 l 249 992 l 249 656 q 454 713 353 713 m -6 1057 l 111 1225 l 232 1225 l 347 1057 l 251 1057 l 171 1147 l 90 1057 l -6 1057 z "},"i":{"ha":361,"x_min":103,"x_max":258,"o":"m 103 808 l 103 940 l 258 940 l 258 808 l 103 808 m 107 0 l 107 693 l 253 693 l 254 0 l 107 0 z "},"ı":{"ha":353,"x_min":103,"x_max":250,"o":"m 103 0 l 103 693 l 249 693 l 250 0 l 103 0 z "},"í":{"ha":413,"x_min":136,"x_max":367,"o":"m 167 781 l 247 940 l 367 940 l 247 781 l 167 781 m 136 0 l 136 693 l 278 693 l 278 0 l 136 0 z "},"ĭ":{"ha":353,"x_min":-21,"x_max":372,"o":"m 103 0 l 103 693 l 249 693 l 250 0 l 103 0 m 176 753 q 46 797 96 753 q -21 922 -4 842 l 69 922 q 110 862 83 885 q 176 839 138 839 q 282 922 250 839 l 372 922 q 309 798 361 843 q 176 753 257 753 z "},"ǐ":{"ha":353,"x_min":13,"x_max":338,"o":"m 103 0 l 103 693 l 249 693 l 250 0 l 103 0 m 125 783 l 13 951 l 114 951 l 175 860 l 236 951 l 338 951 l 231 783 l 125 783 z "},"î":{"ha":413,"x_min":49,"x_max":365,"o":"m 49 781 l 176 947 l 236 947 l 365 781 l 268 781 l 207 867 l 144 781 l 49 781 m 136 0 l 136 693 l 278 693 l 278 0 l 136 0 z "},"ȉ":{"ha":353,"x_min":-71,"x_max":363,"o":"m 103 0 l 103 693 l 249 693 l 250 0 l 103 0 m 61 776 l -71 940 l 74 940 l 147 776 l 61 776 m 276 776 l 144 940 l 289 940 l 363 776 l 276 776 z "},"ï":{"ha":413,"x_min":36,"x_max":378,"o":"m 36 781 l 36 903 l 163 903 l 163 781 l 36 781 m 250 781 l 250 903 l 378 903 l 378 781 l 250 781 m 136 0 l 136 693 l 278 693 l 278 0 l 136 0 z "},"ḯ":{"ha":353,"x_min":-3,"x_max":364,"o":"m 103 0 l 103 693 l 249 693 l 250 0 l 103 0 m -3 781 l -3 903 l 138 903 l 138 781 l -3 781 m 225 781 l 225 903 l 364 903 l 364 781 l 225 781 m 128 986 l 200 1150 l 346 1150 l 214 986 l 128 986 z "},"ị":{"ha":413,"x_min":132,"x_max":283,"o":"m 132 803 l 132 935 l 283 935 l 283 803 l 132 803 m 136 0 l 136 693 l 278 693 l 278 0 l 136 0 m 143 -192 l 143 -69 l 269 -69 l 269 -192 l 143 -192 z "},"ì":{"ha":413,"x_min":46,"x_max":278,"o":"m 165 783 l 46 943 l 167 943 l 249 783 l 165 783 m 136 0 l 136 693 l 278 693 l 278 0 l 136 0 z "},"ỉ":{"ha":413,"x_min":126,"x_max":306,"o":"m 178 856 q 213 864 200 856 q 225 885 225 872 q 209 910 225 901 q 167 919 193 919 q 126 915 147 919 l 126 979 q 178 983 147 983 q 269 960 232 983 q 306 888 306 938 q 285 837 306 856 q 233 813 264 818 l 233 781 l 178 781 l 178 856 m 136 0 l 136 693 l 278 693 l 278 0 l 136 0 z "},"ȋ":{"ha":353,"x_min":-21,"x_max":372,"o":"m 103 0 l 103 693 l 249 693 l 250 0 l 103 0 m 176 907 q 309 862 257 907 q 372 738 361 817 l 282 738 q 176 821 250 821 q 110 798 138 821 q 69 738 83 775 l -21 738 q 46 863 -4 818 q 176 907 96 907 z "},"ĳ":{"ha":754,"x_min":103,"x_max":651,"o":"m 103 808 l 103 940 l 258 940 l 258 808 l 103 808 m 107 0 l 107 693 l 253 693 l 254 0 l 107 0 m 497 813 l 497 944 l 651 944 l 651 813 l 497 813 m 374 -143 q 474 -115 446 -144 q 501 -22 501 -86 l 501 697 l 647 697 l 649 -25 q 374 -268 649 -268 l 374 -143 z "},"ī":{"ha":413,"x_min":44,"x_max":368,"o":"m 44 792 l 44 881 l 368 881 l 368 792 l 44 792 m 136 0 l 136 693 l 278 693 l 278 0 l 136 0 z "},"į":{"ha":361,"x_min":7,"x_max":258,"o":"m 103 940 l 258 940 l 258 808 l 103 808 l 103 940 m 254 0 q 159 -56 194 -26 q 124 -112 124 -85 q 172 -161 124 -161 q 254 -119 213 -161 l 254 -221 q 208 -241 231 -233 q 153 -249 185 -249 q 44 -217 82 -249 q 7 -126 7 -186 q 34 -56 7 -92 q 107 6 61 -21 l 107 693 l 253 693 l 254 0 z "},"ĩ":{"ha":353,"x_min":-44,"x_max":406,"o":"m 103 0 l 103 693 l 249 693 l 250 0 l 103 0 m -42 756 q -44 789 -44 778 q -6 890 -44 850 q 83 929 32 929 q 144 916 117 929 q 204 878 171 903 q 247 849 231 858 q 281 840 263 840 q 311 854 300 840 q 322 894 322 868 q 321 914 322 907 l 404 914 q 406 890 406 906 q 367 788 406 828 q 271 749 329 749 q 204 763 233 749 q 143 803 175 778 q 106 828 119 821 q 79 836 93 836 q 47 820 60 836 q 35 776 35 804 q 36 756 35 763 l -42 756 z "},"j":{"ha":393,"x_min":13,"x_max":290,"o":"m 136 813 l 136 944 l 290 944 l 290 813 l 136 813 m 13 -143 q 113 -115 85 -144 q 140 -22 140 -86 l 140 697 l 286 697 l 288 -25 q 13 -268 288 -268 l 13 -143 z "},"ȷ":{"ha":382,"x_min":4,"x_max":279,"o":"m 4 -151 q 108 -122 78 -150 q 138 -28 138 -93 l 138 693 l 279 693 l 279 -25 q 4 -268 279 -268 l 4 -151 z "},"ĵ":{"ha":379,"x_min":4,"x_max":367,"o":"m 50 781 l 178 947 l 239 947 l 367 781 l 269 781 l 208 867 l 147 781 l 50 781 m 4 -151 q 108 -122 78 -150 q 138 -28 138 -93 l 138 693 l 279 693 l 279 -25 q 4 -268 279 -268 l 4 -151 z "},"k":{"ha":756,"x_min":103,"x_max":717,"o":"m 717 0 l 528 0 l 247 313 l 247 0 l 103 0 l 103 961 l 249 961 l 247 436 l 501 697 l 681 697 l 364 394 l 717 0 z "},"ķ":{"ha":803,"x_min":125,"x_max":751,"o":"m 125 0 l 125 956 l 268 956 l 268 404 l 529 693 l 715 693 l 424 379 l 751 0 l 572 0 l 335 281 l 268 207 l 268 0 l 125 0 m 308 -189 q 364 -68 367 -169 l 463 -68 q 417 -208 463 -157 q 308 -268 372 -260 l 308 -189 z "},"ĸ":{"ha":803,"x_min":125,"x_max":751,"o":"m 125 0 l 125 693 l 268 693 l 268 404 l 529 693 l 715 693 l 424 379 l 751 0 l 572 0 l 335 281 l 268 207 l 268 0 l 125 0 z "},"l":{"ha":350,"x_min":103,"x_max":247,"o":"m 247 0 l 103 0 l 103 961 l 247 961 l 247 0 z "},"ĺ":{"ha":350,"x_min":103,"x_max":356,"o":"m 247 0 l 103 0 l 103 961 l 247 961 l 247 0 m 138 1031 l 204 1189 l 356 1189 l 219 1031 l 138 1031 z "},"ľ":{"ha":436,"x_min":140,"x_max":490,"o":"m 140 0 l 140 957 l 282 957 l 282 0 l 140 0 m 338 838 q 381 879 369 847 q 392 957 392 911 l 490 957 q 445 818 490 869 q 338 758 400 767 l 338 838 z "},"ļ":{"ha":350,"x_min":86,"x_max":256,"o":"m 247 0 l 103 0 l 103 961 l 247 961 l 247 0 m 86 -185 q 131 -143 119 -174 q 140 -68 142 -112 l 256 -68 q 208 -209 257 -158 q 86 -268 160 -260 l 86 -185 z "},"ŀ":{"ha":350,"x_min":100,"x_max":247,"o":"m 103 961 l 247 961 l 247 0 l 103 0 l 103 285 l 100 285 l 100 419 l 103 419 l 103 961 z "},"ḷ":{"ha":350,"x_min":103,"x_max":247,"o":"m 247 0 l 103 0 l 103 961 l 247 961 l 247 0 m 111 -192 l 111 -69 l 238 -69 l 238 -192 l 111 -192 z "},"ǉ":{"ha":743,"x_min":103,"x_max":640,"o":"m 247 0 l 103 0 l 103 961 l 247 961 l 247 0 m 486 813 l 486 944 l 640 944 l 640 813 l 486 813 m 363 -143 q 463 -115 435 -144 q 490 -22 490 -86 l 490 697 l 636 697 l 638 -25 q 363 -268 638 -268 l 363 -143 z "},"ḻ":{"ha":350,"x_min":-1,"x_max":349,"o":"m 247 0 l 103 0 l 103 961 l 247 961 l 247 0 m -1 -181 l -1 -82 l 349 -82 l 349 -181 l -1 -181 z "},"ł":{"ha":442,"x_min":42,"x_max":418,"o":"m 146 0 l 146 419 l 42 354 l 42 468 l 146 532 l 146 957 l 289 957 l 289 619 l 418 700 l 418 588 l 289 507 l 289 0 l 146 0 z "},"m":{"ha":1246,"x_min":103,"x_max":1143,"o":"m 863 713 q 1076 651 1008 713 q 1143 461 1143 590 l 1143 0 l 997 0 l 997 442 q 832 588 997 588 q 697 550 758 588 q 707 461 707 513 l 707 0 l 561 0 l 561 442 q 396 588 561 588 q 249 561 321 588 l 249 0 l 103 0 l 103 640 q 255 692 165 672 q 426 713 344 713 q 629 660 563 713 q 863 713 742 713 z "},"ṃ":{"ha":1246,"x_min":103,"x_max":1143,"o":"m 863 713 q 1076 651 1008 713 q 1143 461 1143 590 l 1143 0 l 997 0 l 997 442 q 832 588 997 588 q 697 550 758 588 q 707 461 707 513 l 707 0 l 561 0 l 561 442 q 396 588 561 588 q 249 561 321 588 l 249 0 l 103 0 l 103 640 q 255 692 165 672 q 426 713 344 713 q 629 660 563 713 q 863 713 742 713 m 560 -192 l 560 -69 l 686 -69 l 686 -192 l 560 -192 z "},"n":{"ha":814,"x_min":103,"x_max":711,"o":"m 103 640 q 255 692 165 672 q 426 713 344 713 q 642 651 572 713 q 711 461 711 590 l 711 0 l 565 0 l 565 442 q 400 588 565 588 q 249 561 321 588 l 249 0 l 103 0 l 103 640 z "},"ń":{"ha":814,"x_min":103,"x_max":711,"o":"m 103 640 q 255 692 165 672 q 426 713 344 713 q 642 651 572 713 q 711 461 711 590 l 711 0 l 565 0 l 565 442 q 400 588 565 588 q 249 561 321 588 l 249 0 l 103 0 l 103 640 m 360 785 l 432 949 l 578 949 l 446 785 l 360 785 z "},"ŉ":{"ha":835,"x_min":46,"x_max":711,"o":"m 46 801 q 90 844 79 813 q 101 922 101 876 l 200 922 q 154 782 200 833 q 46 722 108 731 l 46 801 m 114 632 q 241 680 160 656 q 422 704 322 704 q 635 635 558 704 q 711 439 711 565 l 711 0 l 569 0 l 569 450 q 537 543 569 506 q 404 581 504 581 q 256 558 336 581 l 256 0 l 114 0 l 114 632 z "},"ň":{"ha":814,"x_min":103,"x_max":711,"o":"m 103 640 q 255 692 165 672 q 426 713 344 713 q 642 651 572 713 q 711 461 711 590 l 711 0 l 565 0 l 565 442 q 400 588 565 588 q 249 561 321 588 l 249 0 l 103 0 l 103 640 m 357 792 l 244 960 l 346 960 l 407 868 l 468 960 l 569 960 l 463 792 l 357 792 z "},"ņ":{"ha":814,"x_min":103,"x_max":711,"o":"m 103 640 q 255 692 165 672 q 426 713 344 713 q 642 651 572 713 q 711 461 711 590 l 711 0 l 565 0 l 565 442 q 400 588 565 588 q 249 561 321 588 l 249 0 l 103 0 l 103 640 m 319 -185 q 364 -143 353 -174 q 374 -68 375 -112 l 489 -68 q 442 -209 490 -158 q 319 -268 393 -260 l 319 -185 z "},"ṅ":{"ha":814,"x_min":103,"x_max":711,"o":"m 103 640 q 255 692 165 672 q 426 713 344 713 q 642 651 572 713 q 711 461 711 590 l 711 0 l 565 0 l 565 442 q 400 588 565 588 q 249 561 321 588 l 249 0 l 103 0 l 103 640 m 335 785 l 335 907 l 469 907 l 469 785 l 335 785 z "},"ṇ":{"ha":814,"x_min":103,"x_max":711,"o":"m 103 640 q 255 692 165 672 q 426 713 344 713 q 642 651 572 713 q 711 461 711 590 l 711 0 l 565 0 l 565 442 q 400 588 565 588 q 249 561 321 588 l 249 0 l 103 0 l 103 640 m 344 -192 l 344 -69 l 471 -69 l 471 -192 l 344 -192 z "},"ŋ":{"ha":831,"x_min":103,"x_max":701,"o":"m 103 618 q 232 676 146 647 q 410 704 318 704 q 624 641 547 704 q 701 454 701 578 l 701 -8 q 630 -190 701 -133 q 424 -247 558 -247 l 424 -126 q 527 -97 497 -126 q 557 -3 557 -68 l 557 428 q 524 531 557 492 q 397 571 492 571 q 247 543 333 571 l 247 0 l 103 0 l 103 618 z "},"ɲ":{"ha":814,"x_min":-25,"x_max":711,"o":"m 103 640 q 255 692 165 672 q 426 713 344 713 q 642 651 572 713 q 711 461 711 590 l 711 0 l 565 0 l 565 442 q 400 588 565 588 q 249 561 321 588 l 249 3 q -25 -240 249 -240 l -25 -115 q 75 -87 47 -117 q 103 6 103 -58 l 103 640 z "},"ǌ":{"ha":1207,"x_min":103,"x_max":1104,"o":"m 103 640 q 255 692 165 672 q 426 713 344 713 q 642 651 572 713 q 711 461 711 590 l 711 0 l 565 0 l 565 442 q 400 588 565 588 q 249 561 321 588 l 249 0 l 103 0 l 103 640 m 950 813 l 950 944 l 1104 944 l 1104 813 l 950 813 m 826 -143 q 926 -115 899 -144 q 954 -22 954 -86 l 954 697 l 1100 697 l 1101 -25 q 826 -268 1101 -268 l 826 -143 z "},"ṉ":{"ha":814,"x_min":103,"x_max":711,"o":"m 103 640 q 255 692 165 672 q 426 713 344 713 q 642 651 572 713 q 711 461 711 590 l 711 0 l 565 0 l 565 442 q 400 588 565 588 q 249 561 321 588 l 249 0 l 103 0 l 103 640 m 232 -181 l 232 -82 l 582 -82 l 582 -181 l 232 -181 z "},"ñ":{"ha":814,"x_min":103,"x_max":711,"o":"m 103 640 q 255 692 165 672 q 426 713 344 713 q 642 651 572 713 q 711 461 711 590 l 711 0 l 565 0 l 565 442 q 400 588 565 588 q 249 561 321 588 l 249 0 l 103 0 l 103 640 m 190 764 q 188 797 188 786 q 226 898 188 858 q 315 938 264 938 q 376 924 349 938 q 436 886 403 911 q 478 858 463 867 q 513 849 494 849 q 543 863 532 849 q 554 903 554 876 q 553 922 554 915 l 636 922 q 638 899 638 914 q 599 797 638 836 q 503 757 561 757 q 436 772 465 757 q 375 811 407 786 q 338 837 351 829 q 311 844 325 844 q 279 828 292 844 q 267 785 267 813 q 268 764 267 771 l 190 764 z "},"o":{"ha":803,"x_min":67,"x_max":738,"o":"m 401 -21 q 151 74 235 -21 q 67 349 67 168 q 400 714 67 714 q 653 620 568 714 q 738 349 738 526 q 650 75 738 171 q 401 -21 563 -21 m 400 103 q 592 349 592 103 q 546 531 592 471 q 400 592 500 592 q 255 530 299 592 q 211 349 211 468 q 256 166 211 229 q 400 103 301 103 z "},"ó":{"ha":803,"x_min":67,"x_max":738,"o":"m 401 -21 q 151 74 235 -21 q 67 349 67 168 q 400 714 67 714 q 653 620 568 714 q 738 349 738 526 q 650 75 738 171 q 401 -21 563 -21 m 400 103 q 592 349 592 103 q 546 531 592 471 q 400 592 500 592 q 255 530 299 592 q 211 349 211 468 q 256 166 211 229 q 400 103 301 103 m 356 789 l 428 953 l 574 953 l 442 789 l 356 789 z "},"ŏ":{"ha":803,"x_min":67,"x_max":738,"o":"m 401 -21 q 151 74 235 -21 q 67 349 67 168 q 400 714 67 714 q 653 620 568 714 q 738 349 738 526 q 650 75 738 171 q 401 -21 563 -21 m 400 103 q 592 349 592 103 q 546 531 592 471 q 400 592 500 592 q 255 530 299 592 q 211 349 211 468 q 256 166 211 229 q 400 103 301 103 m 404 765 q 274 810 324 765 q 207 935 224 854 l 297 935 q 338 874 311 897 q 404 851 365 851 q 510 935 478 851 l 600 935 q 537 810 589 856 q 404 765 485 765 z "},"ǒ":{"ha":803,"x_min":67,"x_max":738,"o":"m 401 -21 q 151 74 235 -21 q 67 349 67 168 q 400 714 67 714 q 653 620 568 714 q 738 349 738 526 q 650 75 738 171 q 401 -21 563 -21 m 400 103 q 592 349 592 103 q 546 531 592 471 q 400 592 500 592 q 255 530 299 592 q 211 349 211 468 q 256 166 211 229 q 400 103 301 103 m 353 796 l 240 964 l 342 964 l 403 872 l 464 964 l 565 964 l 458 796 l 353 796 z "},"ô":{"ha":803,"x_min":67,"x_max":738,"o":"m 401 -21 q 151 74 235 -21 q 67 349 67 168 q 400 714 67 714 q 653 620 568 714 q 738 349 738 526 q 650 75 738 171 q 401 -21 563 -21 m 400 103 q 592 349 592 103 q 546 531 592 471 q 400 592 500 592 q 255 530 299 592 q 211 349 211 468 q 256 166 211 229 q 400 103 301 103 m 232 792 l 349 960 l 469 960 l 585 792 l 489 792 l 408 882 l 328 792 l 232 792 z "},"ố":{"ha":803,"x_min":67,"x_max":763,"o":"m 401 -21 q 151 74 235 -21 q 67 349 67 168 q 400 714 67 714 q 653 620 568 714 q 738 349 738 526 q 650 75 738 171 q 401 -21 563 -21 m 400 103 q 592 349 592 103 q 546 531 592 471 q 400 592 500 592 q 255 530 299 592 q 211 349 211 468 q 256 166 211 229 q 400 103 301 103 m 231 783 l 347 951 l 468 951 l 583 783 l 488 783 l 407 874 l 326 783 l 231 783 m 544 885 l 611 1043 l 763 1043 l 626 885 l 544 885 z "},"ộ":{"ha":803,"x_min":67,"x_max":738,"o":"m 401 -21 q 151 74 235 -21 q 67 349 67 168 q 400 714 67 714 q 653 620 568 714 q 738 349 738 526 q 650 75 738 171 q 401 -21 563 -21 m 400 103 q 592 349 592 103 q 546 531 592 471 q 400 592 500 592 q 255 530 299 592 q 211 349 211 468 q 256 166 211 229 q 400 103 301 103 m 232 792 l 349 960 l 469 960 l 585 792 l 489 792 l 408 882 l 328 792 l 232 792 m 340 -192 l 340 -69 l 467 -69 l 467 -192 l 340 -192 z "},"ồ":{"ha":803,"x_min":32,"x_max":738,"o":"m 401 -21 q 151 74 235 -21 q 67 349 67 168 q 400 714 67 714 q 653 620 568 714 q 738 349 738 526 q 650 75 738 171 q 401 -21 563 -21 m 400 103 q 592 349 592 103 q 546 531 592 471 q 400 592 500 592 q 255 530 299 592 q 211 349 211 468 q 256 166 211 229 q 400 103 301 103 m 233 783 l 350 951 l 471 951 l 586 783 l 490 783 l 410 874 l 329 783 l 233 783 m 156 878 l 32 1036 l 169 1036 l 242 878 l 156 878 z "},"ổ":{"ha":803,"x_min":67,"x_max":738,"o":"m 401 -21 q 151 74 235 -21 q 67 349 67 168 q 400 714 67 714 q 653 620 568 714 q 738 349 738 526 q 650 75 738 171 q 401 -21 563 -21 m 400 103 q 592 349 592 103 q 546 531 592 471 q 400 592 500 592 q 255 530 299 592 q 211 349 211 468 q 256 166 211 229 q 400 103 301 103 m 218 783 l 335 951 l 456 951 l 571 783 l 475 783 l 394 874 l 314 783 l 218 783 m 563 936 q 600 947 586 936 q 614 969 614 957 q 550 1004 614 1004 q 511 1000 532 1004 l 511 1069 q 571 1074 532 1074 q 671 1050 631 1074 q 711 974 711 1026 q 692 919 711 940 q 635 893 672 899 l 635 861 l 563 861 l 563 936 z "},"ỗ":{"ha":803,"x_min":67,"x_max":738,"o":"m 401 -21 q 151 74 235 -21 q 67 349 67 168 q 400 714 67 714 q 653 620 568 714 q 738 349 738 526 q 650 75 738 171 q 401 -21 563 -21 m 400 103 q 592 349 592 103 q 546 531 592 471 q 400 592 500 592 q 255 530 299 592 q 211 349 211 468 q 256 166 211 229 q 400 103 301 103 m 233 761 l 350 929 l 471 929 l 586 761 l 490 761 l 410 851 l 329 761 l 233 761 m 186 982 q 183 1015 183 1004 q 222 1116 183 1076 q 311 1156 260 1156 q 372 1142 344 1156 q 432 1104 399 1129 q 474 1076 458 1085 q 508 1067 490 1067 q 539 1081 528 1067 q 550 1121 550 1094 q 549 1140 550 1133 l 632 1140 q 633 1117 633 1132 q 595 1015 633 1054 q 499 975 557 975 q 432 990 461 975 q 371 1029 403 1004 q 334 1055 347 1047 q 307 1063 321 1063 q 275 1047 288 1063 q 263 1003 263 1031 q 264 982 263 989 l 186 982 z "},"ȍ":{"ha":803,"x_min":67,"x_max":738,"o":"m 401 -21 q 151 74 235 -21 q 67 349 67 168 q 400 714 67 714 q 653 620 568 714 q 738 349 738 526 q 650 75 738 171 q 401 -21 563 -21 m 400 103 q 592 349 592 103 q 546 531 592 471 q 400 592 500 592 q 255 530 299 592 q 211 349 211 468 q 256 166 211 229 q 400 103 301 103 m 289 789 l 157 953 l 301 953 l 375 789 l 289 789 m 504 789 l 372 953 l 517 953 l 590 789 l 504 789 z "},"ö":{"ha":803,"x_min":67,"x_max":738,"o":"m 401 -21 q 151 74 235 -21 q 67 349 67 168 q 400 714 67 714 q 653 620 568 714 q 738 349 738 526 q 650 75 738 171 q 401 -21 563 -21 m 400 103 q 592 349 592 103 q 546 531 592 471 q 400 592 500 592 q 255 530 299 592 q 211 349 211 468 q 256 166 211 229 q 400 103 301 103 m 225 793 l 225 915 l 365 915 l 365 793 l 225 793 m 453 793 l 453 915 l 592 915 l 592 793 l 453 793 z "},"ȫ":{"ha":803,"x_min":67,"x_max":738,"o":"m 401 -21 q 151 74 235 -21 q 67 349 67 168 q 400 714 67 714 q 653 620 568 714 q 738 349 738 526 q 650 75 738 171 q 401 -21 563 -21 m 400 103 q 592 349 592 103 q 546 531 592 471 q 400 592 500 592 q 255 530 299 592 q 211 349 211 468 q 256 166 211 229 q 400 103 301 103 m 225 793 l 225 915 l 365 915 l 365 793 l 225 793 m 453 793 l 453 915 l 592 915 l 592 793 l 453 793 m 226 1008 l 226 1107 l 576 1107 l 576 1008 l 226 1008 z "},"ȱ":{"ha":803,"x_min":67,"x_max":738,"o":"m 401 -21 q 151 74 235 -21 q 67 349 67 168 q 400 714 67 714 q 653 620 568 714 q 738 349 738 526 q 650 75 738 171 q 401 -21 563 -21 m 400 103 q 592 349 592 103 q 546 531 592 471 q 400 592 500 592 q 255 530 299 592 q 211 349 211 468 q 256 166 211 229 q 400 103 301 103 m 331 789 l 331 911 l 465 911 l 465 789 l 331 789 m 226 1008 l 226 1107 l 576 1107 l 576 1008 l 226 1008 z "},"ọ":{"ha":803,"x_min":67,"x_max":738,"o":"m 401 -21 q 151 74 235 -21 q 67 349 67 168 q 400 714 67 714 q 653 620 568 714 q 738 349 738 526 q 650 75 738 171 q 401 -21 563 -21 m 400 103 q 592 349 592 103 q 546 531 592 471 q 400 592 500 592 q 255 530 299 592 q 211 349 211 468 q 256 166 211 229 q 400 103 301 103 m 340 -192 l 340 -69 l 467 -69 l 467 -192 l 340 -192 z "},"ò":{"ha":803,"x_min":67,"x_max":738,"o":"m 401 -21 q 151 74 235 -21 q 67 349 67 168 q 400 714 67 714 q 653 620 568 714 q 738 349 738 526 q 650 75 738 171 q 401 -21 563 -21 m 400 103 q 592 349 592 103 q 546 531 592 471 q 400 592 500 592 q 255 530 299 592 q 211 349 211 468 q 256 166 211 229 q 400 103 301 103 m 364 789 l 232 953 l 376 953 l 450 789 l 364 789 z "},"ỏ":{"ha":803,"x_min":67,"x_max":738,"o":"m 401 -21 q 151 74 235 -21 q 67 349 67 168 q 400 714 67 714 q 653 620 568 714 q 738 349 738 526 q 650 75 738 171 q 401 -21 563 -21 m 400 103 q 592 349 592 103 q 546 531 592 471 q 400 592 500 592 q 255 530 299 592 q 211 349 211 468 q 256 166 211 229 q 400 103 301 103 m 365 857 q 403 867 389 857 q 417 890 417 878 q 353 925 417 925 q 314 921 335 925 l 314 990 q 374 994 335 994 q 474 971 433 994 q 514 894 514 947 q 494 840 514 861 q 438 814 475 819 l 438 782 l 365 782 l 365 857 z "},"ơ":{"ha":803,"x_min":67,"x_max":738,"o":"m 639 635 q 738 349 738 542 q 650 75 738 171 q 401 -21 563 -21 q 151 74 235 -21 q 67 349 67 168 q 400 714 67 714 q 529 696 475 714 q 593 723 567 700 q 619 778 619 746 l 619 821 l 715 821 l 715 765 q 695 688 715 721 q 639 635 675 654 m 400 103 q 592 349 592 103 q 546 531 592 471 q 400 592 500 592 q 255 530 299 592 q 211 349 211 468 q 256 166 211 229 q 400 103 301 103 z "},"ớ":{"ha":803,"x_min":67,"x_max":738,"o":"m 639 635 q 738 349 738 542 q 650 75 738 171 q 401 -21 563 -21 q 151 74 235 -21 q 67 349 67 168 q 400 714 67 714 q 529 696 475 714 q 593 723 567 700 q 619 778 619 746 l 619 821 l 715 821 l 715 765 q 695 688 715 721 q 639 635 675 654 m 400 103 q 592 349 592 103 q 546 531 592 471 q 400 592 500 592 q 255 530 299 592 q 211 349 211 468 q 256 166 211 229 q 400 103 301 103 m 356 789 l 428 953 l 574 953 l 442 789 l 356 789 z "},"ợ":{"ha":803,"x_min":67,"x_max":738,"o":"m 639 635 q 738 349 738 542 q 650 75 738 171 q 401 -21 563 -21 q 151 74 235 -21 q 67 349 67 168 q 400 714 67 714 q 529 696 475 714 q 593 723 567 700 q 619 778 619 746 l 619 821 l 715 821 l 715 765 q 695 688 715 721 q 639 635 675 654 m 400 103 q 592 349 592 103 q 546 531 592 471 q 400 592 500 592 q 255 530 299 592 q 211 349 211 468 q 256 166 211 229 q 400 103 301 103 m 340 -192 l 340 -69 l 467 -69 l 467 -192 l 340 -192 z "},"ờ":{"ha":803,"x_min":67,"x_max":738,"o":"m 639 635 q 738 349 738 542 q 650 75 738 171 q 401 -21 563 -21 q 151 74 235 -21 q 67 349 67 168 q 400 714 67 714 q 529 696 475 714 q 593 723 567 700 q 619 778 619 746 l 619 821 l 715 821 l 715 765 q 695 688 715 721 q 639 635 675 654 m 400 103 q 592 349 592 103 q 546 531 592 471 q 400 592 500 592 q 255 530 299 592 q 211 349 211 468 q 256 166 211 229 q 400 103 301 103 m 364 789 l 232 953 l 376 953 l 450 789 l 364 789 z "},"ở":{"ha":803,"x_min":67,"x_max":738,"o":"m 639 635 q 738 349 738 542 q 650 75 738 171 q 401 -21 563 -21 q 151 74 235 -21 q 67 349 67 168 q 400 714 67 714 q 529 696 475 714 q 593 723 567 700 q 619 778 619 746 l 619 821 l 715 821 l 715 765 q 695 688 715 721 q 639 635 675 654 m 400 103 q 592 349 592 103 q 546 531 592 471 q 400 592 500 592 q 255 530 299 592 q 211 349 211 468 q 256 166 211 229 q 400 103 301 103 m 365 857 q 403 867 389 857 q 417 890 417 878 q 353 925 417 925 q 314 921 335 925 l 314 990 q 374 994 335 994 q 474 971 433 994 q 514 894 514 947 q 494 840 514 861 q 438 814 475 819 l 438 782 l 365 782 l 365 857 z "},"ỡ":{"ha":803,"x_min":67,"x_max":738,"o":"m 639 635 q 738 349 738 542 q 650 75 738 171 q 401 -21 563 -21 q 151 74 235 -21 q 67 349 67 168 q 400 714 67 714 q 529 696 475 714 q 593 723 567 700 q 619 778 619 746 l 619 821 l 715 821 l 715 765 q 695 688 715 721 q 639 635 675 654 m 400 103 q 592 349 592 103 q 546 531 592 471 q 400 592 500 592 q 255 530 299 592 q 211 349 211 468 q 256 166 211 229 q 400 103 301 103 m 169 783 q 167 817 167 806 q 205 917 167 878 q 294 957 243 957 q 355 944 328 957 q 415 906 382 931 q 458 877 442 886 q 492 868 474 868 q 522 882 511 868 q 533 922 533 896 q 532 942 533 935 l 615 942 q 617 918 617 933 q 578 816 617 856 q 482 776 540 776 q 415 791 444 776 q 354 831 386 806 q 317 856 331 849 q 290 864 304 864 q 258 848 271 864 q 246 804 246 832 q 247 783 246 790 l 169 783 z "},"ő":{"ha":803,"x_min":67,"x_max":738,"o":"m 401 -21 q 151 74 235 -21 q 67 349 67 168 q 400 714 67 714 q 653 620 568 714 q 738 349 738 526 q 650 75 738 171 q 401 -21 563 -21 m 400 103 q 592 349 592 103 q 546 531 592 471 q 400 592 500 592 q 255 530 299 592 q 211 349 211 468 q 256 166 211 229 q 400 103 301 103 m 268 793 l 350 953 l 469 953 l 350 793 l 268 793 m 447 793 l 529 953 l 650 953 l 531 793 l 447 793 z "},"ȏ":{"ha":803,"x_min":67,"x_max":738,"o":"m 401 -21 q 151 74 235 -21 q 67 349 67 168 q 400 714 67 714 q 653 620 568 714 q 738 349 738 526 q 650 75 738 171 q 401 -21 563 -21 m 400 103 q 592 349 592 103 q 546 531 592 471 q 400 592 500 592 q 255 530 299 592 q 211 349 211 468 q 256 166 211 229 q 400 103 301 103 m 404 919 q 537 874 485 919 q 600 750 589 829 l 510 750 q 404 833 478 833 q 338 810 365 833 q 297 750 311 788 l 207 750 q 274 875 224 831 q 404 919 324 919 z "},"ō":{"ha":803,"x_min":67,"x_max":738,"o":"m 401 -21 q 151 74 235 -21 q 67 349 67 168 q 400 714 67 714 q 653 620 568 714 q 738 349 738 526 q 650 75 738 171 q 401 -21 563 -21 m 400 103 q 592 349 592 103 q 546 531 592 471 q 400 592 500 592 q 255 530 299 592 q 211 349 211 468 q 256 166 211 229 q 400 103 301 103 m 226 799 l 226 897 l 576 897 l 576 799 l 226 799 z "},"ṓ":{"ha":803,"x_min":67,"x_max":738,"o":"m 401 -21 q 151 74 235 -21 q 67 349 67 168 q 400 714 67 714 q 653 620 568 714 q 738 349 738 526 q 650 75 738 171 q 401 -21 563 -21 m 400 103 q 592 349 592 103 q 546 531 592 471 q 400 592 500 592 q 255 530 299 592 q 211 349 211 468 q 256 166 211 229 q 400 103 301 103 m 226 799 l 226 897 l 576 897 l 576 799 l 226 799 m 356 976 l 428 1140 l 574 1140 l 442 976 l 356 976 z "},"ṑ":{"ha":803,"x_min":67,"x_max":738,"o":"m 401 -21 q 151 74 235 -21 q 67 349 67 168 q 400 714 67 714 q 653 620 568 714 q 738 349 738 526 q 650 75 738 171 q 401 -21 563 -21 m 400 103 q 592 349 592 103 q 546 531 592 471 q 400 592 500 592 q 255 530 299 592 q 211 349 211 468 q 256 166 211 229 q 400 103 301 103 m 226 799 l 226 897 l 576 897 l 576 799 l 226 799 m 364 976 l 232 1140 l 376 1140 l 450 976 l 364 976 z "},"ǫ":{"ha":803,"x_min":67,"x_max":738,"o":"m 738 349 q 687 126 738 214 q 539 1 636 38 l 550 0 q 419 -114 419 -60 q 431 -151 419 -140 q 467 -161 443 -161 q 550 -119 506 -161 l 550 -221 q 503 -241 526 -233 q 447 -249 481 -249 q 340 -217 378 -249 q 303 -126 303 -186 q 319 -70 303 -99 q 365 -19 335 -42 q 142 84 217 -10 q 67 349 67 178 q 400 714 67 714 q 653 620 568 714 q 738 349 738 526 m 400 103 q 592 349 592 103 q 546 531 592 471 q 400 592 500 592 q 255 530 299 592 q 211 349 211 468 q 256 166 211 229 q 400 103 301 103 z "},"ø":{"ha":814,"x_min":40,"x_max":771,"o":"m 679 586 q 738 349 738 494 q 650 75 738 171 q 401 -21 563 -21 q 207 28 283 -21 l 183 0 l 40 0 l 128 103 q 67 349 67 196 q 400 714 67 714 q 603 663 521 714 l 628 693 l 771 693 l 679 586 m 211 349 q 228 222 211 275 l 515 561 q 400 592 469 592 q 255 530 299 592 q 211 349 211 468 m 592 349 q 578 465 592 419 l 293 131 q 400 103 336 103 q 592 349 592 103 z "},"ǿ":{"ha":814,"x_min":40,"x_max":771,"o":"m 679 586 q 738 349 738 494 q 650 75 738 171 q 401 -21 563 -21 q 207 28 283 -21 l 183 0 l 40 0 l 128 103 q 67 349 67 196 q 400 714 67 714 q 603 663 521 714 l 628 693 l 771 693 l 679 586 m 211 349 q 228 222 211 275 l 515 561 q 400 592 469 592 q 255 530 299 592 q 211 349 211 468 m 592 349 q 578 465 592 419 l 293 131 q 400 103 336 103 q 592 349 592 103 m 358 776 l 431 940 l 576 940 l 444 776 l 358 776 z "},"õ":{"ha":803,"x_min":67,"x_max":738,"o":"m 401 -21 q 151 74 235 -21 q 67 349 67 168 q 400 714 67 714 q 653 620 568 714 q 738 349 738 526 q 650 75 738 171 q 401 -21 563 -21 m 400 103 q 592 349 592 103 q 546 531 592 471 q 400 592 500 592 q 255 530 299 592 q 211 349 211 468 q 256 166 211 229 q 400 103 301 103 m 186 768 q 183 801 183 790 q 222 902 183 863 q 311 942 260 942 q 372 928 344 942 q 432 890 399 915 q 474 862 458 871 q 508 853 490 853 q 539 867 528 853 q 550 907 550 881 q 549 926 550 919 l 632 926 q 633 903 633 918 q 595 801 633 840 q 499 761 557 761 q 432 776 461 761 q 371 815 403 790 q 334 841 347 833 q 307 849 321 849 q 275 833 288 849 q 263 789 263 817 q 264 768 263 775 l 186 768 z "},"ṍ":{"ha":803,"x_min":67,"x_max":738,"o":"m 401 -21 q 151 74 235 -21 q 67 349 67 168 q 400 714 67 714 q 653 620 568 714 q 738 349 738 526 q 650 75 738 171 q 401 -21 563 -21 m 400 103 q 592 349 592 103 q 546 531 592 471 q 400 592 500 592 q 255 530 299 592 q 211 349 211 468 q 256 166 211 229 q 400 103 301 103 m 186 768 q 183 801 183 790 q 222 902 183 863 q 311 942 260 942 q 372 928 344 942 q 432 890 399 915 q 474 862 458 871 q 508 853 490 853 q 539 867 528 853 q 550 907 550 881 q 549 926 550 919 l 632 926 q 633 903 633 918 q 595 801 633 840 q 499 761 557 761 q 432 776 461 761 q 371 815 403 790 q 334 841 347 833 q 307 849 321 849 q 275 833 288 849 q 263 789 263 817 q 264 768 263 775 l 186 768 m 356 1029 l 428 1193 l 574 1193 l 442 1029 l 356 1029 z "},"ṏ":{"ha":803,"x_min":67,"x_max":738,"o":"m 401 -21 q 151 74 235 -21 q 67 349 67 168 q 400 714 67 714 q 653 620 568 714 q 738 349 738 526 q 650 75 738 171 q 401 -21 563 -21 m 400 103 q 592 349 592 103 q 546 531 592 471 q 400 592 500 592 q 255 530 299 592 q 211 349 211 468 q 256 166 211 229 q 400 103 301 103 m 186 768 q 183 801 183 790 q 222 902 183 863 q 311 942 260 942 q 372 928 344 942 q 432 890 399 915 q 474 862 458 871 q 508 853 490 853 q 539 867 528 853 q 550 907 550 881 q 549 926 550 919 l 632 926 q 633 903 633 918 q 595 801 633 840 q 499 761 557 761 q 432 776 461 761 q 371 815 403 790 q 334 841 347 833 q 307 849 321 849 q 275 833 288 849 q 263 789 263 817 q 264 768 263 775 l 186 768 m 225 1033 l 225 1156 l 365 1156 l 365 1033 l 225 1033 m 453 1033 l 453 1156 l 592 1156 l 592 1033 l 453 1033 z "},"ȭ":{"ha":803,"x_min":67,"x_max":738,"o":"m 401 -21 q 151 74 235 -21 q 67 349 67 168 q 400 714 67 714 q 653 620 568 714 q 738 349 738 526 q 650 75 738 171 q 401 -21 563 -21 m 400 103 q 592 349 592 103 q 546 531 592 471 q 400 592 500 592 q 255 530 299 592 q 211 349 211 468 q 256 166 211 229 q 400 103 301 103 m 186 768 q 183 801 183 790 q 222 902 183 863 q 311 942 260 942 q 372 928 344 942 q 432 890 399 915 q 474 862 458 871 q 508 853 490 853 q 539 867 528 853 q 550 907 550 881 q 549 926 550 919 l 632 926 q 633 903 633 918 q 595 801 633 840 q 499 761 557 761 q 432 776 461 761 q 371 815 403 790 q 334 841 347 833 q 307 849 321 849 q 275 833 288 849 q 263 789 263 817 q 264 768 263 775 l 186 768 m 226 1039 l 226 1138 l 576 1138 l 576 1039 l 226 1039 z "},"œ":{"ha":1297,"x_min":67,"x_max":1233,"o":"m 919 714 q 1158 609 1082 714 q 1232 315 1233 504 l 743 315 q 803 159 750 213 q 956 106 857 106 q 1078 122 1019 106 q 1181 163 1136 138 l 1181 26 q 932 -21 1072 -21 q 778 9 846 -21 q 667 96 710 39 q 401 -21 582 -21 q 151 74 235 -21 q 67 349 67 168 q 400 714 67 714 q 667 603 583 714 q 919 714 750 714 m 915 594 q 800 556 842 594 q 746 424 758 517 l 1083 424 q 1033 553 1074 513 q 915 594 993 594 m 400 103 q 592 349 592 103 q 546 531 592 471 q 400 592 500 592 q 255 530 299 592 q 211 349 211 468 q 256 166 211 229 q 400 103 301 103 z "},"p":{"ha":810,"x_min":103,"x_max":743,"o":"m 407 714 q 651 625 558 714 q 743 336 743 536 q 658 76 743 172 q 421 -19 574 -19 q 335 -10 383 -19 q 247 19 286 0 l 247 -279 l 103 -279 l 103 563 q 192 678 103 642 q 407 714 282 714 m 394 104 q 544 165 493 104 q 594 339 594 225 q 552 522 594 457 q 401 588 510 588 q 290 572 332 588 q 247 531 247 557 l 247 144 q 394 104 315 104 z "},"þ":{"ha":806,"x_min":103,"x_max":740,"o":"m 407 704 q 649 615 557 704 q 740 328 740 526 q 655 72 740 167 q 418 -24 569 -24 q 334 -14 382 -24 q 247 14 286 -4 l 247 -268 l 103 -268 l 103 961 l 247 961 l 247 686 q 407 704 324 704 m 396 100 q 541 160 492 100 q 590 331 590 219 q 549 513 590 447 q 403 578 508 578 q 299 565 344 578 q 247 528 254 551 l 247 140 q 396 100 318 100 z "},"q":{"ha":810,"x_min":67,"x_max":707,"o":"m 424 713 q 707 533 707 713 l 707 -287 l 563 -287 l 563 21 q 477 -10 524 0 q 393 -19 431 -19 q 151 74 236 -19 q 67 333 67 167 q 424 713 67 713 m 215 339 q 267 165 215 226 q 414 104 319 104 q 563 144 494 104 l 563 517 q 520 568 563 550 q 422 586 478 586 q 260 521 306 586 q 215 339 215 456 z "},"r":{"ha":554,"x_min":103,"x_max":514,"o":"m 103 633 q 235 685 142 657 q 419 713 328 713 q 514 694 475 713 l 514 578 q 421 583 475 583 q 249 569 329 583 l 249 0 l 103 0 l 103 633 z "},"ŕ":{"ha":554,"x_min":103,"x_max":514,"o":"m 103 633 q 235 685 142 657 q 419 713 328 713 q 514 694 475 713 l 514 578 q 421 583 475 583 q 249 569 329 583 l 249 0 l 103 0 l 103 633 m 214 785 l 286 949 l 432 949 l 300 785 l 214 785 z "},"ř":{"ha":554,"x_min":99,"x_max":514,"o":"m 103 633 q 235 685 142 657 q 419 713 328 713 q 514 694 475 713 l 514 578 q 421 583 475 583 q 249 569 329 583 l 249 0 l 103 0 l 103 633 m 211 792 l 99 960 l 200 960 l 261 868 l 322 960 l 424 960 l 317 792 l 211 792 z "},"ŗ":{"ha":554,"x_min":64,"x_max":514,"o":"m 103 633 q 235 685 142 657 q 419 713 328 713 q 514 694 475 713 l 514 578 q 421 583 475 583 q 249 569 329 583 l 249 0 l 103 0 l 103 633 m 64 -185 q 108 -143 97 -174 q 118 -68 119 -112 l 233 -68 q 186 -209 235 -158 q 64 -268 138 -260 l 64 -185 z "},"ȑ":{"ha":554,"x_min":15,"x_max":514,"o":"m 103 633 q 235 685 142 657 q 419 713 328 713 q 514 694 475 713 l 514 578 q 421 583 475 583 q 249 569 329 583 l 249 0 l 103 0 l 103 633 m 147 785 l 15 949 l 160 949 l 233 785 l 147 785 m 363 785 l 231 949 l 375 949 l 449 785 l 363 785 z "},"ȓ":{"ha":554,"x_min":65,"x_max":514,"o":"m 103 633 q 235 685 142 657 q 419 713 328 713 q 514 694 475 713 l 514 578 q 421 583 475 583 q 249 569 329 583 l 249 0 l 103 0 l 103 633 m 263 915 q 395 870 343 915 q 458 746 447 825 l 368 746 q 263 829 336 829 q 197 806 224 829 q 156 746 169 783 l 65 746 q 132 871 82 826 q 263 915 182 915 z "},"ṟ":{"ha":554,"x_min":-24,"x_max":514,"o":"m 103 633 q 235 685 142 657 q 419 713 328 713 q 514 694 475 713 l 514 578 q 421 583 475 583 q 249 569 329 583 l 249 0 l 103 0 l 103 633 m -24 -181 l -24 -82 l 326 -82 l 326 -181 l -24 -181 z "},"s":{"ha":649,"x_min":74,"x_max":581,"o":"m 304 -21 q 184 -7 235 -21 q 75 35 133 7 l 75 172 q 189 115 138 133 q 304 96 240 96 q 398 120 364 96 q 432 183 432 144 q 404 239 432 221 q 318 278 376 257 l 286 289 q 131 357 189 313 q 74 496 74 401 q 113 618 74 569 q 210 689 151 667 q 335 711 269 711 q 447 695 401 710 q 547 653 493 681 l 547 528 q 438 579 475 565 q 350 593 401 593 q 258 572 293 593 q 224 514 224 551 q 258 449 224 469 q 367 408 293 429 q 477 371 436 389 q 549 312 518 353 q 581 200 581 271 q 499 34 579 89 q 304 -21 419 -21 z "},"ś":{"ha":649,"x_min":74,"x_max":581,"o":"m 304 -21 q 184 -7 235 -21 q 75 35 133 7 l 75 172 q 189 115 138 133 q 304 96 240 96 q 398 120 364 96 q 432 183 432 144 q 404 239 432 221 q 318 278 376 257 l 286 289 q 131 357 189 313 q 74 496 74 401 q 113 618 74 569 q 210 689 151 667 q 335 711 269 711 q 447 695 401 710 q 547 653 493 681 l 547 528 q 438 579 475 565 q 350 593 401 593 q 258 572 293 593 q 224 514 224 551 q 258 449 224 469 q 367 408 293 429 q 477 371 436 389 q 549 312 518 353 q 581 200 581 271 q 499 34 579 89 q 304 -21 419 -21 m 279 785 l 351 949 l 497 949 l 365 785 l 279 785 z "},"ṥ":{"ha":649,"x_min":74,"x_max":581,"o":"m 304 -21 q 184 -7 235 -21 q 75 35 133 7 l 75 172 q 189 115 138 133 q 304 96 240 96 q 398 120 364 96 q 432 183 432 144 q 404 239 432 221 q 318 278 376 257 l 286 289 q 131 357 189 313 q 74 496 74 401 q 113 618 74 569 q 210 689 151 667 q 335 711 269 711 q 447 695 401 710 q 547 653 493 681 l 547 528 q 438 579 475 565 q 350 593 401 593 q 258 572 293 593 q 224 514 224 551 q 258 449 224 469 q 367 408 293 429 q 477 371 436 389 q 549 312 518 353 q 581 200 581 271 q 499 34 579 89 q 304 -21 419 -21 m 279 785 l 351 949 l 497 949 l 365 785 l 279 785 m 306 1032 l 306 1154 l 440 1154 l 440 1032 l 306 1032 z "},"š":{"ha":649,"x_min":74,"x_max":581,"o":"m 304 -21 q 184 -7 235 -21 q 75 35 133 7 l 75 172 q 189 115 138 133 q 304 96 240 96 q 398 120 364 96 q 432 183 432 144 q 404 239 432 221 q 318 278 376 257 l 286 289 q 131 357 189 313 q 74 496 74 401 q 113 618 74 569 q 210 689 151 667 q 335 711 269 711 q 447 695 401 710 q 547 653 493 681 l 547 528 q 438 579 475 565 q 350 593 401 593 q 258 572 293 593 q 224 514 224 551 q 258 449 224 469 q 367 408 293 429 q 477 371 436 389 q 549 312 518 353 q 581 200 581 271 q 499 34 579 89 q 304 -21 419 -21 m 276 792 l 164 960 l 265 960 l 326 868 l 388 960 l 489 960 l 382 792 l 276 792 z "},"ṧ":{"ha":649,"x_min":74,"x_max":581,"o":"m 304 -21 q 184 -7 235 -21 q 75 35 133 7 l 75 172 q 189 115 138 133 q 304 96 240 96 q 398 120 364 96 q 432 183 432 144 q 404 239 432 221 q 318 278 376 257 l 286 289 q 131 357 189 313 q 74 496 74 401 q 113 618 74 569 q 210 689 151 667 q 335 711 269 711 q 447 695 401 710 q 547 653 493 681 l 547 528 q 438 579 475 565 q 350 593 401 593 q 258 572 293 593 q 224 514 224 551 q 258 449 224 469 q 367 408 293 429 q 477 371 436 389 q 549 312 518 353 q 581 200 581 271 q 499 34 579 89 q 304 -21 419 -21 m 276 792 l 164 960 l 265 960 l 326 868 l 388 960 l 489 960 l 382 792 l 276 792 m 254 1039 l 254 1161 l 389 1161 l 389 1039 l 254 1039 z "},"ş":{"ha":649,"x_min":74,"x_max":581,"o":"m 581 200 q 531 63 579 115 q 403 -10 482 11 l 324 -175 l 183 -175 l 292 -21 q 180 -6 228 -19 q 75 35 132 8 l 75 172 q 189 115 138 133 q 304 96 240 96 q 398 120 364 96 q 432 183 432 144 q 404 239 432 221 q 318 278 376 257 l 286 289 q 131 357 189 313 q 74 496 74 401 q 113 618 74 569 q 210 689 151 667 q 335 711 269 711 q 447 695 401 710 q 547 653 493 681 l 547 528 q 438 579 475 565 q 350 593 401 593 q 258 572 293 593 q 224 514 224 551 q 258 449 224 469 q 367 408 293 429 q 477 371 436 389 q 549 312 518 353 q 581 200 581 271 z "},"ŝ":{"ha":649,"x_min":74,"x_max":581,"o":"m 304 -21 q 184 -7 235 -21 q 75 35 133 7 l 75 172 q 189 115 138 133 q 304 96 240 96 q 398 120 364 96 q 432 183 432 144 q 404 239 432 221 q 318 278 376 257 l 286 289 q 131 357 189 313 q 74 496 74 401 q 113 618 74 569 q 210 689 151 667 q 335 711 269 711 q 447 695 401 710 q 547 653 493 681 l 547 528 q 438 579 475 565 q 350 593 401 593 q 258 572 293 593 q 224 514 224 551 q 258 449 224 469 q 367 408 293 429 q 477 371 436 389 q 549 312 518 353 q 581 200 581 271 q 499 34 579 89 q 304 -21 419 -21 m 156 788 l 272 956 l 393 956 l 508 788 l 413 788 l 332 878 l 251 788 l 156 788 z "},"ș":{"ha":649,"x_min":74,"x_max":581,"o":"m 304 -21 q 184 -7 235 -21 q 75 35 133 7 l 75 172 q 189 115 138 133 q 304 96 240 96 q 398 120 364 96 q 432 183 432 144 q 404 239 432 221 q 318 278 376 257 l 286 289 q 131 357 189 313 q 74 496 74 401 q 113 618 74 569 q 210 689 151 667 q 335 711 269 711 q 447 695 401 710 q 547 653 493 681 l 547 528 q 438 579 475 565 q 350 593 401 593 q 258 572 293 593 q 224 514 224 551 q 258 449 224 469 q 367 408 293 429 q 477 371 436 389 q 549 312 518 353 q 581 200 581 271 q 499 34 579 89 q 304 -21 419 -21 m 204 -185 q 249 -143 238 -174 q 258 -68 260 -112 l 374 -68 q 326 -209 375 -158 q 204 -268 278 -260 l 204 -185 z "},"ṡ":{"ha":649,"x_min":74,"x_max":581,"o":"m 304 -21 q 184 -7 235 -21 q 75 35 133 7 l 75 172 q 189 115 138 133 q 304 96 240 96 q 398 120 364 96 q 432 183 432 144 q 404 239 432 221 q 318 278 376 257 l 286 289 q 131 357 189 313 q 74 496 74 401 q 113 618 74 569 q 210 689 151 667 q 335 711 269 711 q 447 695 401 710 q 547 653 493 681 l 547 528 q 438 579 475 565 q 350 593 401 593 q 258 572 293 593 q 224 514 224 551 q 258 449 224 469 q 367 408 293 429 q 477 371 436 389 q 549 312 518 353 q 581 200 581 271 q 499 34 579 89 q 304 -21 419 -21 m 254 785 l 254 907 l 389 907 l 389 785 l 254 785 z "},"ṣ":{"ha":649,"x_min":74,"x_max":581,"o":"m 304 -21 q 184 -7 235 -21 q 75 35 133 7 l 75 172 q 189 115 138 133 q 304 96 240 96 q 398 120 364 96 q 432 183 432 144 q 404 239 432 221 q 318 278 376 257 l 286 289 q 131 357 189 313 q 74 496 74 401 q 113 618 74 569 q 210 689 151 667 q 335 711 269 711 q 447 695 401 710 q 547 653 493 681 l 547 528 q 438 579 475 565 q 350 593 401 593 q 258 572 293 593 q 224 514 224 551 q 258 449 224 469 q 367 408 293 429 q 477 371 436 389 q 549 312 518 353 q 581 200 581 271 q 499 34 579 89 q 304 -21 419 -21 m 229 -192 l 229 -69 l 356 -69 l 356 -192 l 229 -192 z "},"ṩ":{"ha":649,"x_min":74,"x_max":581,"o":"m 304 -21 q 184 -7 235 -21 q 75 35 133 7 l 75 172 q 189 115 138 133 q 304 96 240 96 q 398 120 364 96 q 432 183 432 144 q 404 239 432 221 q 318 278 376 257 l 286 289 q 131 357 189 313 q 74 496 74 401 q 113 618 74 569 q 210 689 151 667 q 335 711 269 711 q 447 695 401 710 q 547 653 493 681 l 547 528 q 438 579 475 565 q 350 593 401 593 q 258 572 293 593 q 224 514 224 551 q 258 449 224 469 q 367 408 293 429 q 477 371 436 389 q 549 312 518 353 q 581 200 581 271 q 499 34 579 89 q 304 -21 419 -21 m 229 -192 l 229 -69 l 356 -69 l 356 -192 l 229 -192 m 254 785 l 254 907 l 389 907 l 389 785 l 254 785 z "},"ß":{"ha":842,"x_min":103,"x_max":776,"o":"m 103 596 q 181 853 103 754 q 413 951 260 951 q 644 892 556 951 q 733 731 733 832 q 689 594 733 649 q 589 522 644 540 q 675 474 632 508 q 747 383 718 440 q 776 249 776 325 q 745 114 776 175 q 651 17 714 53 q 496 -19 588 -19 q 361 0 439 -19 l 361 131 q 485 100 428 100 q 590 140 553 100 q 628 256 628 181 q 599 354 628 313 q 524 417 569 396 q 426 439 478 438 l 426 560 q 544 597 506 560 q 583 701 583 635 q 538 796 583 764 q 419 828 492 828 q 291 769 333 828 q 249 603 249 711 l 249 0 l 103 0 l 103 596 z "},"t":{"ha":533,"x_min":35,"x_max":467,"o":"m 351 -18 q 201 33 256 -18 q 147 179 147 85 l 147 576 l 35 576 l 35 697 l 147 697 l 147 892 l 297 892 l 297 697 l 467 697 l 467 576 l 297 576 l 297 208 q 315 134 297 157 q 379 111 333 111 q 426 117 401 111 q 467 133 450 124 l 467 4 q 351 -18 418 -18 z "},"ŧ":{"ha":507,"x_min":33,"x_max":457,"o":"m 351 -11 q 207 37 268 -11 q 146 200 146 85 l 146 326 l 51 326 l 51 425 l 146 425 l 146 581 l 33 581 l 33 693 l 146 693 l 146 892 l 288 892 l 288 693 l 457 693 l 457 581 l 288 581 l 288 425 l 436 425 l 436 326 l 288 326 l 288 185 q 308 126 288 144 q 371 107 328 107 q 457 128 415 107 l 457 11 q 351 -11 408 -11 z "},"ť":{"ha":549,"x_min":35,"x_max":615,"o":"m 351 -18 q 201 33 256 -18 q 147 179 147 85 l 147 576 l 35 576 l 35 697 l 147 697 l 147 892 l 297 892 l 297 697 l 467 697 l 467 576 l 297 576 l 297 208 q 315 134 297 157 q 379 111 333 111 q 426 117 401 111 q 467 133 450 124 l 467 4 q 351 -18 418 -18 m 375 767 l 478 1039 l 615 1039 l 494 767 l 375 767 z "},"ţ":{"ha":533,"x_min":35,"x_max":467,"o":"m 297 576 l 297 208 q 315 134 297 157 q 379 111 333 111 q 426 117 401 111 q 467 133 450 124 l 467 4 q 365 -18 425 -15 l 290 -175 l 150 -175 l 268 -7 l 271 -7 q 179 60 211 13 q 147 179 147 107 l 147 576 l 35 576 l 35 697 l 147 697 l 147 892 l 297 892 l 297 697 l 467 697 l 467 576 l 297 576 z "},"ẗ":{"ha":533,"x_min":35,"x_max":467,"o":"m 351 -18 q 201 33 256 -18 q 147 179 147 85 l 147 576 l 35 576 l 35 697 l 147 697 l 147 892 l 297 892 l 297 697 l 467 697 l 467 576 l 297 576 l 297 208 q 315 134 297 157 q 379 111 333 111 q 426 117 401 111 q 467 133 450 124 l 467 4 q 351 -18 418 -18 m 36 975 l 36 1097 l 176 1097 l 176 975 l 36 975 m 264 975 l 264 1097 l 403 1097 l 403 975 l 264 975 z "},"ṭ":{"ha":533,"x_min":35,"x_max":467,"o":"m 351 -18 q 201 33 256 -18 q 147 179 147 85 l 147 576 l 35 576 l 35 697 l 147 697 l 147 892 l 297 892 l 297 697 l 467 697 l 467 576 l 297 576 l 297 208 q 315 134 297 157 q 379 111 333 111 q 426 117 401 111 q 467 133 450 124 l 467 4 q 351 -18 418 -18 m 196 -192 l 196 -69 l 322 -69 l 322 -192 l 196 -192 z "},"ṯ":{"ha":533,"x_min":35,"x_max":467,"o":"m 351 -18 q 201 33 256 -18 q 147 179 147 85 l 147 576 l 35 576 l 35 697 l 147 697 l 147 892 l 297 892 l 297 697 l 467 697 l 467 576 l 297 576 l 297 208 q 315 134 297 157 q 379 111 333 111 q 426 117 401 111 q 467 133 450 124 l 467 4 q 351 -18 418 -18 m 83 -181 l 83 -82 l 433 -82 l 433 -181 l 83 -181 z "},"u":{"ha":817,"x_min":103,"x_max":714,"o":"m 411 -21 q 184 51 265 -21 q 103 260 103 122 l 103 697 l 249 697 l 249 281 q 288 149 249 192 q 411 107 328 107 q 534 149 494 107 q 574 281 574 192 l 574 697 l 714 697 l 714 260 q 635 51 714 122 q 411 -21 556 -21 z "},"ú":{"ha":817,"x_min":103,"x_max":714,"o":"m 411 -21 q 184 51 265 -21 q 103 260 103 122 l 103 697 l 249 697 l 249 281 q 288 149 249 192 q 411 107 328 107 q 534 149 494 107 q 574 281 574 192 l 574 697 l 714 697 l 714 260 q 635 51 714 122 q 411 -21 556 -21 m 364 785 l 436 949 l 582 949 l 450 785 l 364 785 z "},"ŭ":{"ha":817,"x_min":103,"x_max":714,"o":"m 411 -21 q 184 51 265 -21 q 103 260 103 122 l 103 697 l 249 697 l 249 281 q 288 149 249 192 q 411 107 328 107 q 534 149 494 107 q 574 281 574 192 l 574 697 l 714 697 l 714 260 q 635 51 714 122 q 411 -21 556 -21 m 413 761 q 282 806 332 761 q 215 931 232 850 l 306 931 q 347 870 319 893 q 413 847 374 847 q 518 931 486 847 l 608 931 q 545 806 597 851 q 413 761 493 761 z "},"ǔ":{"ha":817,"x_min":103,"x_max":714,"o":"m 411 -21 q 184 51 265 -21 q 103 260 103 122 l 103 697 l 249 697 l 249 281 q 288 149 249 192 q 411 107 328 107 q 534 149 494 107 q 574 281 574 192 l 574 697 l 714 697 l 714 260 q 635 51 714 122 q 411 -21 556 -21 m 361 792 l 249 960 l 350 960 l 411 868 l 472 960 l 574 960 l 467 792 l 361 792 z "},"û":{"ha":817,"x_min":103,"x_max":714,"o":"m 411 -21 q 184 51 265 -21 q 103 260 103 122 l 103 697 l 249 697 l 249 281 q 288 149 249 192 q 411 107 328 107 q 534 149 494 107 q 574 281 574 192 l 574 697 l 714 697 l 714 260 q 635 51 714 122 q 411 -21 556 -21 m 240 788 l 357 956 l 478 956 l 593 788 l 497 788 l 417 878 l 336 788 l 240 788 z "},"ȕ":{"ha":817,"x_min":103,"x_max":714,"o":"m 411 -21 q 184 51 265 -21 q 103 260 103 122 l 103 697 l 249 697 l 249 281 q 288 149 249 192 q 411 107 328 107 q 534 149 494 107 q 574 281 574 192 l 574 697 l 714 697 l 714 260 q 635 51 714 122 q 411 -21 556 -21 m 297 785 l 165 949 l 310 949 l 383 785 l 297 785 m 513 785 l 381 949 l 525 949 l 599 785 l 513 785 z "},"ü":{"ha":817,"x_min":103,"x_max":714,"o":"m 411 -21 q 184 51 265 -21 q 103 260 103 122 l 103 697 l 249 697 l 249 281 q 288 149 249 192 q 411 107 328 107 q 534 149 494 107 q 574 281 574 192 l 574 697 l 714 697 l 714 260 q 635 51 714 122 q 411 -21 556 -21 m 233 789 l 233 911 l 374 911 l 374 789 l 233 789 m 461 789 l 461 911 l 600 911 l 600 789 l 461 789 z "},"ụ":{"ha":829,"x_min":115,"x_max":714,"o":"m 415 -11 q 194 68 272 -11 q 115 297 115 147 l 115 693 l 257 693 l 257 282 q 296 150 257 193 q 415 107 335 107 q 534 150 496 107 q 572 282 572 193 l 572 693 l 714 693 l 714 297 q 635 68 714 147 q 415 -11 557 -11 m 351 -190 l 351 -68 l 479 -68 l 479 -190 l 351 -190 z "},"ù":{"ha":817,"x_min":103,"x_max":714,"o":"m 411 -21 q 184 51 265 -21 q 103 260 103 122 l 103 697 l 249 697 l 249 281 q 288 149 249 192 q 411 107 328 107 q 534 149 494 107 q 574 281 574 192 l 574 697 l 714 697 l 714 260 q 635 51 714 122 q 411 -21 556 -21 m 372 785 l 240 949 l 385 949 l 458 785 l 372 785 z "},"ủ":{"ha":829,"x_min":115,"x_max":714,"o":"m 389 856 q 424 864 411 856 q 436 885 436 872 q 420 910 436 901 q 378 919 404 919 q 339 915 357 919 l 339 979 q 390 985 364 985 q 480 961 443 985 q 517 889 517 938 q 496 838 517 857 q 446 813 475 818 l 446 781 l 389 781 l 389 856 m 415 -11 q 194 68 272 -11 q 115 297 115 147 l 115 693 l 257 693 l 257 282 q 296 150 257 193 q 415 107 335 107 q 534 150 496 107 q 572 282 572 193 l 572 693 l 714 693 l 714 297 q 635 68 714 147 q 415 -11 557 -11 z "},"ư":{"ha":817,"x_min":103,"x_max":843,"o":"m 843 822 l 843 767 q 808 668 843 707 q 714 615 772 629 l 714 260 q 635 51 714 122 q 411 -21 556 -21 q 184 51 265 -21 q 103 260 103 122 l 103 697 l 249 697 l 249 281 q 288 149 249 192 q 411 107 328 107 q 534 149 494 107 q 574 281 574 192 l 574 697 l 643 697 q 717 721 686 697 q 747 779 747 744 l 747 822 l 843 822 z "},"ứ":{"ha":817,"x_min":103,"x_max":843,"o":"m 843 822 l 843 767 q 808 668 843 707 q 714 615 772 629 l 714 260 q 635 51 714 122 q 411 -21 556 -21 q 184 51 265 -21 q 103 260 103 122 l 103 697 l 249 697 l 249 281 q 288 149 249 192 q 411 107 328 107 q 534 149 494 107 q 574 281 574 192 l 574 697 l 643 697 q 717 721 686 697 q 747 779 747 744 l 747 822 l 843 822 m 364 785 l 436 949 l 582 949 l 450 785 l 364 785 z "},"ự":{"ha":817,"x_min":103,"x_max":843,"o":"m 843 822 l 843 767 q 808 668 843 707 q 714 615 772 629 l 714 260 q 635 51 714 122 q 411 -21 556 -21 q 184 51 265 -21 q 103 260 103 122 l 103 697 l 249 697 l 249 281 q 288 149 249 192 q 411 107 328 107 q 534 149 494 107 q 574 281 574 192 l 574 697 l 643 697 q 717 721 686 697 q 747 779 747 744 l 747 822 l 843 822 m 344 -192 l 344 -69 l 471 -69 l 471 -192 l 344 -192 z "},"ừ":{"ha":817,"x_min":103,"x_max":843,"o":"m 843 822 l 843 767 q 808 668 843 707 q 714 615 772 629 l 714 260 q 635 51 714 122 q 411 -21 556 -21 q 184 51 265 -21 q 103 260 103 122 l 103 697 l 249 697 l 249 281 q 288 149 249 192 q 411 107 328 107 q 534 149 494 107 q 574 281 574 192 l 574 697 l 643 697 q 717 721 686 697 q 747 779 747 744 l 747 822 l 843 822 m 372 785 l 240 949 l 385 949 l 458 785 l 372 785 z "},"ử":{"ha":817,"x_min":103,"x_max":843,"o":"m 843 822 l 843 767 q 808 668 843 707 q 714 615 772 629 l 714 260 q 635 51 714 122 q 411 -21 556 -21 q 184 51 265 -21 q 103 260 103 122 l 103 697 l 249 697 l 249 281 q 288 149 249 192 q 411 107 328 107 q 534 149 494 107 q 574 281 574 192 l 574 697 l 643 697 q 717 721 686 697 q 747 779 747 744 l 747 822 l 843 822 m 374 853 q 411 863 397 853 q 425 886 425 874 q 361 921 425 921 q 322 917 343 921 l 322 986 q 382 990 343 990 q 482 967 442 990 q 522 890 522 943 q 503 836 522 857 q 446 810 483 815 l 446 778 l 374 778 l 374 853 z "},"ữ":{"ha":817,"x_min":103,"x_max":843,"o":"m 843 822 l 843 767 q 808 668 843 707 q 714 615 772 629 l 714 260 q 635 51 714 122 q 411 -21 556 -21 q 184 51 265 -21 q 103 260 103 122 l 103 697 l 249 697 l 249 281 q 288 149 249 192 q 411 107 328 107 q 534 149 494 107 q 574 281 574 192 l 574 697 l 643 697 q 717 721 686 697 q 747 779 747 744 l 747 822 l 843 822 m 194 764 q 192 797 192 786 q 230 898 192 858 q 319 938 268 938 q 380 924 353 938 q 440 886 407 911 q 483 858 467 867 q 517 849 499 849 q 547 863 536 849 q 558 903 558 876 q 557 922 558 915 l 640 922 q 642 899 642 914 q 603 797 642 836 q 507 757 565 757 q 440 772 469 757 q 379 811 411 786 q 342 837 356 829 q 315 844 329 844 q 283 828 296 844 q 271 785 271 813 q 272 764 271 771 l 194 764 z "},"ű":{"ha":817,"x_min":103,"x_max":714,"o":"m 411 -21 q 184 51 265 -21 q 103 260 103 122 l 103 697 l 249 697 l 249 281 q 288 149 249 192 q 411 107 328 107 q 534 149 494 107 q 574 281 574 192 l 574 697 l 714 697 l 714 260 q 635 51 714 122 q 411 -21 556 -21 m 276 789 l 358 949 l 478 949 l 358 789 l 276 789 m 456 789 l 538 949 l 658 949 l 539 789 l 456 789 z "},"ȗ":{"ha":817,"x_min":103,"x_max":714,"o":"m 411 -21 q 184 51 265 -21 q 103 260 103 122 l 103 697 l 249 697 l 249 281 q 288 149 249 192 q 411 107 328 107 q 534 149 494 107 q 574 281 574 192 l 574 697 l 714 697 l 714 260 q 635 51 714 122 q 411 -21 556 -21 m 413 915 q 545 870 493 915 q 608 746 597 825 l 518 746 q 413 829 486 829 q 347 806 374 829 q 306 746 319 783 l 215 746 q 282 871 232 826 q 413 915 332 915 z "},"ū":{"ha":817,"x_min":103,"x_max":714,"o":"m 411 -21 q 184 51 265 -21 q 103 260 103 122 l 103 697 l 249 697 l 249 281 q 288 149 249 192 q 411 107 328 107 q 534 149 494 107 q 574 281 574 192 l 574 697 l 714 697 l 714 260 q 635 51 714 122 q 411 -21 556 -21 m 235 794 l 235 893 l 585 893 l 585 794 l 235 794 z "},"ṻ":{"ha":817,"x_min":103,"x_max":714,"o":"m 411 -21 q 184 51 265 -21 q 103 260 103 122 l 103 697 l 249 697 l 249 281 q 288 149 249 192 q 411 107 328 107 q 534 149 494 107 q 574 281 574 192 l 574 697 l 714 697 l 714 260 q 635 51 714 122 q 411 -21 556 -21 m 235 794 l 235 893 l 585 893 l 585 794 l 235 794 m 233 976 l 233 1099 l 374 1099 l 374 976 l 233 976 m 461 976 l 461 1099 l 600 1099 l 600 976 l 461 976 z "},"ț":{"ha":507,"x_min":33,"x_max":457,"o":"m 351 -11 q 207 37 268 -11 q 146 200 146 85 l 146 581 l 33 581 l 33 693 l 146 693 l 146 892 l 288 892 l 288 693 l 457 693 l 457 581 l 288 581 l 288 185 q 308 126 288 144 q 371 107 328 107 q 457 128 415 107 l 457 11 q 351 -11 408 -11 m 213 -189 q 257 -146 246 -178 q 268 -68 268 -114 l 365 -68 q 320 -208 365 -157 q 213 -268 275 -260 l 213 -189 z "},"ų":{"ha":817,"x_min":103,"x_max":714,"o":"m 714 697 l 714 260 q 672 96 714 161 q 553 1 631 31 l 564 0 q 433 -114 433 -60 q 445 -151 433 -140 q 481 -161 457 -161 q 564 -119 519 -161 l 564 -221 q 517 -241 540 -233 q 461 -249 494 -249 q 354 -217 392 -249 q 317 -126 317 -186 q 333 -70 317 -99 q 379 -19 349 -42 q 176 59 249 -12 q 103 260 103 131 l 103 697 l 249 697 l 249 281 q 288 149 249 192 q 411 107 328 107 q 534 149 494 107 q 574 281 574 192 l 574 697 l 714 697 z "},"ů":{"ha":817,"x_min":103,"x_max":714,"o":"m 411 -21 q 184 51 265 -21 q 103 260 103 122 l 103 697 l 249 697 l 249 281 q 288 149 249 192 q 411 107 328 107 q 534 149 494 107 q 574 281 574 192 l 574 697 l 714 697 l 714 260 q 635 51 714 122 q 411 -21 556 -21 m 413 751 q 298 783 335 751 q 261 881 261 815 q 298 978 261 946 q 413 1010 335 1010 q 564 881 564 1010 q 413 751 564 751 m 413 821 q 468 834 453 821 q 483 881 483 847 q 468 927 483 914 q 413 940 453 940 q 356 927 371 940 q 340 881 340 914 q 356 834 340 847 q 413 821 371 821 z "},"ũ":{"ha":817,"x_min":103,"x_max":714,"o":"m 411 -21 q 184 51 265 -21 q 103 260 103 122 l 103 697 l 249 697 l 249 281 q 288 149 249 192 q 411 107 328 107 q 534 149 494 107 q 574 281 574 192 l 574 697 l 714 697 l 714 260 q 635 51 714 122 q 411 -21 556 -21 m 194 764 q 192 797 192 786 q 230 898 192 858 q 319 938 268 938 q 380 924 353 938 q 440 886 407 911 q 483 858 467 867 q 517 849 499 849 q 547 863 536 849 q 558 903 558 876 q 557 922 558 915 l 640 922 q 642 899 642 914 q 603 797 642 836 q 507 757 565 757 q 440 772 469 757 q 379 811 411 786 q 342 837 356 829 q 315 844 329 844 q 283 828 296 844 q 271 785 271 813 q 272 764 271 771 l 194 764 z "},"ṹ":{"ha":817,"x_min":103,"x_max":714,"o":"m 411 -21 q 184 51 265 -21 q 103 260 103 122 l 103 697 l 249 697 l 249 281 q 288 149 249 192 q 411 107 328 107 q 534 149 494 107 q 574 281 574 192 l 574 697 l 714 697 l 714 260 q 635 51 714 122 q 411 -21 556 -21 m 194 764 q 192 797 192 786 q 230 898 192 858 q 319 938 268 938 q 380 924 353 938 q 440 886 407 911 q 483 858 467 867 q 517 849 499 849 q 547 863 536 849 q 558 903 558 876 q 557 922 558 915 l 640 922 q 642 899 642 914 q 603 797 642 836 q 507 757 565 757 q 440 772 469 757 q 379 811 411 786 q 342 837 356 829 q 315 844 329 844 q 283 828 296 844 q 271 785 271 813 q 272 764 271 771 l 194 764 m 364 1025 l 436 1189 l 582 1189 l 450 1025 l 364 1025 z "},"v":{"ha":818,"x_min":43,"x_max":776,"o":"m 625 697 l 776 697 l 482 0 l 336 0 l 43 697 l 200 697 l 421 160 l 625 697 z "},"w":{"ha":1124,"x_min":43,"x_max":1082,"o":"m 932 697 l 1082 697 l 850 0 l 711 0 l 561 496 l 413 0 l 275 0 l 43 697 l 199 697 l 354 172 l 501 697 l 622 697 l 774 169 l 932 697 z "},"ẃ":{"ha":1124,"x_min":43,"x_max":1082,"o":"m 932 697 l 1082 697 l 850 0 l 711 0 l 561 496 l 413 0 l 275 0 l 43 697 l 199 697 l 354 172 l 501 697 l 622 697 l 774 169 l 932 697 m 515 776 l 588 940 l 733 940 l 601 776 l 515 776 z "},"ŵ":{"ha":1124,"x_min":43,"x_max":1082,"o":"m 932 697 l 1082 697 l 850 0 l 711 0 l 561 496 l 413 0 l 275 0 l 43 697 l 199 697 l 354 172 l 501 697 l 622 697 l 774 169 l 932 697 m 392 779 l 508 947 l 629 947 l 744 779 l 649 779 l 568 869 l 488 779 l 392 779 z "},"ẅ":{"ha":1124,"x_min":43,"x_max":1082,"o":"m 932 697 l 1082 697 l 850 0 l 711 0 l 561 496 l 413 0 l 275 0 l 43 697 l 199 697 l 354 172 l 501 697 l 622 697 l 774 169 l 932 697 m 385 781 l 385 903 l 525 903 l 525 781 l 385 781 m 613 781 l 613 903 l 751 903 l 751 781 l 613 781 z "},"ẁ":{"ha":1124,"x_min":43,"x_max":1082,"o":"m 932 697 l 1082 697 l 850 0 l 711 0 l 561 496 l 413 0 l 275 0 l 43 697 l 199 697 l 354 172 l 501 697 l 622 697 l 774 169 l 932 697 m 524 776 l 392 940 l 536 940 l 610 776 l 524 776 z "},"x":{"ha":775,"x_min":40,"x_max":733,"o":"m 733 697 l 475 351 l 731 0 l 553 0 l 376 244 l 199 0 l 40 0 l 301 347 l 47 697 l 224 697 l 400 456 l 574 697 l 733 697 z "},"y":{"ha":782,"x_min":43,"x_max":739,"o":"m 739 697 l 451 -43 q 211 -269 363 -269 q 119 -253 157 -269 l 119 -128 q 189 -142 154 -142 q 274 -106 243 -142 q 328 4 306 -69 l 43 697 l 208 697 l 399 176 l 588 697 l 739 697 z "},"ý":{"ha":782,"x_min":43,"x_max":739,"o":"m 739 697 l 451 -43 q 211 -269 363 -269 q 119 -253 157 -269 l 119 -128 q 189 -142 154 -142 q 274 -106 243 -142 q 328 4 306 -69 l 43 697 l 208 697 l 399 176 l 588 697 l 739 697 m 347 776 l 419 940 l 565 940 l 433 776 l 347 776 z "},"ŷ":{"ha":782,"x_min":43,"x_max":739,"o":"m 739 697 l 451 -43 q 211 -269 363 -269 q 119 -253 157 -269 l 119 -128 q 189 -142 154 -142 q 274 -106 243 -142 q 328 4 306 -69 l 43 697 l 208 697 l 399 176 l 588 697 l 739 697 m 224 779 l 340 947 l 461 947 l 576 779 l 481 779 l 400 869 l 319 779 l 224 779 z "},"ÿ":{"ha":782,"x_min":43,"x_max":739,"o":"m 739 697 l 451 -43 q 211 -269 363 -269 q 119 -253 157 -269 l 119 -128 q 189 -142 154 -142 q 274 -106 243 -142 q 328 4 306 -69 l 43 697 l 208 697 l 399 176 l 588 697 l 739 697 m 217 781 l 217 903 l 357 903 l 357 781 l 217 781 m 444 781 l 444 903 l 583 903 l 583 781 l 444 781 z "},"ẏ":{"ha":782,"x_min":43,"x_max":739,"o":"m 739 697 l 451 -43 q 211 -269 363 -269 q 119 -253 157 -269 l 119 -128 q 189 -142 154 -142 q 274 -106 243 -142 q 328 4 306 -69 l 43 697 l 208 697 l 399 176 l 588 697 l 739 697 m 322 776 l 322 899 l 457 899 l 457 776 l 322 776 z "},"ỵ":{"ha":782,"x_min":43,"x_max":739,"o":"m 739 697 l 451 -43 q 211 -269 363 -269 q 119 -253 157 -269 l 119 -128 q 189 -142 154 -142 q 274 -106 243 -142 q 328 4 306 -69 l 43 697 l 208 697 l 399 176 l 588 697 l 739 697 m 529 -192 l 529 -69 l 656 -69 l 656 -192 l 529 -192 z "},"ỳ":{"ha":782,"x_min":43,"x_max":739,"o":"m 739 697 l 451 -43 q 211 -269 363 -269 q 119 -253 157 -269 l 119 -128 q 189 -142 154 -142 q 274 -106 243 -142 q 328 4 306 -69 l 43 697 l 208 697 l 399 176 l 588 697 l 739 697 m 356 776 l 224 940 l 368 940 l 442 776 l 356 776 z "},"ỷ":{"ha":782,"x_min":43,"x_max":739,"o":"m 739 697 l 451 -43 q 211 -269 363 -269 q 119 -253 157 -269 l 119 -128 q 189 -142 154 -142 q 274 -106 243 -142 q 328 4 306 -69 l 43 697 l 208 697 l 399 176 l 588 697 l 739 697 m 357 844 q 394 855 381 844 q 408 878 408 865 q 344 913 408 913 q 306 908 326 913 l 306 978 q 365 982 326 982 q 465 958 425 982 q 506 882 506 935 q 486 828 506 849 q 429 801 467 807 l 429 769 l 357 769 l 357 844 z "},"ȳ":{"ha":782,"x_min":43,"x_max":739,"o":"m 739 697 l 451 -43 q 211 -269 363 -269 q 119 -253 157 -269 l 119 -128 q 189 -142 154 -142 q 274 -106 243 -142 q 328 4 306 -69 l 43 697 l 208 697 l 399 176 l 588 697 l 739 697 m 218 786 l 218 885 l 568 885 l 568 786 l 218 786 z "},"ỹ":{"ha":782,"x_min":43,"x_max":739,"o":"m 739 697 l 451 -43 q 211 -269 363 -269 q 119 -253 157 -269 l 119 -128 q 189 -142 154 -142 q 274 -106 243 -142 q 328 4 306 -69 l 43 697 l 208 697 l 399 176 l 588 697 l 739 697 m 178 756 q 175 789 175 778 q 213 890 175 850 q 303 929 251 929 q 363 916 336 929 q 424 878 390 903 q 466 849 450 858 q 500 840 482 840 q 531 854 519 840 q 542 894 542 868 q 540 914 542 907 l 624 914 q 625 890 625 906 q 587 788 625 828 q 490 749 549 749 q 424 763 453 749 q 363 803 394 778 q 326 828 339 821 q 299 836 313 836 q 267 820 279 836 q 254 776 254 804 q 256 756 254 763 l 178 756 z "},"z":{"ha":654,"x_min":63,"x_max":592,"o":"m 592 697 l 592 578 l 238 122 l 592 122 l 592 0 l 63 0 l 63 122 l 431 582 l 71 582 l 71 697 l 592 697 z "},"ź":{"ha":654,"x_min":63,"x_max":592,"o":"m 592 697 l 592 578 l 238 122 l 592 122 l 592 0 l 63 0 l 63 122 l 431 582 l 71 582 l 71 697 l 592 697 m 283 776 l 356 940 l 501 940 l 369 776 l 283 776 z "},"ž":{"ha":654,"x_min":63,"x_max":592,"o":"m 592 697 l 592 578 l 238 122 l 592 122 l 592 0 l 63 0 l 63 122 l 431 582 l 71 582 l 71 697 l 592 697 m 281 783 l 168 951 l 269 951 l 331 860 l 392 951 l 493 951 l 386 783 l 281 783 z "},"ż":{"ha":654,"x_min":63,"x_max":592,"o":"m 592 697 l 592 578 l 238 122 l 592 122 l 592 0 l 63 0 l 63 122 l 431 582 l 71 582 l 71 697 l 592 697 m 258 776 l 258 899 l 393 899 l 393 776 l 258 776 z "},"ﬁ":{"ha":872,"x_min":50,"x_max":769,"o":"m 161 576 l 50 576 l 50 697 l 163 697 l 163 725 q 234 939 163 886 q 406 992 306 992 q 483 982 444 992 l 483 853 q 454 865 467 861 q 424 869 442 869 q 365 861 389 869 q 324 824 340 853 q 308 738 308 796 l 308 697 l 483 697 l 483 576 l 307 576 l 307 0 l 161 0 l 161 576 m 614 808 l 614 940 l 769 940 l 769 808 l 614 808 m 618 0 l 618 693 l 764 693 l 765 0 l 618 0 z "},"ﬂ":{"ha":864,"x_min":50,"x_max":760,"o":"m 161 576 l 50 576 l 50 697 l 163 697 l 163 725 q 234 939 163 886 q 406 992 306 992 q 483 982 444 992 l 483 853 q 454 865 467 861 q 424 869 442 869 q 365 861 389 869 q 324 824 340 853 q 308 738 308 796 l 308 697 l 483 697 l 483 576 l 307 576 l 307 0 l 161 0 l 161 576 m 760 0 l 615 0 l 615 961 l 760 961 l 760 0 z "},"ª":{"ha":553,"x_min":101,"x_max":436,"o":"m 268 536 q 151 565 201 536 q 101 663 101 593 q 140 757 101 728 q 254 786 179 786 q 319 781 290 786 q 353 771 347 775 q 261 868 353 868 q 139 844 201 868 l 139 913 q 265 938 203 938 q 436 775 436 938 l 436 660 q 268 536 436 536 m 269 600 q 353 658 353 600 l 353 717 q 323 724 344 719 q 278 729 301 729 q 213 715 240 729 q 185 664 185 701 q 209 615 185 629 q 269 600 233 600 z "},"º":{"ha":582,"x_min":104,"x_max":469,"o":"m 288 540 q 156 586 208 540 q 104 739 104 632 q 156 892 104 846 q 288 939 207 939 q 418 893 367 939 q 469 739 469 847 q 418 586 469 632 q 288 540 367 540 m 288 606 q 366 638 342 606 q 390 739 390 669 q 366 842 390 810 q 288 874 342 874 q 208 842 233 874 q 183 739 183 810 q 208 638 183 669 q 288 606 233 606 z "},"π":{"ha":869,"x_min":47,"x_max":821,"o":"m 193 0 l 193 576 l 47 576 l 47 693 l 821 693 l 821 576 l 675 576 l 675 0 l 558 0 l 558 576 l 310 576 l 310 0 l 193 0 z "},"₀":{"ha":525,"x_min":51,"x_max":472,"o":"m 263 -217 q 103 -153 156 -217 q 51 39 51 -89 q 103 231 51 167 q 263 294 156 294 q 421 231 369 294 q 472 39 472 167 q 421 -153 472 -89 q 263 -217 369 -217 m 263 -126 q 329 -90 299 -126 q 360 39 360 -54 q 329 169 360 133 q 263 206 299 206 q 194 169 225 206 q 163 39 163 133 q 194 -90 163 -54 q 263 -126 225 -126 z "},"₁":{"ha":332,"x_min":58,"x_max":240,"o":"m 154 292 l 240 292 l 240 -207 l 124 -207 l 124 151 l 58 111 l 58 231 l 154 292 z "},"₂":{"ha":460,"x_min":69,"x_max":400,"o":"m 400 -103 l 400 -207 l 69 -207 l 69 -144 q 213 -13 151 -85 q 275 126 275 58 q 251 178 275 158 q 192 199 228 199 q 74 154 136 199 l 74 256 q 215 297 142 297 q 351 255 307 297 q 394 153 394 213 q 347 19 394 88 q 229 -103 300 -49 l 400 -103 z "},"₃":{"ha":454,"x_min":68,"x_max":400,"o":"m 207 -214 q 68 -179 143 -214 l 68 -82 q 129 -110 100 -100 q 192 -121 158 -121 q 256 -103 231 -121 q 282 -50 282 -85 q 256 -2 282 -19 q 190 15 231 15 l 136 15 l 136 97 l 192 97 q 238 112 219 97 q 257 157 257 126 q 236 190 257 176 q 183 203 215 203 q 81 176 131 203 l 81 268 q 200 297 136 297 q 328 259 281 297 q 376 163 376 221 q 363 110 376 132 q 333 76 350 88 q 308 63 317 64 q 374 15 347 43 q 400 -67 400 -12 q 347 -173 400 -132 q 207 -214 294 -214 z "},"₄":{"ha":463,"x_min":38,"x_max":424,"o":"m 356 4 l 424 4 l 424 -87 l 356 -87 l 356 -207 l 243 -207 l 243 -87 l 38 -87 l 38 6 l 269 292 l 356 292 l 356 4 m 140 4 l 243 4 l 243 131 l 140 4 z "},"₅":{"ha":446,"x_min":72,"x_max":401,"o":"m 233 -212 q 83 -182 142 -212 l 83 -83 q 138 -109 107 -99 q 201 -119 169 -119 q 283 -54 283 -119 q 258 6 283 -11 q 196 22 233 22 q 117 0 161 22 l 72 58 l 99 292 l 369 292 l 369 196 l 183 196 l 172 99 q 254 108 208 108 q 357 72 313 108 q 401 -49 401 36 q 354 -176 401 -139 q 233 -212 307 -212 z "},"₆":{"ha":474,"x_min":31,"x_max":428,"o":"m 249 -214 q 81 -156 132 -214 q 31 21 31 -99 q 109 242 31 188 q 303 297 188 297 q 385 286 340 297 l 385 197 q 310 210 343 210 q 210 181 260 210 q 151 78 160 153 q 268 114 194 114 q 384 73 340 114 q 428 -42 428 32 q 383 -164 428 -114 q 249 -214 339 -214 m 235 -129 q 290 -107 272 -129 q 307 -46 307 -85 q 285 9 307 -12 q 233 31 264 31 q 184 17 207 31 q 150 -12 161 3 q 177 -102 151 -75 q 235 -129 203 -129 z "},"₇":{"ha":440,"x_min":54,"x_max":404,"o":"m 54 292 l 404 292 l 404 231 l 214 -207 l 96 -207 l 272 188 l 54 188 l 54 292 z "},"₈":{"ha":465,"x_min":44,"x_max":424,"o":"m 233 -214 q 91 -170 138 -214 q 44 -60 44 -126 q 62 3 44 -22 q 100 44 79 29 q 133 61 121 58 q 88 95 113 69 q 63 167 63 121 q 104 261 63 225 q 233 297 146 297 q 362 261 321 297 q 403 167 403 225 q 378 94 403 121 q 335 61 354 68 q 368 44 347 58 q 406 3 389 29 q 424 -60 424 -22 q 376 -170 424 -126 q 233 -214 329 -214 m 233 96 q 274 113 260 96 q 289 153 289 129 q 233 208 289 208 q 194 194 210 208 q 179 151 179 181 q 193 112 179 128 q 233 96 207 96 m 233 -126 q 288 -106 271 -126 q 304 -56 304 -86 q 284 -1 304 -21 q 233 19 264 19 q 183 -1 203 19 q 163 -56 163 -21 q 182 -106 163 -85 q 233 -126 201 -126 z "},"₉":{"ha":474,"x_min":33,"x_max":431,"o":"m 158 -212 q 76 -200 110 -212 l 76 -114 q 150 -125 114 -125 q 252 -97 203 -125 q 308 7 301 -69 q 193 -29 269 -29 q 78 12 122 -29 q 33 125 33 53 q 78 248 33 199 q 213 297 122 297 q 380 240 329 297 q 431 63 431 182 q 352 -158 431 -103 q 158 -212 274 -212 m 215 53 q 274 67 250 53 q 310 96 299 81 q 217 214 310 214 q 167 188 182 214 q 153 129 153 161 q 173 75 153 97 q 215 53 193 53 z "},"⁰":{"ha":525,"x_min":51,"x_max":472,"o":"m 263 635 q 103 699 156 635 q 51 890 51 763 q 103 1082 51 1018 q 263 1146 156 1146 q 421 1082 369 1146 q 472 890 472 1018 q 421 699 472 763 q 263 635 369 635 m 263 725 q 329 761 299 725 q 360 890 360 797 q 329 1021 360 985 q 263 1057 299 1057 q 194 1021 225 1057 q 163 890 163 985 q 194 761 163 797 q 263 725 225 725 z "},"¹":{"ha":332,"x_min":58,"x_max":240,"o":"m 154 1142 l 240 1142 l 240 643 l 124 643 l 124 1001 l 58 961 l 58 1081 l 154 1142 z "},"²":{"ha":460,"x_min":69,"x_max":400,"o":"m 400 747 l 400 643 l 69 643 l 69 706 q 213 837 151 765 q 275 976 275 908 q 251 1028 275 1008 q 192 1049 228 1049 q 74 1004 136 1049 l 74 1106 q 215 1147 142 1147 q 351 1105 307 1147 q 394 1003 394 1063 q 347 869 394 938 q 229 747 300 801 l 400 747 z "},"³":{"ha":454,"x_min":68,"x_max":400,"o":"m 207 636 q 68 671 143 636 l 68 768 q 129 740 100 750 q 192 729 158 729 q 256 747 231 729 q 282 800 282 765 q 256 848 282 831 q 190 865 231 865 l 136 865 l 136 947 l 192 947 q 238 962 219 947 q 257 1007 257 976 q 236 1040 257 1026 q 183 1053 215 1053 q 81 1026 131 1053 l 81 1118 q 200 1147 136 1147 q 328 1109 281 1147 q 376 1013 376 1071 q 363 960 376 982 q 333 926 350 938 q 308 913 317 914 q 374 865 347 893 q 400 783 400 838 q 347 677 400 718 q 207 636 294 636 z "},"⁴":{"ha":463,"x_min":38,"x_max":424,"o":"m 356 854 l 424 854 l 424 763 l 356 763 l 356 643 l 243 643 l 243 763 l 38 763 l 38 856 l 269 1142 l 356 1142 l 356 854 m 140 854 l 243 854 l 243 981 l 140 854 z "},"⁵":{"ha":446,"x_min":72,"x_max":401,"o":"m 233 638 q 83 668 142 638 l 83 767 q 138 741 107 751 q 201 731 169 731 q 283 796 283 731 q 258 856 283 839 q 196 872 233 872 q 117 850 161 872 l 72 908 l 99 1142 l 369 1142 l 369 1046 l 183 1046 l 172 949 q 254 958 208 958 q 357 922 313 958 q 401 801 401 886 q 354 674 401 711 q 233 638 307 638 z "},"⁶":{"ha":474,"x_min":31,"x_max":428,"o":"m 249 636 q 81 694 132 636 q 31 871 31 751 q 109 1092 31 1038 q 303 1147 188 1147 q 385 1136 340 1147 l 385 1047 q 310 1060 343 1060 q 210 1031 260 1060 q 151 928 160 1003 q 268 964 194 964 q 384 923 340 964 q 428 808 428 882 q 383 686 428 736 q 249 636 339 636 m 235 721 q 290 743 272 721 q 307 804 307 765 q 285 859 307 838 q 233 881 264 881 q 184 867 207 881 q 150 838 161 853 q 177 748 151 775 q 235 721 203 721 z "},"⁷":{"ha":440,"x_min":54,"x_max":404,"o":"m 54 1142 l 404 1142 l 404 1081 l 214 643 l 96 643 l 272 1038 l 54 1038 l 54 1142 z "},"⁸":{"ha":465,"x_min":44,"x_max":424,"o":"m 233 636 q 91 680 138 636 q 44 790 44 724 q 62 853 44 828 q 100 894 79 879 q 133 911 121 908 q 88 945 113 919 q 63 1017 63 971 q 104 1111 63 1075 q 233 1147 146 1147 q 362 1111 321 1147 q 403 1017 403 1075 q 378 944 403 971 q 335 911 354 918 q 368 894 347 908 q 406 853 389 879 q 424 790 424 828 q 376 680 424 724 q 233 636 329 636 m 233 946 q 274 963 260 946 q 289 1003 289 979 q 233 1058 289 1058 q 194 1044 210 1058 q 179 1001 179 1031 q 193 962 179 978 q 233 946 207 946 m 233 724 q 288 744 271 724 q 304 794 304 764 q 284 849 304 829 q 233 869 264 869 q 183 849 203 869 q 163 794 163 829 q 182 744 163 765 q 233 724 201 724 z "},"⁹":{"ha":474,"x_min":33,"x_max":431,"o":"m 158 638 q 76 650 110 638 l 76 736 q 150 725 114 725 q 252 753 203 725 q 308 857 301 781 q 193 821 269 821 q 78 862 122 821 q 33 975 33 903 q 78 1098 33 1049 q 213 1147 122 1147 q 380 1090 329 1147 q 431 913 431 1032 q 352 692 431 747 q 158 638 274 638 m 215 903 q 274 917 250 903 q 310 946 299 931 q 217 1064 310 1064 q 167 1038 182 1064 q 153 979 153 1011 q 173 925 153 947 q 215 903 193 903 z "},"⁄":{"ha":653,"x_min":-29,"x_max":682,"o":"m -29 -31 l 565 951 l 682 951 l 88 -31 l -29 -31 z "},"½":{"ha":982,"x_min":58,"x_max":913,"o":"m 154 935 l 240 935 l 240 436 l 124 436 l 124 794 l 58 754 l 58 874 l 154 935 m 83 -31 l 678 951 l 794 951 l 200 -31 l 83 -31 m 913 106 l 913 1 l 582 1 l 582 64 q 726 195 664 124 q 788 335 788 267 q 764 387 788 367 q 704 407 740 407 q 586 363 649 407 l 586 464 q 728 506 654 506 q 863 463 819 506 q 907 361 907 421 q 860 228 907 296 q 742 106 813 160 l 913 106 z "},"⅓":{"ha":1011,"x_min":58,"x_max":990,"o":"m 154 935 l 240 935 l 240 436 l 124 436 l 124 794 l 58 754 l 58 874 l 154 935 m 142 -31 l 736 951 l 853 951 l 258 -31 l 142 -31 m 797 -6 q 658 29 733 -6 l 658 126 q 719 98 690 108 q 782 88 749 88 q 847 106 821 88 q 872 158 872 124 q 847 206 872 189 q 781 224 821 224 l 726 224 l 726 306 l 782 306 q 828 320 810 306 q 847 365 847 335 q 826 398 847 385 q 774 411 806 411 q 671 385 721 411 l 671 476 q 790 506 726 506 q 919 467 871 506 q 967 371 967 429 q 953 318 967 340 q 924 284 940 296 q 899 271 907 272 q 964 224 938 251 q 990 142 990 196 q 938 35 990 76 q 797 -6 885 -6 z "},"¼":{"ha":1024,"x_min":58,"x_max":954,"o":"m 154 935 l 240 935 l 240 436 l 124 436 l 124 794 l 58 754 l 58 874 l 154 935 m 90 -31 l 685 951 l 801 951 l 207 -31 l 90 -31 m 886 213 l 954 213 l 954 121 l 886 121 l 886 1 l 774 1 l 774 121 l 568 121 l 568 214 l 800 500 l 886 500 l 886 213 m 671 213 l 774 213 l 774 339 l 671 213 z "},"¾":{"ha":1063,"x_min":68,"x_max":993,"o":"m 207 436 q 68 471 143 436 l 68 568 q 129 540 100 550 q 192 529 158 529 q 256 547 231 529 q 282 600 282 565 q 256 648 282 631 q 190 665 231 665 l 136 665 l 136 747 l 192 747 q 238 762 219 747 q 257 807 257 776 q 236 840 257 826 q 183 853 215 853 q 81 826 131 853 l 81 918 q 200 947 136 947 q 328 909 281 947 q 376 813 376 871 q 363 760 376 782 q 333 726 350 738 q 308 713 317 714 q 374 665 347 693 q 400 583 400 638 q 347 477 400 518 q 207 436 294 436 m 182 -31 l 776 951 l 893 951 l 299 -31 l 182 -31 m 925 213 l 993 213 l 993 121 l 925 121 l 925 1 l 813 1 l 813 121 l 607 121 l 607 214 l 839 500 l 925 500 l 925 213 m 710 213 l 813 213 l 813 339 l 710 213 z "}}}
